<?xml version="1.0" encoding="utf-8"?>
<!-- Generator: Adobe Illustrator 20.0.0, SVG Export Plug-In . SVG Version: 6.00 Build 0)  -->
<svg version="1.1" xmlns="http://www.w3.org/2000/svg" xmlns:xlink="http://www.w3.org/1999/xlink" x="0px" y="0px"
	 viewBox="0 0 1000 1000" style="enable-background:new 0 0 1000 1000;" xml:space="preserve">
<style type="text/css">
	.st0{fill:#FCE0C4;}
	.st1{fill:#BCA599;}
	.st2{fill:#BBA194;}
	.st3{fill:none;}
	.st4{opacity:0.7;fill:#608C7F;}
	.st5{fill:#9E8270;}
	.st6{fill:#FAF7D3;}
	.st7{fill:#608C7F;}
	.st8{fill:#575754;}
</style>
<g id="Calque_2">
	<path class="st0" d="M396.2,428.1c0,0-28.7-4.1-17.4,29.7c0,0,3.1,15.4,3.1,20.5c0,5.1,3.1,20.5,3.1,20.5s2,9.2,6.1,7.2
		c4.1-2,54.3,81,57.4,82s57.4,33.8,57.4,33.8v18.4h14.3c0,0,16.4-11.3,34.8,0l14.3,1l1-21.5l97.4-93.3l16.4-21.5c0,0,4.1,1,7.2-4.1
		s7.2-12.3,5.1-18.4c-2-6.1,4.1-32.8,4.1-32.8s9.2-23.6-17.4-22.5H676l-2-50.2l-4.1-32.8L552,266.1l-117.9,32.8l-34.8,40l3.1,77.9
		L396.2,428.1z"/>
</g>
<g id="Calque_3">
	<path class="st1" d="M407.5,438.3l1,34.8l3.1,19.5c0,0,6.1,15.4,14.3,18.4c8.2,3.1,16.4,11.3,35.9,11.3c0,0,32.8-6.1,38.9-6.1
		c6.1,0,6.1,0,6.1,0s7.2,3.1,13.3,1c0,0,17.4,9.2,36.9,1c0,0,6.1,1,13.3-3.1c0,0,19.5,3.1,25.6,7.2c0,0,36.9,3.1,54.3-9.2
		c0,0,14.3-13.3,17.4-21.5c0,0,3.1-13.3,4.1-18.4c1-5.1,0-23.6,0-23.6l4.1-18.4l6.1-8.2l4.1,116.8c0,0,7.2,37.9-18.4,58.4
		c0,0-25.6,27.7-64.6,22.5H511c0,0-65.6,4.1-75.8-6.1c0,0-34.8-14.3-42-47.1c0,0-2-27.7,1-48.2l4.1-93.3L407.5,438.3z"/>
</g>
<g id="Calque_4">
	<path class="st0" d="M500.8,546.9c0,0,15.4,18.4,54.3,12.3c0,0,14.3-3.1,21.5-9.2c0,0,7.2-9.2-9.2-5.1c0,0-34.8,11.3-55.3,0
		C512,544.9,501.8,539.8,500.8,546.9z"/>
</g>
<g id="Calque_5">
	<path class="st2" d="M504.9,399.4c0,0-51.2-6.1-76.9-3.1c0,0-2-9.2,6.1-10.2c0,0,47.1-17.4,72.8-2
		C506.9,384,518.2,381.9,504.9,399.4z"/>
	<path class="st2" d="M568.4,383c0,0-1,16.4,6.1,16.4c0,0,33.8-6.1,43-5.1c9.2,1,32.8,1,32.8,1s10.2-6.1-17.4-12.3
		C633,383,620.7,369.6,568.4,383z"/>
</g>
<g id="Calque_6">
	<path class="st2" d="M399,399.9l6.4-0.6l-0.6-18.6l0.6-8.7l2.3-19.1c0,0-0.6-47,36-20.3c0,0,19.1-49.3,68.5-20.9
		c0,0,63.8,45.3,69.6,48.2c0,0,62.1,37.7,91.7,13.3l0.6,26.1l7,1.2l-1.7-31.3c0,0,34.8-22.1,18-101.6c0,0-7-24.4-16.8-30.2
		c0,0-7.5,29.6-21.5,26.1c0,0-13.9,2.9-31.9-13.3c0,0-52.8-34.8-103.3-33.1c0,0-59.8,1.2-80.1,27.3c0,0-11,16.2-8.7,36.6
		c0,0-25.5-19.1-41.2,7.5c0,0-12.8,18-7,56.9c0,0,4.1,26.7,12.8,38.3L399,399.9z"/>
</g>
<g id="Calque_7">
	<g>
		<path class="st3" d="M493.8,406.2c-20.1-6.6-60.1,0-60.1,0c-6.9,0.3-15.1,9.4-15.1,9.4c-4.7,4.1-2.2,25.2-2.2,25.2
			c0.6,12.3,10.1,23.9,10.1,23.9s10.7,9.1,19.8,10.1c0,0,11,1.6,13.5,1.6c0,0,24.2-0.3,26.8-0.9c0,0,14.5-2.2,22.7-12
			c0,0,7.8-10.7,8.8-19.5c0.3-2.8,1.3-8.8,1.3-8.8C524.4,409,493.8,406.2,493.8,406.2z"/>
		<path class="st4" d="M416.4,440.8c0,0-2.5-21.1,2.2-25.2c0,0,8.2-9.1,15.1-9.4c0,0,40-6.6,60.1,0c0,0,30.5,2.8,25.5,29l15.1-29.3
			c0,0-45.9-11.2-76.2-10.4c0,0-54.4,0.9-62.9,5c0,0-0.4,19.8,1.3,22.7c0,0,7.2,8.8,8.5,10.7c0,0,6.6,14.5,7.6,18.6
			c0,0,6.9,13.5,9.4,15.4l4.4-3.1C426.5,464.7,417.1,453.1,416.4,440.8z"/>
		<path class="st4" d="M539.2,406.5l-4.7-0.6l-15.1,29.3c0,0-0.9,6-1.3,8.8c-1,8.8-8.8,19.5-8.8,19.5c-8.2,9.8-22.7,12-22.7,12
			c-2.5,0.6-26.8,0.9-26.8,0.9c-2.5,0-13.5-1.6-13.5-1.6c-9.1-0.9-19.8-10.1-19.8-10.1l-4.4,3.1c10.4,9.1,21.1,11.3,21.1,11.3
			c11,4.1,36.2,2.8,36.2,2.8c10.4,0.6,27.1-7.6,27.1-7.6c12.6-6,18.9-26.1,18.9-26.1c6-20.5,14.2-21.1,14.2-21.1L539.2,406.5z"/>
	</g>
	<g>
		<path class="st3" d="M584.1,406.4c20.1-6.6,60.1,0,60.1,0c6.9,0.3,15.1,9.4,15.1,9.4c4.7,4.1,2.2,25.2,2.2,25.2
			c-0.6,12.3-10.1,23.9-10.1,23.9s-10.7,9.1-19.8,10.1c0,0-11,1.6-13.5,1.6c0,0-24.2-0.3-26.8-0.9c0,0-14.5-2.2-22.7-12
			c0,0-7.8-10.7-8.8-19.5c-0.3-2.8-1.3-8.8-1.3-8.8C553.6,409.3,584.1,406.4,584.1,406.4z"/>
		<path class="st4" d="M661.6,441c0,0,2.5-21.1-2.2-25.2c0,0-8.2-9.1-15.1-9.4c0,0-40-6.6-60.1,0c0,0-30.5,2.8-25.5,29l-15.1-29.3
			c0,0,45.9-11.2,76.2-10.4c0,0,54.4,0.9,62.9,5c0,0,0.4,19.8-1.3,22.7c0,0-7.2,8.8-8.5,10.7c0,0-6.6,14.5-7.6,18.6
			c0,0-6.9,13.5-9.4,15.4l-4.4-3.1C651.5,465,660.9,453.3,661.6,441z"/>
		<path class="st4" d="M538.8,406.7l4.7-0.6l15.1,29.3c0,0,0.9,6,1.3,8.8c1,8.8,8.8,19.5,8.8,19.5c8.2,9.8,22.7,12,22.7,12
			c2.5,0.6,26.8,0.9,26.8,0.9c2.5,0,13.5-1.6,13.5-1.6c9.1-0.9,19.8-10.1,19.8-10.1l4.4,3.1c-10.4,9.1-21.1,11.3-21.1,11.3
			c-11,4.1-36.2,2.8-36.2,2.8c-10.4,0.6-27.1-7.6-27.1-7.6c-12.6-6-18.9-26.1-18.9-26.1c-6-20.5-14.2-21.1-14.2-21.1L538.8,406.7z"
			/>
	</g>
	<g>
		<path class="st5" d="M466,433.9c-6.8,0-12.3,5.5-12.3,12.3c0,6.8,5.5,12.3,12.3,12.3c6.8,0,12.3-5.5,12.3-12.3
			C478.3,439.5,472.7,433.9,466,433.9z M469.1,446.5c-2.3,0-4.2-2.1-4.2-4.6c0-2.5,1.9-4.6,4.2-4.6c2.3,0,4.2,2.1,4.2,4.6
			C473.2,444.4,471.4,446.5,469.1,446.5z"/>
		<ellipse class="st6" cx="469.1" cy="441.9" rx="4.2" ry="4.6"/>
	</g>
	<g>
		<path class="st5" d="M613,434.3c-6.8,0-12.3,5.5-12.3,12.3c0,6.8,5.5,12.3,12.3,12.3c6.8,0,12.3-5.5,12.3-12.3
			C625.3,439.8,619.8,434.3,613,434.3z M616.2,446.8c-2.3,0-4.2-2.1-4.2-4.6c0-2.5,1.9-4.6,4.2-4.6c2.3,0,4.2,2.1,4.2,4.6
			C620.3,444.7,618.5,446.8,616.2,446.8z"/>
		<ellipse class="st6" cx="616.2" cy="442.2" rx="4.2" ry="4.6"/>
	</g>
</g>
<g id="Calque_8">
	<path class="st0" d="M505.9,640.2c0,0,13.8,29.1,31.9,33.1c0,0,24-3.6,31.6-32.1C569.4,641.2,528.4,619.2,505.9,640.2z"/>
</g>
<g id="Calque_9">
	<path class="st7" d="M505.9,640.2c0,0,15.8,35.1,31.9,33.1c0,0,24-5.7,31.6-32.1l71.2,0.8c0,0,21.2,6,30.2,21.2l47.4,49.4
		l19.1,18.1c0,0-27.2,26.2-49.4,22.2s-9.1-3-9.1-3l-4,103.8V894l-267.1-2l-1-87.7l-23.2,5c0,0-66.5,33.3-84.7-9.1
		c0,0-16.1-24.2,32.3-63.5l85.7-79.6c0,0,14.1-16.1,31.2-14.1L505.9,640.2z"/>
	<path class="st7" d="M735.5,728.5l99.1,99.8c0,0-22.2,38.5-36.4,36.2c-14.2-2.3-120-113.8-120-113.8S735.1,738.7,735.5,728.5z"/>
	<path class="st0" d="M399.7,737.8c0,0-29.2,14.1-19.1,36.3c0,0,6,30.2,16.1,30.2c0,0,12.1,2,9.1-12.1c0,0-6-10.1-4-13.1
		c0,0,6-7.1,13.1,22.2c0,0,11.1,13.1,15.1-1c0,0-1-10.1-6-24.2c0,0,3-10.1,7.1,4c0,0,6,26.2,16.1,21.2c0,0,12.1,0,1-26.2
		c0,0-5-17.1,2-9.1c0,0,22.2,55.4,28.2,51.4c0,0,13.1,2-3-34.3l-16.1-42.3c0,0-8.1-15.1-26.2-12.1
		C433,728.7,409.8,732.8,399.7,737.8z"/>
</g>
<g id="Calque_12">
</g>
<g id="Calque_11">
	<path class="st8" d="M449.2,775.1c0,0-17.4,8.1-14.1,15.1l16.3-8.1L449.2,775.1z"/>
	<polygon class="st8" points="468.8,765.8 491.2,763.6 473,776.3 	"/>
	<polygon class="st8" points="475.8,784.4 490.1,757.3 472.8,776.1 	"/>
	<path class="st8" d="M527.2,726.2c0,0-40.3,34.3-44.3,43.3C482.8,769.5,487.9,724.2,527.2,726.2z"/>
	<path class="st8" d="M533.2,728.5c0,0-47.2,43.2-61.9,40.7C471.4,769.2,523.6,772.3,533.2,728.5z"/>
</g>
<g id="Calque_10">
	<path class="st0" d="M798.2,864.5l-2,38.9c0,0,14.5,13.3,13.3-31.4c0,0,19.3,43.5,31.4,45.9c12.1,2.4-19.3-48.3-19.3-48.3
		s30.2,48.3,39.9,38.7c9.7-9.7-27.8-45.9-27.8-45.9s39.9,38.7,45.9,26.6c6-12.1-43.5-36.3-43.5-36.3s45.9,20.5,48.3,8.5
		c2.4-12.1-49.8-32.8-49.8-32.8"/>
</g>
</svg>
