<svg id="_3" data-name=" 3" xmlns="http://www.w3.org/2000/svg" viewBox="0 0 12.77 41.07"><defs><style>.cls-1{fill:#ff4a45;}.cls-2{fill:#2269c2;}.cls-3{fill:#244794;}.cls-4{fill:#b9c9e9;}.cls-5{fill:#b22f62;}.cls-6{fill:#902070;}.cls-7{fill:#bd2866;}.cls-8{fill:#e52e6e;}.cls-9{fill:#d88229;}.cls-10{fill:#ea983f;}.cls-11{fill:#fff;}.cls-12{fill:#2d213f;}.cls-13{fill:#594767;}.cls-14{fill:#23a035;}.cls-15{fill:#7bc82a;}.cls-16{fill:#212b39;}.cls-17{fill:#554c75;}.cls-18{fill:#ffa96c;}.cls-19{fill:#85d237;}.cls-20{fill:#1b842f;}</style></defs><title>customer8</title><rect class="cls-1" x="8.83" y="39.23" width="1.69" height="1.18"/><rect class="cls-1" x="3.33" y="39.23" width="2.01" height="1.18"/><path class="cls-2" d="M10.87,39.61s-.15-.47-.49-.47H7.87s-.73.44-.73.9S9,40.77,9,40.77h1.86Z" transform="translate(-0.36 -1.03)"/><path class="cls-2" d="M6.56,39.61s-.15-.47-.49-.47H3.56s-.73.44-.73.9,1.86.74,1.86.74H6.56Z" transform="translate(-0.36 -1.03)"/><polygon class="cls-2" points="4.53 39.74 3.2 39.74 3.53 39.41 4.53 39.74"/><path class="cls-3" d="M4.88,40.77v-.71s-.51-.93-.76-.93H3.55s-.81.34-.81.93,1,.71,1,.71Z" transform="translate(-0.36 -1.03)"/><path class="cls-3" d="M9.09,39.13H7.88s-.84.53-.84,1,2,.67,2,.67h1.1V40.1a2.14,2.14,0,0,0-1.1-1" transform="translate(-0.36 -1.03)"/><path class="cls-4" d="M10.87,41.43v.67H.36V40.77s.19-.71.66-.71H3.11s.81.19.81.88v.77h1.7v-.93a.7.7,0,0,1,.7-.72H8.58a1,1,0,0,1,.7.91v.43Z" transform="translate(-0.36 -1.03)"/><rect class="cls-4" x="3.2" y="40.3" width="7.32" height="0.6"/><rect class="cls-5" x="3.2" y="27.23" width="2.49" height="9.89"/><polygon class="cls-6" points="10.08 37.13 7.58 37.13 7.58 27.34 2.61 27.34 2.61 25.2 9.57 25.2 10.08 27.6 10.08 28.82 10.08 37.13"/><polyline class="cls-6" points="10.06 24.61 8.35 24.7 8.35 26.18 8.97 28.88 10.08 28.82"/><rect class="cls-7" x="7.58" y="37.13" width="2.51" height="0.98"/><rect class="cls-8" x="3.2" y="37.13" width="2.49" height="0.98"/><polygon class="cls-9" points="7.97 12.19 7.97 8.95 5.36 10.9 5.26 12.28 6.62 13.63 7.97 12.19"/><path class="cls-10" d="M9.21,9.58V4.18A3.14,3.14,0,0,0,5.94,1.27,2.87,2.87,0,0,0,2.78,4V9.58l1,1.9a5.23,5.23,0,0,0,.84.64,3,3,0,0,0,1.23,0A12.31,12.31,0,0,0,9.21,9.58Z" transform="translate(-0.36 -1.03)"/><path class="cls-10" d="M9.21,6.21s1.06.14,1.06,1-1.06,1-1.06,1Z" transform="translate(-0.36 -1.03)"/><path class="cls-11" d="M5.85,9.22H3.39s.13.82.63,1.05a1.72,1.72,0,0,0,1.13,0S5.71,10.12,5.85,9.22Z" transform="translate(-0.36 -1.03)"/><circle cx="5.51" cy="5.72" r="0.32"/><circle cx="2.97" cy="5.72" r="0.32"/><path d="M9.21,6.21V3.8A3.38,3.38,0,0,0,5.81,1a3,3,0,0,0-3,3H7.93V6.21Z" transform="translate(-0.36 -1.03)"/><path d="M3.41,8.15a1.5,1.5,0,0,0-.6,1.1H7s-.07-1-.46-1.1Z" transform="translate(-0.36 -1.03)"/><path class="cls-12" d="M8.33,12.81,7,14.29V26.58h3.44V13.88A10.25,10.25,0,0,1,8.33,12.81Z" transform="translate(-0.36 -1.03)"/><path class="cls-13" d="M5.65,12.81,7,14.29V26.58H3.55V13.88A10.25,10.25,0,0,0,5.65,12.81Z" transform="translate(-0.36 -1.03)"/><path class="cls-14" d="M10.42,13.88s2.38.56,2.7,2.66v10h-2.7Z" transform="translate(-0.36 -1.03)"/><path class="cls-15" d="M3.55,13.88s-2.38.56-2.7,2.66v10h2.7Z" transform="translate(-0.36 -1.03)"/><path class="cls-14" d="M3.55,15.42V27.66l-1.45-1v-9.4S2.48,15.55,3.55,15.42Z" transform="translate(-0.36 -1.03)"/><path class="cls-15" d="M10.42,15.42V27.66l1.45-1v-9.4S11.49,15.55,10.42,15.42Z" transform="translate(-0.36 -1.03)"/><rect class="cls-16" x="11.52" y="23.45" width="1.25" height="0.44"/><rect class="cls-16" x="11.52" y="24.14" width="1.25" height="0.44"/><rect class="cls-17" x="10.06" y="23.45" width="1.45" height="0.44"/><rect class="cls-17" x="10.06" y="24.14" width="1.45" height="0.44"/><rect class="cls-16" x="1.75" y="23.45" width="1.45" height="0.44"/><rect class="cls-16" x="1.75" y="24.14" width="1.45" height="0.44"/><circle class="cls-18" cx="2.02" cy="27.09" r="1.54"/><circle class="cls-18" cx="11.23" cy="27.09" r="1.54"/><polygon class="cls-18" points="12.77 25.55 12.77 27.23 11.23 25.55 12.77 25.55"/><polyline class="cls-18" points="2.03 25.55 0.5 25.55 0.5 27.23"/><polygon class="cls-18" points="11.7 25.55 10.06 25.55 10.06 26.8 11.7 25.55"/><polyline class="cls-18" points="3.2 26.8 1.57 25.55 3.2 25.55"/><circle class="cls-18" cx="6.63" cy="14.71" r="0.37"/><circle class="cls-18" cx="6.63" cy="16.62" r="0.37"/><circle class="cls-18" cx="6.6" cy="18.53" r="0.37"/><circle class="cls-18" cx="6.6" cy="20.43" r="0.37"/><circle class="cls-18" cx="6.6" cy="22.34" r="0.37"/><circle class="cls-18" cx="6.6" cy="24.25" r="0.37"/><polygon class="cls-19" points="5.11 11.93 6.26 13.25 6.03 13.25 4.97 12.02 5.11 11.93"/><polygon class="cls-20" points="8.15 11.93 7 13.25 7.23 13.25 8.29 12.02 8.15 11.93"/><rect class="cls-17" x="0.5" y="23.45" width="1.25" height="0.44"/><rect class="cls-17" x="0.5" y="24.14" width="1.25" height="0.44"/><path class="cls-19" d="M5.17,13.14l1,1.14H5.94L5,13.21Z" transform="translate(-0.36 -1.03)"/><path class="cls-20" d="M8.81,13.14l-1,1.14H8L9,13.21Z" transform="translate(-0.36 -1.03)"/></svg>