<svg id="_3" data-name=" 3" xmlns="http://www.w3.org/2000/svg" viewBox="0 0 12.95 42.14"><defs><style>.cls-1{fill:#57203d;}.cls-2{fill:#c11d45;}.cls-3{fill:#f34233;}.cls-4{fill:#00709b;}.cls-5{fill:#0d4187;}.cls-6{fill:#0d468d;}.cls-7{fill:#fd6944;}.cls-8{fill:#1fa133;}.cls-9{fill:#7bc92b;}.cls-10{fill:#19843b;}.cls-11{fill:#1ca63f;}.cls-12{fill:#b6c3da;}.cls-13{fill:#276ac9;}.cls-14{fill:#dae4fe;}.cls-15{fill:#fb9255;}.cls-16{fill:#ffa96c;}.cls-17{fill:#fff;}.cls-18{fill:#d3e6ff;}.cls-19{fill:#b6cbd6;}</style></defs><title>customer2</title><polygon class="cls-1" points="10.35 40.05 10.35 38.29 7.76 38.29 7.76 39.44 9.88 40.52 10.35 40.52 10.35 40.05"/><polygon class="cls-1" points="5.88 40.39 5.88 38.63 3.11 38.63 3.11 39.78 5.38 40.85 5.88 40.85 5.88 40.39"/><path class="cls-1" d="M11,40.78v1.84H.29V41.7l4.05-1.17h6.17S11,40.47,11,40.78Z" transform="translate(-0.16 -0.48)"/><path class="cls-2" d="M10.36,41.95H8.63L7,40.53s.49-.81.8-.92h1s1.18.43,1.4,1.17Z" transform="translate(-0.16 -0.48)"/><path class="cls-3" d="M9.24,41.94s.09-1.23-.69-1.4H6.16s-.66.28-.6,1.41Z" transform="translate(-0.16 -0.48)"/><path class="cls-2" d="M2.58,40.54s.49-.94.92-1a1.5,1.5,0,0,1,1.16,1c0,.35,0,1.62,0,1.62h-2Z" transform="translate(-0.16 -0.48)"/><path class="cls-3" d="M3.75,42.15H.29v-.94s.11-.64.66-.69,2,0,2,0,.75.23.75.64Z" transform="translate(-0.16 -0.48)"/><polyline class="cls-4" points="7.76 37.43 7.76 27.08 9.53 27.08 9.79 36.39 9.5 37.89 7.96 37.89 7.76 37.43"/><polyline class="cls-4" points="3.25 37.83 3.25 27.48 5.01 27.48 5.27 36.78 4.98 38.29 3.44 38.29 3.25 37.83"/><polygon class="cls-5" points="5.85 38.14 4.69 37.71 4.69 26.6 5.85 27.65 5.85 38.14"/><polygon class="cls-5" points="10.32 37.89 9.19 37.49 9.19 27.08 10.32 28.06 10.32 37.89"/><rect class="cls-6" x="7.29" y="37.43" width="3.53" height="1.41"/><rect class="cls-6" x="2.82" y="37.43" width="3.53" height="1.41"/><polygon class="cls-7" points="10.09 3.1 7.88 2.83 8.25 7.96 8.25 10.1 10.09 10.1 10.09 3.1"/><path class="cls-8" d="M6.74,13.41s5.33-.43,6.35,3.53V28.43s-.49,1.44-1.6,1.29c-1.26,0-1.35-.8-1.47-1.5H6.77Z" transform="translate(-0.16 -0.48)"/><path class="cls-9" d="M7.06,13.41S1.73,13,.72,16.94V28.43s.49,1.44,1.6,1.29c1.26,0,1.35-.8,1.47-1.5H7Z" transform="translate(-0.16 -0.48)"/><path class="cls-10" d="M11.1,22.62H8.78a1.81,1.81,0,0,0,1.7,1.18C11.77,23.8,11.1,22.62,11.1,22.62Z" transform="translate(-0.16 -0.48)"/><path class="cls-11" d="M2.79,22.62H5.11a1.81,1.81,0,0,1-1.7,1.18C2.11,23.8,2.79,22.62,2.79,22.62Z" transform="translate(-0.16 -0.48)"/><polygon class="cls-12" points="8.82 15.08 6.89 19.8 4.98 15.08 6.95 14.44 8.82 15.08"/><polygon class="cls-13" points="7.73 14.67 6.81 14.34 6.05 14.88 6.05 17.75 6.89 19.79 7.73 17.76 7.73 14.67"/><path class="cls-14" d="M8.41,13.45a4.84,4.84,0,0,1,1.06.18,19.82,19.82,0,0,1,0,2.7L7,15,4.6,16.23V13.59a3.73,3.73,0,0,1,1.06-.14C6,13.51,7,12.63,7,12.63Z" transform="translate(-0.16 -0.48)"/><path class="cls-15" d="M8.41,10.41v3.15S8,14.66,7.59,14.7a6.61,6.61,0,0,1-.94,0s-.88-.37-1-.61,0-3,0-3Z" transform="translate(-0.16 -0.48)"/><path class="cls-16" d="M9.53,3.9V9.57s-3.73,2.85-4.25,2.87a2.19,2.19,0,0,1-1.6-.57A20.42,20.42,0,0,1,2.59,9.48V5.66L6.06,3.71l2.87-.13Z" transform="translate(-0.16 -0.48)"/><path class="cls-16" d="M9.37,6.15s1.11.13,1.11.95S9.36,8.22,9.36,8.22Z" transform="translate(-0.16 -0.48)"/><circle cx="5.77" cy="6.17" r="0.33"/><circle cx="3.11" cy="6.17" r="0.33"/><path class="cls-17" d="M5.9,9.13H3.3a1.16,1.16,0,0,0,1.3,1A1.16,1.16,0,0,0,5.9,9.13Z" transform="translate(-0.16 -0.48)"/><polygon class="cls-16" points="2.44 5.18 2.44 3.58 5.9 3.23 6.88 4.69 2.44 5.18"/><path class="cls-7" d="M9.58,8S8.32,7.93,8.2,7.18v-3H6.52A3.41,3.41,0,0,1,4.85,5C4.15,5,.16,5,.16,5a3.47,3.47,0,0,1,2.7-3.19S2.14,1,2.57.48H7.14s2.82,1.08,3.09,3a2.94,2.94,0,0,1-.67,2.68Z" transform="translate(-0.16 -0.48)"/><path class="cls-7" d="M3.27,8a1.54,1.54,0,0,0-.62,1.13H6.92s-.08-1-.48-1.13Z" transform="translate(-0.16 -0.48)"/><path class="cls-7" d="M4.33,12.28h0V10.84h1v1.59h-.2A2.79,2.79,0,0,1,4.33,12.28Z" transform="translate(-0.16 -0.48)"/><path class="cls-8" d="M3.36,14.92V27.63l-1.49-1V16.84S2.25,15.06,3.36,14.92Z" transform="translate(-0.16 -0.48)"/><path class="cls-9" d="M10.48,14.92V27.63l1.49-1V16.84S11.58,15.06,10.48,14.92Z" transform="translate(-0.16 -0.48)"/><circle class="cls-16" cx="2.12" cy="27.75" r="1.58"/><circle class="cls-16" cx="11.37" cy="27.75" r="1.58"/><polyline class="cls-16" points="12.93 26.23 12.96 27.75 11.97 26.99 12.16 26.14"/><polygon class="cls-16" points="1.71 26.9 1.39 26.52 0.56 26.52 0.54 27.64 1.55 27.64 1.71 26.9"/><polyline class="cls-16" points="3.2 26.4 3.2 26.84 2.77 26.36"/><rect class="cls-18" x="10.32" y="25.93" width="1.49" height="0.59"/><rect class="cls-19" x="11.81" y="25.93" width="1.12" height="0.59"/><rect class="cls-19" x="1.71" y="25.93" width="1.49" height="0.59"/><rect class="cls-18" x="0.56" y="25.93" width="1.15" height="0.59"/></svg>