<svg id="_3" data-name=" 3" xmlns="http://www.w3.org/2000/svg" viewBox="0 0 12.87 41.08"><defs><style>.cls-1{fill:#654877;}.cls-2{fill:#756289;}.cls-3{fill:#d88427;}.cls-4{fill:#100;}.cls-5{fill:#652142;}.cls-6{fill:#8b3852;}.cls-7{fill:#652337;}.cls-8{fill:#923b56;}.cls-9{fill:#584666;}.cls-10{fill:#2d1f3d;}.cls-11{fill:#e17f2a;}.cls-12{fill:#dc7c28;}.cls-13{fill:#d7e7ff;}.cls-14{fill:#b9c7dc;}.cls-15{fill:#d8832a;}.cls-16{fill:#e9963b;}.cls-17{fill:#584767;}.cls-18{fill:#2e2240;}.cls-19{fill:#dc7e2b;}.cls-20{fill:#e3984d;}.cls-21{fill:#fff;}.cls-22{fill:#52202e;}.cls-23{fill:#511f2e;}.cls-24{fill:#7d6293;}</style></defs><title>customer3</title><rect class="cls-1" x="7.72" y="36.18" width="2.48" height="1.47"/><rect class="cls-2" x="3.25" y="36.18" width="2.48" height="1.47"/><polyline class="cls-3" points="10.2 37.64 10.2 39.72 7.72 39.72 7.72 37.64"/><rect class="cls-3" x="3.25" y="37.64" width="2.48" height="2.07"/><path class="cls-4" d="M10.84,40.59v1.8H.43v-.9l3.95-1.14h6S10.84,40.29,10.84,40.59Z" transform="translate(-0.2 -1.3)"/><path class="cls-5" d="M10.24,41.72H8.55L7,40.35s.48-.79.78-.9h1s1.15.42,1.36,1.14Z" transform="translate(-0.2 -1.3)"/><path class="cls-6" d="M9.15,41.72s.09-1.2-.67-1.37H6.14s-.64.27-.58,1.38Z" transform="translate(-0.2 -1.3)"/><path class="cls-7" d="M2.66,40.36s.48-.92.9-.94a1.46,1.46,0,0,1,1.13.94c0,.34,0,1.58,0,1.58H2.78Z" transform="translate(-0.2 -1.3)"/><path class="cls-8" d="M3.79,41.93H.43V41s.1-.63.65-.67,2,0,2,0,.73.22.73.63Z" transform="translate(-0.2 -1.3)"/><polygon class="cls-9" points="5.74 28.75 5.74 36.69 3.25 36.69 3.25 27.82 5.74 28.75"/><polygon class="cls-10" points="10.2 28.75 10.2 36.69 7.72 36.69 7.72 27.82 10.2 28.75"/><rect class="cls-11" x="8.01" y="31.24" width="1.83" height="1.59"/><rect class="cls-12" x="3.54" y="31.24" width="1.83" height="1.59"/><path class="cls-13" d="M13,20.3H10.41V31.19L3.26,29.84V20.3H.84v-3S.72,13.87,6.94,14,13,17.07,13,17.07Z" transform="translate(-0.2 -1.3)"/><path class="cls-14" d="M6.73,30.5l3.68.69V20.3H13V17.07s.3-2.9-6.1-3.05-.21,0-.21,0Z" transform="translate(-0.2 -1.3)"/><rect class="cls-15" x="10.22" y="19" width="2.64" height="6.99"/><rect class="cls-16" x="0.64" y="19" width="2.41" height="6.99"/><rect class="cls-16" x="10.16" y="19" width="1.52" height="7.29"/><rect class="cls-15" x="1.6" y="19" width="1.45" height="7.29"/><circle class="cls-15" cx="11.33" cy="26.16" r="1.54"/><circle class="cls-16" cx="2.17" cy="26.09" r="1.54"/><path class="cls-17" d="M10.36,25.58" transform="translate(-0.2 -1.3)"/><polygon class="cls-18" points="12.54 20.38 12.66 21.8 9.37 21.49 9.79 19.51 12.54 20.38"/><path class="cls-19" d="M9.33,14.23a2.38,2.38,0,0,1-2.44,2.09,2.09,2.09,0,0,1-2.17-2.17,10.49,10.49,0,0,1,4.61.08" transform="translate(-0.2 -1.3)"/><polygon class="cls-19" points="8.34 12.83 8.34 8.76 6.18 10.16 5.71 11.24 5.71 12.83 8.34 12.83"/><path class="cls-20" d="M9.13,10.24V4.82A3.15,3.15,0,0,0,5.85,1.91,2.88,2.88,0,0,0,2.68,4.66v5.58l1,1.91a5.25,5.25,0,0,0,.84.65,3,3,0,0,0,1.23,0A12.35,12.35,0,0,0,9.13,10.24Z" transform="translate(-0.2 -1.3)"/><path class="cls-20" d="M9,6.65s1.07.14,1.07,1S9,8.64,9,8.64Z" transform="translate(-0.2 -1.3)"/><polygon class="cls-20" points="9.23 5.86 9.23 5.3 8.6 5.13 8.57 5.72 9.23 5.86"/><path class="cls-21" d="M5.95,9.48H3.48s.13.83.63,1.06a1.73,1.73,0,0,0,1.14,0S5.8,10.38,5.95,9.48Z" transform="translate(-0.2 -1.3)"/><path class="cls-22" d="M9.85,7s-.53-.78-.72-.78H1.82v1.4A1.39,1.39,0,0,0,3,8.52,1.67,1.67,0,0,0,4.49,7h.7A1.21,1.21,0,0,0,6.42,8.52c1.48,0,1.6-1.44,1.6-2H9Z" transform="translate(-0.2 -1.3)"/><path class="cls-23" d="M6.23,1.3a3.15,3.15,0,0,1,2.9,3.51H6.08a1.71,1.71,0,0,1-1,.74c-.62.1-4.86.12-4.86.12S.26,3,2.37,2.53c0,0,.13-1-.13-1.24" transform="translate(-0.2 -1.3)"/><path class="cls-18" d="M10.08,14.42a8.5,8.5,0,0,1,1.38.47,5.19,5.19,0,0,1,.61.42l.05,0A2.22,2.22,0,0,1,13,17c0,1.82,0,5.66,0,5.66l-.74-.53h-2v3.43h-2V18A7.85,7.85,0,0,0,10.08,14.42Z" transform="translate(-0.2 -1.3)"/><path class="cls-17" d="M2.65,14.75a8.21,8.21,0,0,1,.84-.32c.07,1.21,1.8,3.63,1.8,3.63v7.51H3.21l0-1.8H.84V16.89C.84,16,1.88,15.19,2.65,14.75Z" transform="translate(-0.2 -1.3)"/><path class="cls-18" d="M3.25,22.42H1.84V17.06s.51-1.17,1.41-1.17Z" transform="translate(-0.2 -1.3)"/><path class="cls-17" d="M10.36,22.4h1.41V17s-.51-1.17-1.41-1.17Z" transform="translate(-0.2 -1.3)"/><polyline class="cls-24" points="12.86 21.11 10.16 21.11 10.16 22.5 12.86 22.5 12.86 21.11"/><polyline class="cls-24" points="3.05 21.11 0.64 21.11 0.64 22.5 3.05 22.5 3.05 21.11"/><path class="cls-23" d="M4.4,12.76h0v-1.4h1v1.55h-.2A2.72,2.72,0,0,1,4.4,12.76Z" transform="translate(-0.2 -1.3)"/></svg>