<svg id="_3" data-name=" 3" xmlns="http://www.w3.org/2000/svg" viewBox="0 0 12.63 41.18"><defs><style>.cls-1{fill:#d1692a;}.cls-2{fill:#de7d40;}.cls-3{fill:#fff;}.cls-4{fill:#007dbf;}.cls-5{fill:#0051ab;}.cls-6{fill:#491f2d;}.cls-7{fill:#22a130;}.cls-8{fill:#7bca28;}.cls-9{fill:#d5376f;}.cls-10{fill:#821c72;}.cls-11{fill:#871d6f;}.cls-12{fill:#c16656;}.cls-13{fill:#003875;}.cls-14{fill:#0069a4;}.cls-15{fill:#007bba;}.cls-16{fill:#05509d;}.cls-17{fill:#de7d41;}.cls-18{fill:none;stroke:#05509d;stroke-miterlimit:10;stroke-width:0.25px;}.cls-19{fill:#085daf;}.cls-20{fill:#0091e1;}.cls-21{fill:#a20310;}.cls-22{fill:#db1025;}.cls-23{fill:#ff293b;}.cls-24{fill:#b7c5e0;}.cls-25{fill:#024e9d;}.cls-26{fill:#cb6725;}.cls-27{fill:#0063cc;}.cls-28{fill:#049de0;}.cls-29{fill:#511f2e;}</style></defs><title>customer7</title><polygon class="cls-1" points="7.88 9.41 8.01 10.47 8.01 13.08 8.21 13.16 7.75 15.04 5.61 14.49 5.25 13.61 5.53 13.1 5.59 13.09 5.59 12.15 6.51 10.24 7.88 9.41"/><path class="cls-2" d="M9.12,9.11s1.24,0,1.24-.94-1.24-1-1.24-1l-.49-2H3.3v5.13S4,12.65,4.71,12.89H6.12a16.35,16.35,0,0,0,3-2.57" transform="translate(-0.32 -0.7)"/><path class="cls-3" d="M6.17,9.95H3.8s.13.81.6,1A1.63,1.63,0,0,0,5.5,11S6,10.83,6.17,9.95Z" transform="translate(-0.32 -0.7)"/><ellipse cx="5.92" cy="7.17" rx="0.31" ry="0.31"/><ellipse cx="3.42" cy="7.17" rx="0.31" ry="0.31"/><polyline class="cls-4" points="9.35 4.09 9.35 4.6 1.36 4.35 1.28 3.36 3.92 2.73"/><polyline class="cls-5" points="7.88 4.28 9.34 4.28 9.34 3.6 7.88 3.6 7.88 4.28"/><path class="cls-6" d="M9.84,7.39a4.07,4.07,0,0,1,.2-.92A1.75,1.75,0,0,0,9.67,5C9.26,4.54,6,4.21,6,4.21L4.19,5a1.63,1.63,0,0,0-1.67-.9,3,3,0,0,0-1.47,2H2.37V7.19H3.3V6.09a1.49,1.49,0,0,0,1-.47H8.36v2s.23.69.84.65V7.21l.64.18" transform="translate(-0.32 -0.7)"/><path class="cls-4" d="M9.67,4.79H4s-1.44-1.5-2.39,0H.33a2.1,2.1,0,0,1,2-1.24A3.9,3.9,0,0,1,5.93.7,4.08,4.08,0,0,1,9.67,3.55Z" transform="translate(-0.32 -0.7)"/><polyline class="cls-4" points="7.88 4.28 9.35 4.28 9.35 3.76 7.88 3.76 7.88 4.28"/><path class="cls-5" d="M8.2,4.73A2.78,2.78,0,0,0,8,4.48a2.22,2.22,0,0,0-1.33-.86h-5S.58,4,.32,4.73H1.71s.71-.58,1-.55S3.49,4,4.19,5L6,4.21Z" transform="translate(-0.32 -0.7)"/><path class="cls-5" d="M4.19,5h4V4.73L5.57,4.06,2.78,3.88l.23.3S3.44,4.18,4.19,5Z" transform="translate(-0.32 -0.7)"/><path class="cls-7" d="M12.95,19H10.53v6.6H7.11V15A1.11,1.11,0,0,0,8.38,13.8s4.57.51,4.57,2.77Z" transform="translate(-0.32 -0.7)"/><path class="cls-8" d="M1.27,19H3.69v6.6H7.11V15A1.11,1.11,0,0,1,5.84,13.8s-4.57.51-4.57,2.77Z" transform="translate(-0.32 -0.7)"/><path class="cls-8" d="M10.53,19V15.74s1.15.72,1.15,1.33V19Z" transform="translate(-0.32 -0.7)"/><path class="cls-7" d="M3.68,19V15.74s-1.15.72-1.15,1.33V19Z" transform="translate(-0.32 -0.7)"/><polyline class="cls-9" points="2.21 18.25 2.21 17.46 0.95 17.46 0.95 18.25 2.21 18.25"/><polyline class="cls-10" points="12.62 18.25 12.62 17.46 11.36 17.46 11.36 18.25 12.62 18.25"/><polyline class="cls-9" points="11.36 18.25 11.36 17.46 10.21 17.46 10.21 18.25 11.36 18.25"/><polyline class="cls-10" points="10.21 18.25 10.21 17.46 6.79 17.46 6.79 18.25 10.21 18.25"/><polyline class="cls-10" points="10.21 19.64 10.21 18.85 6.73 18.85 6.73 19.64 10.21 19.64"/><polyline class="cls-10" points="10.21 20.84 10.21 20.05 6.73 20.05 6.73 20.84 10.21 20.84"/><polyline class="cls-10" points="10.21 22.2 10.21 21.41 6.73 21.41 6.73 22.2 10.21 22.2"/><polyline class="cls-10" points="10.21 23.6 10.21 22.81 6.73 22.81 6.73 23.6 10.21 23.6"/><polyline class="cls-10" points="10.21 25.01 10.21 24.22 6.73 24.22 6.73 25.01 10.21 25.01"/><polyline class="cls-9" points="6.79 18.25 6.79 17.46 3.25 17.46 3.25 18.25 6.79 18.25"/><polyline class="cls-9" points="6.79 19.64 6.79 18.85 3.31 18.85 3.31 19.64 6.79 19.64"/><polyline class="cls-9" points="6.79 20.84 6.79 20.05 3.31 20.05 3.31 20.84 6.79 20.84"/><polyline class="cls-9" points="6.79 22.2 6.79 21.41 3.31 21.41 3.31 22.2 6.79 22.2"/><polyline class="cls-9" points="6.79 23.6 6.79 22.81 3.31 22.81 3.31 23.6 6.79 23.6"/><polyline class="cls-9" points="6.79 25.01 6.79 24.22 3.31 24.22 3.31 25.01 6.79 25.01"/><polyline class="cls-10" points="3.39 18.25 3.39 17.46 2.21 17.46 2.21 18.25 3.39 18.25"/><path d="M8.38,13.8" transform="translate(-0.32 -0.7)"/><path class="cls-11" d="M8.53,13.82l-.15,0A1.11,1.11,0,0,1,7.11,15v.17S8.66,15.27,8.53,13.82Z" transform="translate(-0.32 -0.7)"/><path class="cls-12" d="M5.7,13.82l.15,0A1.11,1.11,0,0,0,7.12,15v.17S5.57,15.27,5.7,13.82Z" transform="translate(-0.32 -0.7)"/><polygon class="cls-13" points="10.21 24.85 3.38 24.85 3.38 27.36 7.64 27.36 7.64 36.54 10.21 36.54 10.21 24.85"/><polyline class="cls-14" points="3.38 36.54 5.95 36.54 5.95 27.36 3.38 27.36"/><rect class="cls-15" x="3.99" y="30.66" width="1.98" height="3.04" rx="0.96" ry="0.96" transform="translate(9.64 63.66) rotate(180)"/><path class="cls-16" d="M7.11,27.15V25.55h-1v.67S6.25,27.15,7.11,27.15Z" transform="translate(-0.32 -0.7)"/><path class="cls-17" d="M9.25,25.55" transform="translate(-0.32 -0.7)"/><path class="cls-17" d="M10.24,26.86" transform="translate(-0.32 -0.7)"/><path class="cls-18" d="M9.56,25.55s0,1.22,1,1.22" transform="translate(-0.32 -0.7)"/><path class="cls-18" d="M5,25.55s0,1.22-1,1.22" transform="translate(-0.32 -0.7)"/><rect class="cls-19" x="7.64" y="36.54" width="2.57" height="0.67"/><rect class="cls-20" x="3.38" y="36.54" width="2.57" height="0.67"/><rect class="cls-21" x="7.64" y="37.21" width="2.57" height="0.78"/><rect class="cls-21" x="3.38" y="37.21" width="2.57" height="0.78"/><path class="cls-22" d="M6.27,38.7H3.69v2.77h7.24V39.9s-.15-.37-.4-.37V38.7H8v1.7H6.1l.16-.55Z" transform="translate(-0.32 -0.7)"/><polygon class="cls-23" points="10 40.7 9.96 39.78 8.62 39.85 8.54 40.77 10 40.7"/><path class="cls-23" d="M10.31,41H8.69L7.2,39.62s.46-.78.75-.89h1s1.11.41,1.31,1.12Z" transform="translate(-0.32 -0.7)"/><path class="cls-24" d="M9.26,41s.09-1.19-.65-1.35H6.37s-.62.27-.56,1.36Z" transform="translate(-0.32 -0.7)"/><path class="cls-23" d="M3,39.62s.46-.9.86-.92A1.42,1.42,0,0,1,5,39.62c0,.33,0,1.55,0,1.55H3.13Z" transform="translate(-0.32 -0.7)"/><path class="cls-24" d="M4.11,41.19H.87v-.9s.1-.62.62-.66,1.91,0,1.91,0,.71.22.71.62Z" transform="translate(-0.32 -0.7)"/><rect class="cls-24" x="0.55" y="40.49" width="10.07" height="0.69"/><polygon class="cls-24" points="8.94 40.27 8.94 40.84 5.48 40.84 5.48 40.28 8.94 40.27"/><rect class="cls-25" x="8.22" y="30.66" width="1.98" height="3.04" rx="0.96" ry="0.96" transform="translate(18.09 63.66) rotate(180)"/><rect class="cls-26" x="10.21" y="18.25" width="2.41" height="6.89"/><rect class="cls-17" x="10.21" y="18.25" width="1.15" height="7.18"/><ellipse class="cls-26" cx="11.15" cy="25.31" rx="1.48" ry="1.52"/><rect class="cls-17" x="0.96" y="18.25" width="2.43" height="6.89"/><rect class="cls-26" x="2.21" y="18.24" width="1.17" height="7.18"/><ellipse class="cls-17" cx="2.44" cy="25.31" rx="1.48" ry="1.52"/><rect class="cls-27" x="8.46" y="31.05" width="1.5" height="2.26" rx="0.75" ry="0.75" transform="translate(18.09 63.66) rotate(180)"/><rect class="cls-28" x="4.23" y="31.05" width="1.5" height="2.26" rx="0.75" ry="0.75" transform="translate(9.64 63.66) rotate(-180)"/><path class="cls-29" d="M4.57,12.83h0V11.45h1V13H5.35A2.57,2.57,0,0,1,4.57,12.83Z" transform="translate(-0.32 -0.7)"/></svg>