<svg id="_3" data-name=" 3" xmlns="http://www.w3.org/2000/svg" viewBox="0 0 12.49 41.4"><defs><style>.cls-1{fill:#57203d;}.cls-2{fill:#c11d45;}.cls-3{fill:#f34233;}.cls-4{fill:#7cc724;}.cls-5{fill:#1da136;}.cls-6{fill:#7acf26;}.cls-7{fill:#1b8738;}.cls-8{fill:#118636;}.cls-9{fill:#96462d;}.cls-10{fill:#ff464f;}.cls-11{fill:#d72f30;}.cls-12{fill:#dae4fe;}.cls-13{fill:#531f2e;}.cls-14{fill:#fff;}.cls-15{fill:#803925;}.cls-16{fill:#974a2e;}.cls-17{fill:#c4272b;}.cls-18{fill:#e62f36;}</style></defs><title>customer4</title><polygon class="cls-1" points="10.06 39.35 10.06 37.61 7.51 37.61 7.51 38.74 9.6 39.8 10.06 39.8 10.06 39.35"/><polygon class="cls-1" points="5.66 39.68 5.66 37.94 2.93 37.94 2.93 39.08 5.16 40.13 5.66 40.13 5.66 39.68"/><path class="cls-1" d="M11,40.61v1.81H.49v-.91l4-1.15h6.07S11,40.3,11,40.61Z" transform="translate(-0.49 -1.02)"/><path class="cls-2" d="M10.41,41.75H8.7L7.14,40.36s.48-.8.79-.91H9s1.16.42,1.38,1.15Z" transform="translate(-0.49 -1.02)"/><path class="cls-3" d="M9.3,41.75s.09-1.21-.68-1.38H6.27s-.65.27-.59,1.39Z" transform="translate(-0.49 -1.02)"/><path class="cls-2" d="M2.75,40.37s.48-.93.91-.95a1.48,1.48,0,0,1,1.15.95c0,.34,0,1.59,0,1.59H2.87Z" transform="translate(-0.49 -1.02)"/><path class="cls-3" d="M3.89,42H.49V41s.1-.63.65-.68,2,0,2,0,.74.23.74.63Z" transform="translate(-0.49 -1.02)"/><polygon class="cls-4" points="3.04 36.77 3.04 26.08 4.34 26.19 4.34 37.35 3.04 36.77"/><polygon class="cls-5" points="7.58 37.05 7.58 27.75 2.59 27.75 2.68 25.27 9.02 25.57 9.02 37.17 7.87 37.62 7.58 37.05"/><polygon class="cls-5" points="5.65 27.24 5.65 37.11 4.34 37.11 4.34 27.02 5.65 27.24"/><path class="cls-6" d="M7,27.65V26H6v.68A1.07,1.07,0,0,0,7,27.65Z" transform="translate(-0.49 -1.02)"/><polygon class="cls-7" points="10.02 37.35 8.95 36.89 8.95 25 10.02 26.12 10.02 37.35"/><rect class="cls-8" x="7.05" y="36.77" width="3.47" height="1.37"/><rect class="cls-8" x="2.61" y="36.77" width="3.47" height="1.37"/><path class="cls-9" d="M8.67,9.79V4.32A3.18,3.18,0,0,0,5.35,1.37a2.91,2.91,0,0,0-3.2,2.78V9.79l1,1.93a5.3,5.3,0,0,0,.85.65,3.08,3.08,0,0,0,1.25,0A12.48,12.48,0,0,0,8.67,9.79Z" transform="translate(-0.49 -1.02)"/><path class="cls-9" d="M7.19,12.43l.89-1.73.94-1V4.13A3.78,3.78,0,0,0,4.93,1.38C1.55,1.59,7.19,12.43,7.19,12.43Z" transform="translate(-0.49 -1.02)"/><path class="cls-10" d="M3.25,16.79v10A1.42,1.42,0,0,1,1.92,28C.62,27.8.53,26.89.53,26.89V16.81s0-3.21,6.21-3.1c5.69-.16,6.25,3.1,6.25,3.1V26.89s-.6,1.27-1.57,1.13C10.32,28.18,10,26.7,10,26.7h-7Z" transform="translate(-0.49 -1.02)"/><path class="cls-11" d="M6.73,13.71S12,13.33,13,16.81V26.89s-.48,1.27-1.57,1.13c-1.24,0-1.33-.7-1.45-1.32H6.76Z" transform="translate(-0.49 -1.02)"/><circle class="cls-12" cx="3.62" cy="16.67" r="0.29"/><circle class="cls-12" cx="4.92" cy="16.67" r="0.29"/><circle class="cls-12" cx="6.25" cy="16.67" r="0.29"/><circle class="cls-12" cx="7.61" cy="16.67" r="0.29"/><circle class="cls-12" cx="8.97" cy="16.67" r="0.29"/><circle class="cls-12" cx="3.62" cy="21.96" r="0.29"/><circle class="cls-12" cx="4.93" cy="21.96" r="0.29"/><circle class="cls-12" cx="6.26" cy="21.96" r="0.29"/><circle class="cls-12" cx="7.61" cy="21.96" r="0.29"/><circle class="cls-12" cx="8.97" cy="21.96" r="0.29"/><path class="cls-12" d="M8.08,13.72a4.76,4.76,0,0,1,1,.18,19.52,19.52,0,0,1,0,2.66l-2.4-1.31-2.4,1.21v-2.6a3.67,3.67,0,0,1,1-.14c.28.06,1.35-.81,1.35-.81Z" transform="translate(-0.49 -1.02)"/><path class="cls-9" d="M8.08,10.7v3.1s-.44,1.09-.81,1.13a6.5,6.5,0,0,1-.93,0s-.87-.36-.94-.6,0-3,0-3Z" transform="translate(-0.49 -1.02)"/><circle cx="4.97" cy="6.13" r="0.32"/><circle cx="2.4" cy="6.13" r="0.32"/><path class="cls-13" d="M2.19,4.74S2.1,1,5.6,1,9,3.37,9,3.37V10S5.84,12.35,5.6,12.72a6.59,6.59,0,0,1-1.84,0,8.85,8.85,0,0,1-.67-1c-.15-.33-.76-1.51-.91-1.78A1.49,1.49,0,0,1,2.7,8.54a26.27,26.27,0,0,1,3.05,0s.73.33.82.73c.18-.27,1.15-.48,1.15-.48l0-4.05Z" transform="translate(-0.49 -1.02)"/><path class="cls-9" d="M9,6.57s1.08.14,1.08,1S9,8.58,9,8.58Z" transform="translate(-0.49 -1.02)"/><path class="cls-9" d="M8.08,9.81" transform="translate(-0.49 -1.02)"/><path class="cls-14" d="M5.6,9.63H3.11s.14.84.63,1.07a1.75,1.75,0,0,0,1.15,0S5.45,10.54,5.6,9.63Z" transform="translate(-0.49 -1.02)"/><path class="cls-11" d="M13,28.5" transform="translate(-0.49 -1.02)"/><path class="cls-10" d="M10,15.15V28l1.47-1V17.08S11.07,15.29,10,15.15Z" transform="translate(-0.49 -1.02)"/><circle class="cls-15" cx="10.94" cy="27.38" r="1.56"/><path class="cls-11" d="M3.45,15.52v12.4L2,26.92V17.39S2.36,15.66,3.45,15.52Z" transform="translate(-0.49 -1.02)"/><circle class="cls-16" cx="1.58" cy="27.38" r="1.56"/><polygon class="cls-15" points="9.46 25.68 12.49 25.68 12.49 27.38 9.49 26.79 9.46 25.68"/><polygon class="cls-16" points="2.95 25.68 0.02 25.68 0.02 27.38 2.95 26.64 2.95 25.68"/><polyline class="cls-17" points="12.49 24.46 10.96 24.46 10.96 25.68 12.49 25.68 12.49 24.46"/><polyline class="cls-18" points="10.96 24.46 9.49 24.46 9.49 25.68 10.96 25.68 10.96 24.46"/><polyline class="cls-17" points="9.49 24.46 6.26 24.46 6.26 25.68 9.49 25.68 9.49 24.46"/><polyline class="cls-18" points="6.26 24.46 2.95 24.46 2.95 25.68 6.26 25.68 6.26 24.46"/><polyline class="cls-17" points="2.95 24.46 1.48 24.46 1.48 25.68 2.95 25.68 2.95 24.46"/><polyline class="cls-18" points="1.48 24.46 0.03 24.46 0.03 25.68 1.48 25.68 1.48 24.46"/></svg>