<svg id="_3" data-name=" 3" xmlns="http://www.w3.org/2000/svg" viewBox="0 0 13.02 41.62"><defs><style>.cls-1{fill:#20162c;}.cls-2{fill:#412b58;}.cls-3{fill:#76628b;}.cls-4{fill:#b22f62;}.cls-5{fill:#8c2072;}.cls-6{fill:#f79350;}.cls-7{fill:#8c1e6d;}.cls-8{fill:#bb2b5e;}.cls-9{fill:#b6c3da;}.cls-10{fill:#276ac9;}.cls-11{fill:#dae4fe;}.cls-12{fill:#6d1c46;}.cls-13{fill:#8b2173;}.cls-14{fill:#ffa96c;}.cls-15{fill:#d3e6ff;}.cls-16{fill:#b6cbd6;}.cls-17{fill:#f5a774;}.cls-18{fill:#fff;}.cls-19{fill:#70293d;}</style></defs><title>customer5</title><polygon class="cls-1" points="10.57 39.54 10.57 37.77 8.17 37.77 8.17 38.92 10.13 40 10.57 40 10.57 39.54"/><polygon class="cls-1" points="6.3 39.88 6.3 38.11 3.9 38.11 3.9 39.26 5.87 40.34 6.3 40.34 6.3 39.88"/><path class="cls-1" d="M11.19,40.44v1.83h-10v-.92L5,40.2h5.78S11.19,40.14,11.19,40.44Z" transform="translate(-0.25 -0.65)"/><path class="cls-2" d="M10.61,41.6H9L7.5,40.19s.46-.81.75-.92h1s1.11.43,1.31,1.17Z" transform="translate(-0.25 -0.65)"/><path class="cls-3" d="M9.56,41.6s.09-1.23-.65-1.4H6.67s-.62.28-.56,1.41Z" transform="translate(-0.25 -0.65)"/><path class="cls-2" d="M3.32,40.2s.46-.94.86-1a1.43,1.43,0,0,1,1.09,1c0,.35,0,1.62,0,1.62H3.44Z" transform="translate(-0.25 -0.65)"/><path class="cls-3" d="M4.41,41.81H1.17v-.94s.1-.64.62-.69,1.91,0,1.91,0,.71.23.71.64Z" transform="translate(-0.25 -0.65)"/><rect class="cls-4" x="3.9" y="27.03" width="2.4" height="11.38"/><rect class="cls-5" x="8.17" y="27.03" width="2.4" height="11.38"/><polygon class="cls-6" points="8.22 8.74 8.35 9.83 8.35 12.55 8.55 12.64 8.1 14.59 5.96 14.02 5.6 13.1 5.87 12.57 5.93 12.56 5.93 11.59 6.86 9.6 8.22 8.74"/><path class="cls-7" d="M7.32,13.1s5-.43,5.95,3.53V28.1s-.46,1.44-1.5,1.29c-1.18,0-1.27-.8-1.38-1.5h-3Z" transform="translate(-0.25 -0.65)"/><path class="cls-8" d="M7.62,13.1s-5-.43-5.95,3.53V28.1s.46,1.44,1.5,1.29c1.18,0,1.27-.8,1.38-1.5h3Z" transform="translate(-0.25 -0.65)"/><polygon class="cls-9" points="9.17 14.59 7.35 19.31 5.57 14.59 7.42 13.95 9.17 14.59"/><polygon class="cls-10" points="8.14 14.18 7.28 13.85 6.57 14.38 6.57 17.25 7.36 19.29 8.14 17.27 8.14 14.18"/><path class="cls-11" d="M8.88,13.13a4.28,4.28,0,0,1,1,.18,21.11,21.11,0,0,1,0,2.7L7.59,14.69,5.31,15.91V13.27a3.29,3.29,0,0,1,1-.14c.27.06,1.29-.82,1.29-.82Z" transform="translate(-0.25 -0.65)"/><path class="cls-12" d="M11.48,22.5H9.3a1.73,1.73,0,0,0,1.59,1.18C12.11,23.69,11.48,22.5,11.48,22.5Z" transform="translate(-0.25 -0.65)"/><path class="cls-13" d="M3.69,22.5H5.86a1.73,1.73,0,0,1-1.59,1.18C3.06,23.69,3.69,22.5,3.69,22.5Z" transform="translate(-0.25 -0.65)"/><path class="cls-7" d="M4.15,14.6V27.3l-1.4-1V16.52S3.11,14.75,4.15,14.6Z" transform="translate(-0.25 -0.65)"/><path class="cls-8" d="M10.82,14.6V27.3l1.4-1V16.52S11.85,14.75,10.82,14.6Z" transform="translate(-0.25 -0.65)"/><ellipse class="cls-14" cx="2.89" cy="27.35" rx="1.48" ry="1.58"/><ellipse class="cls-14" cx="11.54" cy="27.35" rx="1.48" ry="1.58"/><polyline class="cls-14" points="1.42 25.76 1.42 27.45 3.9 27.34 3.9 25.76 1.42 25.76"/><polyline class="cls-14" points="13.02 25.73 13.02 27.45 10.57 26.85 10.57 25.73 13.02 25.73"/><rect class="cls-15" x="10.57" y="25.43" width="1.4" height="0.59"/><rect class="cls-16" x="11.97" y="25.43" width="1.05" height="0.59"/><rect class="cls-16" x="2.5" y="25.43" width="1.4" height="0.59"/><rect class="cls-15" x="1.42" y="25.43" width="1.08" height="0.59"/><path class="cls-17" d="M9.39,8.34s1.24,0,1.24-1-1.24-1-1.24-1L8.9,4.26H3.58V9.6S4.27,12,5,12.27H6.4a16.52,16.52,0,0,0,3-2.67" transform="translate(-0.25 -0.65)"/><polygon class="cls-17" points="9.38 3.68 7.8 2.19 6.76 3.15 7.6 4.42 9.55 4.2 9.38 3.68"/><path class="cls-18" d="M6.47,9.21H4.09s.13.85.6,1.08a1.56,1.56,0,0,0,1.09,0S6.32,10.13,6.47,9.21Z" transform="translate(-0.25 -0.65)"/><ellipse cx="6.26" cy="6.4" rx="0.31" ry="0.33"/><ellipse cx="3.77" cy="6.4" rx="0.31" ry="0.33"/><path class="cls-19" d="M10.07,6.53a3.17,3.17,0,0,0,.56-2.73C10.22,2.16,8,.65,8,.65H2.13v1A2.62,2.62,0,0,0,.25,4.33H2.13V6.17H3.58V4.7H7.8s1-.25,1-.9V6.73s0,.73.5.73V6.35Z" transform="translate(-0.25 -0.65)"/><path class="cls-6" d="M8.6,12.12v1.56a1.08,1.08,0,0,1-1.08.81,1.62,1.62,0,0,1-1.34-.78V12.55Z" transform="translate(-0.25 -0.65)"/><path class="cls-19" d="M4.18,8.1A1.56,1.56,0,0,0,3.6,9.23h4s-.07-1-.45-1.13Z" transform="translate(-0.25 -0.65)"/><path class="cls-19" d="M4.79,12.21h0V10.78h1v1.59H5.58A2.48,2.48,0,0,1,4.79,12.21Z" transform="translate(-0.25 -0.65)"/></svg>