<svg id="_3" data-name=" 3" xmlns="http://www.w3.org/2000/svg" viewBox="0 0 12.3 41.34"><defs><style>.cls-1{fill:#d8e4ff;}.cls-2{fill:#580f24;}.cls-3{fill:#043472;}.cls-4{fill:#007fb2;}.cls-5{fill:#ec3968;}.cls-6{fill:#05a1f3;}.cls-7{fill:#006ba6;}.cls-8{fill:#d06c2d;}.cls-9{fill:#e07c41;}.cls-10{fill:#003875;}.cls-11{fill:#cf6727;}.cls-12{fill:#df7d40;}.cls-13{fill:#ce6a26;}.cls-14{fill:#e28045;}.cls-15{fill:#fff;}.cls-16{fill:#4d2434;}.cls-17{fill:#004f9a;}.cls-18{fill:#7bc92b;}.cls-19{fill:#fb4651;}.cls-20{fill:#066da7;}.cls-21{fill:#db3835;}.cls-22{fill:#fa464d;}.cls-23{fill:#8a236b;}.cls-24{fill:#c32471;}.cls-25{fill:#fbfdeb;}.cls-26{fill:#fefff1;}.cls-27{fill:#1d4197;}.cls-28{fill:#1e67c7;}.cls-29{fill:#8d1f70;}.cls-30{fill:#c2316f;}.cls-31{fill:#96abb9;}.cls-32{fill:#c2d5ec;}.cls-33{fill:#283fa5;}</style></defs><title>customer6</title><polyline class="cls-1" points="9.66 36.15 9.66 38.52 7.3 37.75 7.3 36.15 9.66 36.15"/><polyline class="cls-1" points="5.46 36.15 5.46 38.52 3.13 37.75 3.13 36.15 5.46 36.15"/><path class="cls-2" d="M.66,41.52v.61H11V38.84s0-.26-.22-.26h-.57a1.55,1.55,0,0,0-.09.33s-.61-1.23-1-1.23H8v2.81H6.73V38.84s-.06-.25-.2-.25H6a.2.2,0,0,0-.2.2s-.58-1.08-.93-1.08H3.79v1.94l-1.31.89-1.34.19Z" transform="translate(-0.66 -0.79)"/><polyline class="cls-3" points="8.32 40.73 9.47 40.73 9.53 39.85 9.43 39.5 8.29 39.61 8.32 40.73"/><polyline class="cls-3" points="2.98 40.73 5.46 40.73 5.46 40.08 5.06 39.26 3.46 39.18 2.85 39.84 2.98 40.73"/><polygon class="cls-4" points="7.3 38.14 5.87 39.7 7.96 39.55 8.55 39.7 9.44 39.7 9.21 38.87 8.42 38.23 7.66 38.06 7.3 38.14"/><polyline class="cls-4" points="5.1 39.77 2.41 39.77 2.12 39.18 3.13 38.25 3.71 38.18 4.29 38.39 4.89 38.88 5.16 39.32 5.23 39.77"/><path class="cls-5" d="M10.27,41.52A2.25,2.25,0,0,0,8,38.69v.24s2.45-.19,2.06,2.6Z" transform="translate(-0.66 -0.79)"/><path class="cls-5" d="M6,41.52a2.15,2.15,0,0,0-2.21-2.71V39s2.34-.18,2,2.49Z" transform="translate(-0.66 -0.79)"/><path class="cls-6" d="M.66,41.52v-1s.19-.47.51-.59h1.6s1.11,0,1.34.52v1Z" transform="translate(-0.66 -0.79)"/><path class="cls-6" d="M5.76,41.52v-1s.19-.47.51-.59h1.6s1.11,0,1.34.52v1Z" transform="translate(-0.66 -0.79)"/><polyline class="cls-7" points="3.13 26.48 3.13 31.97 5.46 31.97 5.46 26.48"/><polyline class="cls-8" points="9.66 31.97 7.3 31.97 7.3 36.15 9.66 36.15 9.66 31.97"/><polyline class="cls-9" points="5.46 31.97 3.13 31.97 3.13 36.15 5.46 36.15 5.46 31.97"/><polygon class="cls-10" points="9.66 31.97 7.3 31.97 7.3 27.41 2.23 27.41 2.23 24.66 9.66 24.66 9.66 31.97"/><path class="cls-11" d="M10.27,14.43s2.53.86,2.66,2.78V27.84l-2.66-1.44v-12" transform="translate(-0.66 -0.79)"/><path class="cls-12" d="M3.79,14.43s-2.53.86-2.66,2.78V27.84l2.66-1.44v-12" transform="translate(-0.66 -0.79)"/><path class="cls-11" d="M3.79,15.31V27.59l-1.42-1V17.17S2.74,15.45,3.79,15.31Z" transform="translate(-0.66 -0.79)"/><path class="cls-12" d="M10.27,15.31V27.59l1.42-1V17.17S11.32,15.45,10.27,15.31Z" transform="translate(-0.66 -0.79)"/><path class="cls-13" d="M9.33,14.14a5.81,5.81,0,0,0-1-.2V10.61l-2.41,2V14a4.35,4.35,0,0,0-1.2.17C4,14.34,6.45,16.7,6.45,16.7l3-1.76Z" transform="translate(-0.66 -0.79)"/><path class="cls-14" d="M9,9.2s1.25,0,1.25-.95S9,7.27,9,7.27l-.5-2H3.12v5.16s.7,2.34,1.43,2.58H6a16.53,16.53,0,0,0,3-2.58" transform="translate(-0.66 -0.79)"/><path class="cls-15" d="M6.07,10H3.66s.13.82.61,1a1.66,1.66,0,0,0,1.11,0S5.92,10.93,6.07,10Z" transform="translate(-0.66 -0.79)"/><ellipse cx="5.43" cy="7.17" rx="0.31" ry="0.32"/><ellipse cx="2.9" cy="7.17" rx="0.31" ry="0.32"/><path class="cls-16" d="M9,7.27a2.46,2.46,0,0,1,.58.13c.07.06.86-1.54.07-2.27H.87s.23,1.44,1,1.44h.29v.77h1V6.76s1.39-.08,1.71-.95H7.27S8.4,5.65,8.4,5.33V7.83s.14.61.54.61Z" transform="translate(-0.66 -0.79)"/><polygon class="cls-16" points="5.51 3.51 2 3.51 2.9 1.48 4.93 1.55 5.51 3.51"/><path class="cls-17" d="M9.66,5.13h2.49a2.58,2.58,0,0,0-1.52-1.28H9.33Z" transform="translate(-0.66 -0.79)"/><path class="cls-18" d="M9.66,5.13S9.91,1.7,7,.79h-2s-2.9.28-3,4.34h1s-.21-1.82.9-2h1a1.18,1.18,0,0,1,.93,1H5.29v1Z" transform="translate(-0.66 -0.79)"/><path class="cls-19" d="M5.87,4.1a8.39,8.39,0,0,1,.11,1H5.29v-1Z" transform="translate(-0.66 -0.79)"/><path class="cls-20" d="M5.29,4.1H3.11a3.47,3.47,0,0,0-.05,1H5.29Z" transform="translate(-0.66 -0.79)"/><path class="cls-21" d="M9,14.06a9.94,9.94,0,0,1,1.29.37V25.08H7V15.83S9,15.91,9,14.06Z" transform="translate(-0.66 -0.79)"/><path class="cls-22" d="M5.08,14.06a9.94,9.94,0,0,0-1.29.37V25.08H7V15.83S5.08,15.91,5.08,14.06Z" transform="translate(-0.66 -0.79)"/><path class="cls-23" d="M9,14.06l.21,0S9.31,16,7,16v-.19S9,15.88,9,14.06Z" transform="translate(-0.66 -0.79)"/><path class="cls-24" d="M5.08,14.06l-.21,0S4.74,16,7,16v-.19S5.08,15.88,5.08,14.06Z" transform="translate(-0.66 -0.79)"/><path class="cls-25" d="M7.07,17.21a2.24,2.24,0,0,1,0,4.48Z" transform="translate(-0.66 -0.79)"/><path class="cls-26" d="M7.07,17.21a2.24,2.24,0,0,0,0,4.48Z" transform="translate(-0.66 -0.79)"/><polygon class="cls-27" points="6.43 17.02 6.43 19.42 7.29 19.95 7.19 18.92 8.05 17.97 6.97 17.97 6.43 17.02"/><polygon class="cls-28" points="6.43 17.02 6.43 19.42 5.58 19.95 5.68 18.92 4.82 17.97 5.9 17.97 6.43 17.02"/><ellipse class="cls-12" cx="1.94" cy="26.75" rx="1.5" ry="1.53"/><ellipse class="cls-11" cx="10.8" cy="26.75" rx="1.5" ry="1.53"/><rect class="cls-29" x="6.37" y="24.29" width="3.24" height="0.59"/><rect class="cls-30" x="3.13" y="24.29" width="3.24" height="0.59"/><path class="cls-31" d="M2.1,23.11s.28.56.44.62H3.79v.86H2.61s-.25.26-.25.42H2.1" transform="translate(-0.66 -0.79)"/><rect class="cls-32" x="0.44" y="22.32" width="1" height="1.9"/><rect class="cls-33" x="0.44" y="22.79" width="0.49" height="1.22"/><path class="cls-16" d="M3.77,8.95A1.5,1.5,0,0,0,3.19,10H7.24s-.07-1-.45-1.09Z" transform="translate(-0.66 -0.79)"/></svg>