<svg id="Layer_1" data-name="Layer 1" xmlns="http://www.w3.org/2000/svg" xmlns:xlink="http://www.w3.org/1999/xlink" viewBox="0 0 741.64 883.72"><defs><style>.cls-1{fill:none;}.cls-2{fill:#fce0c4;}.cls-3{fill:#d8b936;}.cls-4{fill:#bba194;}.cls-5{fill:#f1c40f;}.cls-6{fill:#373f3c;opacity:0.9;isolation:isolate;}.cls-7{fill:#9e8270;}.cls-8{fill:#faf7d3;}.cls-9{fill:#ff464f;opacity:0.8;}.cls-10{clip-path:url(#clip-path);}.cls-11{fill:#d72f30;opacity:0.6;}.cls-12{fill:#575754;}</style><clipPath id="clip-path" transform="translate(-154.63 -77.05)"><polyline class="cls-1" points="459 524.68 459 950.26 15.82 950.26 15.82 524.68"/></clipPath></defs><title>barberrr2</title><g id="Calque_2" data-name="Calque 2"><path class="cls-2" d="M280.67,343.15s-36.18-5.17-21.94,37.44c0,0,3.91,19.42,3.91,25.85s3.91,25.85,3.91,25.85,2.52,11.6,7.69,9.08,68.46,102.12,72.37,103.38S419,587.36,419,587.36v23.2h18s20.68-14.25,43.87,0l18,1.26,1.26-27.11L623,467.08,643.64,440s5.17,1.26,9.08-5.17,9.08-15.51,6.43-23.2,5.17-41.35,5.17-41.35,11.6-29.75-21.94-28.37h-9l-2.52-63.29-5.17-41.35L477.1,138.9,328.45,180.26l-43.87,50.43,3.91,98.21Z" transform="translate(-154.63 -77.05)"/></g><g id="Calque_3" data-name="Calque 3"><path class="cls-3" d="M295.47,354.66l.71,44.23,3.91,24.58s7.69,19.42,18,23.2,20.68,14.25,45.26,14.25c0,0,41.35-7.69,49-7.69h7.69s9.08,3.91,16.77,1.26c0,0,21.94,11.6,46.52,1.26,0,0,7.69,1.26,16.77-3.91,0,0,24.58,3.91,32.28,9.08,0,0,46.52,3.91,68.46-11.6,0,0,18-16.77,21.94-27.11,0,0,3.91-16.77,5.17-23.2s0-29.75,0-29.75l5.17-23.2,7.69-10.34L646,483s9.08,47.78-23.2,73.63c0,0-32.28,34.92-81.45,28.37h-116s-82.71,5.17-95.57-7.69c0,0-43.87-18-53-59.38,0,0-2.52-34.92,1.26-60.77l5.66-119.45Z" transform="translate(-154.63 -77.05)"/></g><g id="Calque_4" data-name="Calque 4"><path class="cls-2" d="M412.55,492.93S432,516.12,481,508.43c0,0,18-3.91,27.11-11.6,0,0,9.08-11.6-11.6-6.43,0,0-43.87,14.25-69.72,0C426.67,490.4,413.81,484,412.55,492.93Z" transform="translate(-154.63 -77.05)"/></g><g id="Calque_5" data-name="Calque 5"><path class="cls-4" d="M417.72,307s-64.55-7.69-97-3.91c0,0-2.52-11.6,7.69-12.86,0,0,59.38-21.94,91.78-2.52C420.24,287.55,434.48,284.9,417.72,307Z" transform="translate(-154.63 -77.05)"/><path class="cls-4" d="M497.77,286.29S496.51,307,505.46,307c0,0,42.61-7.69,54.21-6.43S601,301.79,601,301.79s12.86-7.69-21.94-15.51C579.22,286.29,563.71,269.39,497.77,286.29Z" transform="translate(-154.63 -77.05)"/></g><g id="Calque_6" data-name="Calque 6"><path class="cls-5" d="M284.2,307.59l8.07-.76-.76-23.45.76-11,2.9-24.08s-.76-59.26,45.39-25.59c0,0,24.08-62.16,86.36-26.35,0,0,80.44,57.11,87.75,60.77,0,0,78.29,47.53,115.61,16.77l.76,32.91,8.83,1.51-2.14-39.46S681.59,241,660.41,140.8c0,0-8.83-30.76-21.18-38.07,0,0-9.46,37.32-27.11,32.91,0,0-17.52,3.66-40.22-16.77,0,0-66.57-43.87-130.24-41.73,0,0-75.39,1.51-101,34.42,0,0-13.87,20.42-11,46.14,0,0-32.15-24.08-51.94,9.46,0,0-16.14,22.69-8.83,71.74,0,0,5.17,33.66,16.14,48.29Z" transform="translate(-154.63 -77.05)"/></g><g id="Calque_7" data-name="Calque 7"><path class="cls-1" d="M403.72,315.54c-25.34-8.32-75.77,0-75.77,0-8.7.38-19,11.85-19,11.85-5.93,5.17-2.77,31.77-2.77,31.77.76,15.51,12.73,30.13,12.73,30.13s13.49,11.47,25,12.73c0,0,13.87,2,17,2,0,0,30.51-.38,33.79-1.13,0,0,18.28-2.77,28.62-15.13,0,0,9.83-13.49,11.09-24.58.38-3.53,1.64-11.09,1.64-11.09C442.3,319.07,403.72,315.54,403.72,315.54Z" transform="translate(-154.63 -77.05)"/><path class="cls-1" d="M517.57,315.79c25.34-8.32,75.77,0,75.77,0,8.7.38,19,11.85,19,11.85,5.93,5.17,2.77,31.77,2.77,31.77-.76,15.51-12.73,30.13-12.73,30.13s-13.49,11.47-25,12.73c0,0-13.87,2-17,2,0,0-30.51-.38-33.79-1.13,0,0-18.28-2.77-28.62-15.13,0,0-9.83-13.49-11.09-24.58-.38-3.53-1.64-11.09-1.64-11.09C479.11,319.45,517.57,315.79,517.57,315.79Z" transform="translate(-154.63 -77.05)"/><path class="cls-6" d="M639.86,308.35c-10.62-5.62-76.58-6.53-76.58-6.53-37.86-1.1-95.22,14.26-95.22,14.26l18.87,40.18c-6.25-35.93,31.86-39.77,31.86-39.77,25.12-9.05,75.1,0,75.1,0,8.62.41,18.87,12.89,18.87,12.89,5.87,5.62,2.75,34.56,2.75,34.56-.84,16.18-11.68,31.59-12.56,32.82l-.06,0s-13.37,12.62-24.74,13.85c0,0-13.75,2.19-16.87,2.19,0,0-30.37-.41-33.49-1.23,0,0-18.12-3-28.37-16.45,0,0-9.75-14.67-11-26.74-.5-3.84-1.62-12.07-1.62-12.07l-18.87-40.18-5.37.75v-.2l-5.87-.82L437.82,356s-1.12,8.23-1.62,12.07c-1.25,12.07-11,26.74-11,26.74-10.25,13.44-28.37,16.45-28.37,16.45-3.12.82-33.49,1.23-33.49,1.23-3.12,0-16.87-2.19-16.87-2.19-11.37-1.23-24.74-13.85-24.74-13.85l-.06,0c-.84-1.28-11.72-16.6-12.56-32.82,0,0-3.12-28.93,2.75-34.56,0,0,10.25-12.48,18.87-12.89,0,0,50-9.05,75.1,0,0,0,38.11,3.84,31.86,39.77l18.87-40.18s-57.36-15.36-95.22-14.26c0,0-68,1.23-78.6,6.86,0,0-.5,27.15,1.62,31.13,0,0,9,12.07,10.62,14.67,0,0,8.25,19.88,9.5,25.5,0,0,8.62,18.51,11.75,21.12l.08-.06c13,12.41,26.29,15.42,26.29,15.42,13.75,5.62,45.24,3.84,45.24,3.84,13,.82,33.86-10.42,33.86-10.42,15.75-8.23,23.62-35.79,23.62-35.79,6-22.37,13.67-27.45,16.57-28.6,1.78.41,10.7,3.68,17.42,28.87,0,0,7.87,27.56,23.62,35.79,0,0,20.87,11.24,33.86,10.42,0,0,31.49,1.78,45.24-3.84,0,0,13.32-3,26.29-15.42l.08.06c3.12-2.61,11.75-21.12,11.75-21.12,1.25-5.62,9.5-25.5,9.5-25.5,1.62-2.61,10.62-14.67,10.62-14.67C642.38,335.82,639.86,308.35,639.86,308.35Z" transform="translate(-154.63 -77.05)"/><path class="cls-7" d="M368.67,350.46A15.51,15.51,0,1,0,384.18,366,15.66,15.66,0,0,0,368.67,350.46Zm3.91,15.89a5.82,5.82,0,1,1,5.3-5.8C377.75,363.7,375.48,366.35,372.58,366.35Z" transform="translate(-154.63 -77.05)"/><ellipse class="cls-8" cx="217.95" cy="283.49" rx="5.3" ry="5.8"/><path class="cls-7" d="M554,351a15.51,15.51,0,1,0,15.51,15.51A15.5,15.5,0,0,0,554,351Zm4,15.76a5.82,5.82,0,1,1,5.3-5.8C563.21,364.08,560.94,366.72,558,366.72Z" transform="translate(-154.63 -77.05)"/><ellipse class="cls-8" cx="403.4" cy="283.87" rx="5.3" ry="5.8"/></g><g id="Calque_8" data-name="Calque 8"><path class="cls-2" d="M419,610.55s17.4,36.69,40.22,41.73c0,0,30.26-4.54,39.84-40.47C499,611.82,447.34,584.08,419,610.55Z" transform="translate(-154.63 -77.05)"/></g><g id="Calque_9" data-name="Calque 9"><path class="cls-9" d="M419,610.55s19.92,44.25,40.22,41.73A58.77,58.77,0,0,0,499,611.82l89.77,1s26.73,7.56,38.07,26.73l59.76,62.28,24.08,22.82s-34.29,33-62.28,28S637,748.86,637,748.86l-5,130.87v50.81L295.17,928l-1.26-110.57-29.25,6.3s-83.84,42-106.79-11.47c0,0-20.3-30.51,40.72-80.06l108-100.36s17.78-20.3,39.34-17.78Z" transform="translate(-154.63 -77.05)"/><path class="cls-9" d="M710.72,724.65,838.43,852.74s-28,48.54-45.89,45.64-155.63-148-155.63-148S699,733,710.72,724.65Z" transform="translate(-154.63 -77.05)"/><g class="cls-10"><path class="cls-11" d="M419,610.55s19.92,44.25,40.22,41.73A58.77,58.77,0,0,0,499,611.82l89.77,1s26.73,7.56,38.07,26.73l59.76,62.28,24.08,22.82s-34.29,33-62.28,28S637,748.86,637,748.86l-5,130.87v50.81L295.17,928l-1.26-110.57-29.25,6.3s-83.84,42-106.79-11.47c0,0-20.3-30.51,40.72-80.06l108-100.36s17.78-20.3,39.34-17.78Z" transform="translate(-154.63 -77.05)"/></g><path class="cls-2" d="M285.08,733.6S248.27,751.38,261,779.37c0,0,7.56,38.07,20.3,38.07,0,0,15.26,2.52,11.47-15.26,0,0-7.56-12.73-5-16.52,0,0,7.56-9,16.52,28,0,0,14,16.52,19-1.26,0,0-1.26-12.73-7.56-30.51,0,0,3.78-12.73,9,5,0,0,7.56,33,20.3,26.73,0,0,15.26,0,1.26-33,0,0-6.3-21.56,2.52-11.47,0,0,28,69.85,35.55,64.8,0,0,16.52,2.52-3.78-43.24l-20.3-53.33s-10.21-19-33-15.26C327.07,722.13,297.82,727.3,285.08,733.6Z" transform="translate(-154.63 -77.05)"/></g><g id="Calque_11" data-name="Calque 11"><path class="cls-12" d="M347.49,780.63s-21.94,10.21-17.78,19l20.55-10.21Z" transform="translate(-154.63 -77.05)"/><polygon class="cls-12" points="217.57 691.86 245.81 689.08 222.86 705.09 217.57 691.86"/><polygon class="cls-12" points="226.39 715.3 244.42 681.14 222.61 704.84 226.39 715.3"/><path class="cls-12" d="M445.83,719S395,762.22,390,773.57C389.85,773.57,396.28,716.46,445.83,719Z" transform="translate(-154.63 -77.05)"/><path class="cls-12" d="M453.39,721.88s-59.51,54.46-78,51.31C375.48,773.19,441.29,777.1,453.39,721.88Z" transform="translate(-154.63 -77.05)"/></g><g id="Calque_10" data-name="Calque 10"><path class="cls-2" d="M787.5,893.34l-2.52,49s18.28,16.77,16.77-39.59c0,0,24.33,54.84,39.59,57.87S817,899.77,817,899.77s38.07,60.89,50.3,48.79-35-57.87-35-57.87,50.3,48.79,57.87,33.54-54.84-45.77-54.84-45.77,57.87,25.85,60.89,10.72-62.79-41.35-62.79-41.35" transform="translate(-154.63 -77.05)"/></g></svg>