<svg xmlns="http://www.w3.org/2000/svg" xmlns:xlink="http://www.w3.org/1999/xlink" viewBox="0 0 1439.06 781.08"><defs><style>.a{fill:none;}.b{opacity:0.8;}.c{fill:#8bdbf7;}.d{fill:#f4f4f4;}.e{opacity:0.9;}.f{fill:#fff;opacity:0.5;}.g{opacity:0.7;}.h{fill:#fefdfd;}.i{fill:#fef8fa;}.j{fill:#fefefe;}.k{fill:#edf2f4;}.l{clip-path:url(#a);}.m{fill:#f9efc4;}.n{fill:#ffe653;}.o{fill:#ffb461;}.p{fill:#ff9567;}</style><clipPath id="a" transform="translate(-1.46 1.7)"><polyline class="a" points="1.56 779.38 1.56 1.3 1437.17 1.3 1438.53 779.38"/></clipPath></defs><title>ete-background</title><g class="b"><polyline class="c" points="0.1 781.08 0.1 3 1435.7 3 1437.06 781.08"/></g><path class="d" d="M1297.46,166.33c-3-10.64-12.27-18.38-23.2-18.38a23.14,23.14,0,0,0-15,5.53c-3.87-15.68-17.2-27.24-33.06-27.24-15.26,0-28.19,10.72-32.59,25.52-.53,0-1.06-.08-1.6-.08-9.2,0-16.78,7.38-17.88,16.91-16.48.79-22.73,18.74-16.93,33.51H1321S1326,165.89,1297.46,166.33Z" transform="translate(-1.46 1.7)"/><g class="e"><path class="d" d="M452.55,261.88c2.78-6.59,11.25-11.39,21.27-11.39a27.9,27.9,0,0,1,13.7,3.43c3.55-9.71,15.77-16.87,30.3-16.87,14,0,25.84,6.64,29.87,15.81.49,0,1,0,1.47,0,8.43,0,15.38,4.57,16.4,10.48,15.11.49,20.84,11.6,15.52,20.75H431S426.38,261.6,452.55,261.88Z" transform="translate(-1.46 1.7)"/><path class="f" d="M565.56,263.28c-1-5.9-8-10.48-16.4-10.48-.49,0-1,0-1.47,0-4-9.17-15.88-15.81-29.87-15.81a42.54,42.54,0,0,0-9,1v46h72.25C586.39,274.88,580.66,263.77,565.56,263.28Z" transform="translate(-1.46 1.7)"/></g><path class="d" d="M850.41,69.76c-1.86-6.54-7.54-11.3-14.25-11.3a14.22,14.22,0,0,0-9.19,3.4c-2.38-9.64-10.57-16.74-20.31-16.74-9.38,0-17.32,6.59-20,15.68-.32,0-.65,0-1,0-5.65,0-10.31,4.54-11,10.39-10.12.48-14,11.51-10.4,20.59H864.86S867.95,69.5,850.41,69.76Z" transform="translate(-1.46 1.7)"/><path class="f" d="M774.66,71.16c.68-5.86,5.33-10.39,11-10.39.33,0,.66,0,1,0,2.7-9.09,10.64-15.68,20-15.68a19.72,19.72,0,0,1,6,.94V91.74H764.26C760.7,82.67,764.54,71.64,774.66,71.16Z" transform="translate(-1.46 1.7)"/><g class="b"><path class="d" d="M108.8,236.19c2.72-9.55,11-16.49,20.8-16.49a20.75,20.75,0,0,1,13.41,5c3.47-14.07,15.42-24.43,29.65-24.43,13.69,0,25.28,9.62,29.22,22.89.48,0,1-.07,1.44-.07,8.25,0,15.05,6.62,16,15.17,14.78.71,20.38,16.8,15.18,30.05H87.7S83.2,235.8,108.8,236.19Z" transform="translate(-1.46 1.7)"/></g><path class="f" d="M219.35,238.22c-1-8.55-7.79-15.17-16-15.17-.48,0-1,0-1.44.07-3.94-13.27-15.54-22.89-29.22-22.89a28.79,28.79,0,0,0-8.81,1.38v66.66h70.69C239.74,255,234.13,238.93,219.35,238.22Z" transform="translate(-1.46 1.7)"/><path class="d" d="M574.32,118.8c2.44-7.18,9.88-12.41,18.68-12.41a20.87,20.87,0,0,1,12,3.73c3.12-10.59,13.85-18.39,26.61-18.39,12.29,0,22.7,7.24,26.24,17.23.43,0,.85-.05,1.29-.05,7.41,0,13.51,5,14.4,11.42,13.27.53,18.3,12.64,13.63,22.61H555.38S551.34,118.51,574.32,118.8Z" transform="translate(-1.46 1.7)"/><g class="g"><path class="d" d="M1067.16,231.86c-2.69-9.44-10.88-16.3-20.57-16.3a20.53,20.53,0,0,0-13.26,4.91c-3.43-13.91-15.25-24.16-29.32-24.16-13.54,0-25,9.51-28.9,22.64-.47,0-.94-.07-1.42-.07-8.16,0-14.88,6.55-15.86,15-14.61.7-20.16,16.62-15,29.72H1088S1092.47,231.47,1067.16,231.86Z" transform="translate(-1.46 1.7)"/><path class="f" d="M957.83,233.87c1-8.45,7.7-15,15.86-15,.48,0,1,0,1.42.07,3.9-13.13,15.36-22.64,28.9-22.64a28.46,28.46,0,0,1,8.71,1.36v65.92h-69.9C937.67,250.48,943.21,234.57,957.83,233.87Z" transform="translate(-1.46 1.7)"/></g><path class="h" d="M1.46,558.12c.26.08.21.24.47.38v-.24c0-1.25.08-2.5,0-3.73-.16-2.53.95-3.27,3.37-2.87a127.33,127.33,0,0,0,18.56,1.87c19.7.32,39.4-.14,59.08,1.25,9.79.69,19.36-2,29-3.44a5,5,0,0,0,2.25-1c1.2-1.35,1.1-3,.94-4.59,0-1.19.11-2.42-1-3.24-9.95-1-19.94-1.43-29.9-2.35-8.52-.79-17-1.85-25.51-2.75-11.2-1.18-22.25-.09-33.34,1.14-6.86.77-13.6,2.4-20.6,2.18-1.89-.06-2.59.18-3.14-.78" transform="translate(-1.46 1.7)"/><path class="i" d="M499.22,468.34c-14.42,1.8-28.76,4.18-43.37,4.49q-15.8.34-31.62,1.19c-13.63.72-27.25,1.49-40.89,1.88-5.65.16-11.24,1.41-16.9,1.83-7.83.58-14.38-2.12-20.28-7-2.15-1.77-4.42-3.41-6.71-5-4-2.77-8.64-3.25-13.3-3.62-6-.48-12.08-.88-18.92-1.37,4.89-1.72,9.26-1.8,13.5-2.22,9.55-1,19.14-1.72,28.73-1.91a48.36,48.36,0,0,1,20.86,3.87c6.68,3,13.89,3.94,21.17,4.09,11.5.25,23-.38,34.48-.86,7.59-.32,15.07.46,22.6.25,4.24-.11,8.46,0,12.71-.53,5.57-.68,11.11.74,16.64,1.32,7.08.74,14.14,1.73,21.28,1.7Z" transform="translate(-1.46 1.7)"/><path class="h" d="M499.22,521.92c-9,1.66-18.2,2.07-27.12,4.27a11.88,11.88,0,0,1-2.79.09c-13.57,0-27.13-.07-40.7,0-10.23.08-20.46.39-30.69.61-2,0-3.83.93-5.83.6a2.09,2.09,0,0,1-.71-.89c-.51-2.07-.7-4.11.42-6.06,4.4-.51,6.23-3,5.7-7.35a1.56,1.56,0,0,1,.79-1.27c4.57.84,9.11,1.79,13.7,2.5a60,60,0,0,0,22.81-.69c8.71-2,17.49-1.27,26.27-.75a46.16,46.16,0,0,0,9.63,0,53.24,53.24,0,0,1,20,1.14c2.81.63,5.58,1.57,8.53,1.5Z" transform="translate(-1.46 1.7)"/><path class="j" d="M282.83,485.61a2,2,0,0,1-2,.77c-11.51-.44-23,.52-34.5.77a276.84,276.84,0,0,0-27.76,2.21c-6.27.77-12.6,0-18.88-.74-8.87-1-17.34-3.79-26-5.64a49.81,49.81,0,0,0-18.51-.47c-3.56.58-7.22.44-10.82.62-8.88.46-17.74,1.21-26.63,1.51-9.92.33-19.85.7-29.76,1.21-9.49.49-18.93,1.54-28.44,1.89-8.47.31-16.94.77-25.4,1.25-5.66.32-11.28,1.23-16.89-.15-2.5-.61-4.94-1.52-7.39-2.35-.68-.23-1.4-.63-1.25-1.54.09-.55.58-.8,1.1-1,5.68-1.84,11-4.82,17.11-5.37,1.44-.13,2.87-.26,4.32-.33,12.91-.63,25.82-1.18,38.72-1.92,8.14-.47,16.28-1,24.39-1.87,10.6-1.1,21.21-1.68,31.87-2,6.31-.17,12.55-.33,18.87,0a63.35,63.35,0,0,0,25.35-3.5c9.92-3.6,18.68-1.45,27.45,3,6,3,11.68,6.64,18.33,8.36,4.79,1.24,9.69,1.33,14.46,1.41,9.84.17,19.68.6,29.52.88A122.62,122.62,0,0,1,282.83,485.61Z" transform="translate(-1.46 1.7)"/><path class="k" d="M781.39,190.82c1-5.73,5.79-10.6,10.91-12.92,6.23-2.82,13-3.39,19.56-4.93s13.62-4.27,17.53-10.12a29.5,29.5,0,0,0,2-3.5c-2.22,5.46-13.55,24.17-29.23,25.38-4.7,0-9.58,2.27-13.63,4.44-.67.36-2.74,1.29-2.38,2.41a8.25,8.25,0,0,0,1.47,1.91,32.08,32.08,0,0,0,4.86,4.17c.36.28.7.63,1,.92a57.89,57.89,0,0,1-13.9,1.42c-3.53,0-8.73-3.26-9.41-7l6.43-.1c-1,0-1.61-.92-2.4-1.4-2.11-1.25-4.92-1.1-7.28-1.4a140.16,140.16,0,0,0-18.37-.87q-2.7,0-5.4.12a36.8,36.8,0,0,1-17-3.32c-1.53-.69-3-1.45-4.53-2.24a7.94,7.94,0,0,0,2.2.32c1.93.28,3.87.52,5.81.72a84.8,84.8,0,0,0,13.61.51c4.46-.27,8.8-1.36,13.16-2.25A58.27,58.27,0,0,1,764,182c4.72-.33,11-.88,14.58,2.9A10.74,10.74,0,0,1,781.39,190.82Z" transform="translate(-1.46 1.7)"/><g class="l"><path class="m" d="M1440.53-1.7c-11.94.06-23.88.22-35.81.36-38.59.46-77.15.14-115.74.09a5.6,5.6,0,0,1-.95-.08,122.16,122.16,0,0,0,152.5,150.74Z" transform="translate(-1.46 1.7)"/></g><g class="l"><path class="n" d="M1440.53-1.7c-11.94.06-23.88.22-35.81.36-30.92.37-61.81.24-92.72.15a99.92,99.92,0,0,0,93.37,135.38,99.55,99.55,0,0,0,35.17-6.39Z" transform="translate(-1.46 1.7)"/></g><g class="l"><path class="o" d="M1440.53-1.7c-11.94.06-23.88.22-35.81.36-22.6.27-45.19.27-67.78.21a76.5,76.5,0,0,0,68.43,110.73,76.13,76.13,0,0,0,35.17-8.56Z" transform="translate(-1.46 1.7)"/></g><g class="l"><path class="p" d="M1440.53-1.69c-11.94.06-23.88.2-35.81.35q-23.52.28-47,.24a59,59,0,0,0,47.68,93.84,58.69,58.69,0,0,0,35.17-11.65Z" transform="translate(-1.46 1.7)"/></g><path class="k" d="M1219.5,89.68c.64-3.87,3.91-7.16,7.36-8.72,4.2-1.91,8.76-2.29,13.2-3.33s9.19-2.89,11.83-6.83a19.92,19.92,0,0,0,1.38-2.36c-1.5,3.69-9.15,16.32-19.73,17.13-3.17,0-6.47,1.54-9.2,3-.45.24-1.85.87-1.6,1.63a5.57,5.57,0,0,0,1,1.29A21.65,21.65,0,0,0,1227,94.3c.24.19.47.42.7.62a39.07,39.07,0,0,1-9.38,1c-2.39,0-5.89-2.2-6.35-4.71l4.34-.07c-.67,0-1.08-.62-1.62-.94-1.42-.85-3.32-.74-4.91-.94a94.62,94.62,0,0,0-12.4-.59q-1.82,0-3.64.08a24.84,24.84,0,0,1-11.47-2.24c-1-.47-2.05-1-3.06-1.51a5.37,5.37,0,0,0,1.49.22c1.3.19,2.61.35,3.92.49a57.22,57.22,0,0,0,9.19.34,64.28,64.28,0,0,0,8.89-1.52,39.37,39.37,0,0,1,5.06-.75c3.18-.22,7.41-.59,9.84,2A7.25,7.25,0,0,1,1219.5,89.68Z" transform="translate(-1.46 1.7)"/></svg>