<svg xmlns="http://www.w3.org/2000/svg" viewBox="0 0 1439.91 423.06"><defs><style>.a{fill:#7ac043;}.b{fill:#8cce52;}.c{fill:#845359;}.d{fill:#63a027;}.e,.f{fill:#fff;}.e{opacity:0.2;}.f{opacity:0.1;}.g{fill:#3cddf7;}.h{fill:#848280;}.i{fill:#9e9b98;}.j{fill:#62a528;}.k{fill:#d98696;}.l{fill:#f0b728;}.m{fill:#51891b;}.n{fill:#f9c33e;}.o{fill:#ef7e29;}.p{fill:#efabbb;}.q{fill:#f4e27e;}.r{fill:#f9dce4;}.s{fill:#75ad34;}.t{fill:#bcd231;}.u{fill:#685652;}.v{fill:#d88a4c;}.w{fill:#d17537;}.x{fill:#e58b4e;}.y{fill:#b4cb34;}.z{fill:#ed8069;}</style></defs><title>floor-printemps</title><polygon class="a" points="1439.87 422.59 739.35 423.06 739.35 301.96 1439.84 301.08 1439.87 422.59"/><ellipse class="b" cx="785.66" cy="402.83" rx="15.56" ry="2.94"/><ellipse class="b" cx="878.27" cy="351.55" rx="12.33" ry="2.33"/><ellipse class="b" cx="841.56" cy="313.9" rx="9.12" ry="1.72"/><ellipse class="b" cx="757.78" cy="312.18" rx="9.12" ry="1.72"/><ellipse class="b" cx="940.9" cy="313.19" rx="9.12" ry="1.72"/><ellipse class="b" cx="1042.83" cy="345.5" rx="12.33" ry="2.33"/><ellipse class="b" cx="1013.27" cy="396.05" rx="15.56" ry="2.94"/><ellipse class="b" cx="1131.42" cy="406.09" rx="15.56" ry="2.94"/><ellipse class="b" cx="1190.96" cy="376.18" rx="15.56" ry="2.94"/><ellipse class="b" cx="1141.57" cy="348.71" rx="12.33" ry="2.33"/><ellipse class="b" cx="1292.9" cy="345.5" rx="12.33" ry="2.33"/><ellipse class="b" cx="1278.13" cy="393.11" rx="15.56" ry="2.94"/><ellipse class="b" cx="1418.06" cy="406.09" rx="15.56" ry="2.94"/><ellipse class="b" cx="1404.73" cy="351.92" rx="12.33" ry="2.33"/><ellipse class="b" cx="1125.57" cy="317.76" rx="9.12" ry="1.72"/><ellipse class="b" cx="1243.8" cy="306.9" rx="9.12" ry="1.72"/><ellipse class="b" cx="1427.06" cy="319.48" rx="9.12" ry="1.72"/><polygon class="c" points="977.08 266.67 981.26 266.67 985.43 266.67 987.02 312.29 981.26 312.29 975.49 312.29 977.08 266.67"/><path class="d" d="M1010.13,713.88s6-8.23-4.48-10.63c0,0-.93-9.78-11.37-7.55,0,0-2.8-8.23-12.87-5.14l-.07,0-.07,0c-10.07-3.09-12.87,5.14-12.87,5.14C958,693.48,957,703.25,957,703.25c-10.44,2.4-4.48,10.63-4.48,10.63-7.83,6.34-.93,12-.93,12-7.09,9.09,3.73,13.89,3.73,13.89-.37,6.35,8.58,7,8.58,7,1.68,6.34,9.14,4.63,9.14,4.63a13.6,13.6,0,0,0,16.55,0s7.46,1.71,9.14-4.63c0,0,9-.69,8.58-7,0,0,10.81-4.8,3.73-13.89C1011.06,725.89,1018,720.23,1010.13,713.88Z" transform="translate(-0.09 -476.39)"/><path class="e" d="M1010.13,713.88s6-8.23-4.48-10.63c0,0-.93-9.78-11.37-7.55,0,0-2.8-8.23-12.87-5.14l-.07,0h0v98.17h5.77l-1.2-34.46a7.51,7.51,0,0,0,3.71-2.79s7.46,1.71,9.14-4.63c0,0,9-.69,8.58-7,0,0,10.81-4.8,3.73-13.89C1011.06,725.89,1018,720.23,1010.13,713.88Z" transform="translate(-0.09 -476.39)"/><path class="d" d="M765.87,843.43s-11.46-3.12-6.94-13.89,14.24-3.47,14.24-3.47-9.72-8-2.08-14.93,9.72,8.34,9.72,8.34-3.82-18.4,12.85-21.53,21.53,20.83,21.53,20.83,1.74-18.06,9.38-18.75,0,16.32,0,16.32,9.34-14.58,23.07-4.17-2.93,31.25-2.93,31.25Z" transform="translate(-0.09 -476.39)"/><path class="f" d="M847.62,812.18c-13.74-10.42-23.07,4.17-23.07,4.17s7.64-17,0-16.32-9.38,18.75-9.38,18.75-2.43-11.93-9.72-17.85v42.51h39.23S861.36,822.59,847.62,812.18Z" transform="translate(-0.09 -476.39)"/><path class="g" d="M1070.26,747.86h-1.7v-16a5.42,5.42,0,0,1,1.61-3.8,7.18,7.18,0,0,1,5.17-1.74,6.31,6.31,0,0,1,4.8,1.74,6,6,0,0,1,1.4,4.61l-1.68-.2a4.56,4.56,0,0,0-1-3.36,4.66,4.66,0,0,0-3.51-1.2,5.54,5.54,0,0,0-3.94,1.25,3.93,3.93,0,0,0-1.15,2.69Z" transform="translate(-0.09 -476.39)"/><path class="g" d="M1068.29,755.42h1.7v-16a5.42,5.42,0,0,0-1.61-3.8,7.19,7.19,0,0,0-5.17-1.74,6.31,6.31,0,0,0-4.8,1.74,6,6,0,0,0-1.4,4.61l1.68-.2a4.56,4.56,0,0,1,1-3.36,4.66,4.66,0,0,1,3.51-1.2,5.54,5.54,0,0,1,3.94,1.25,3.94,3.94,0,0,1,1.15,2.69Z" transform="translate(-0.09 -476.39)"/><path class="g" d="M1068.29,737.09h1.7v-16a5.43,5.43,0,0,0-1.61-3.8,7.19,7.19,0,0,0-5.17-1.74,6.31,6.31,0,0,0-4.8,1.74,6,6,0,0,0-1.4,4.61l1.68-.2a4.56,4.56,0,0,1,1-3.37,4.66,4.66,0,0,1,3.51-1.19,5.53,5.53,0,0,1,3.94,1.25,3.94,3.94,0,0,1,1.15,2.69Z" transform="translate(-0.09 -476.39)"/><rect class="h" x="1063.39" y="287.25" width="11.87" height="42.72"/><path class="i" d="M1069.41,751.28h-24c1.25,14.11,24,12.37,24,12.37s22.8,1.74,24-12.37Z" transform="translate(-0.09 -476.39)"/><path class="h" d="M1064.73,751.28s4.58-8.89,9.37,0Z" transform="translate(-0.09 -476.39)"/><path class="e" d="M1070.26,747.42V731.84a3.93,3.93,0,0,1,1.15-2.69,5.54,5.54,0,0,1,3.94-1.25,4.66,4.66,0,0,1,3.51,1.2,4.56,4.56,0,0,1,1,3.36l1.68.2a6,6,0,0,0-1.4-4.61,6.31,6.31,0,0,0-4.8-1.74,7.18,7.18,0,0,0-5.17,1.74c-.07.07-.12.14-.18.21V721.1a5.53,5.53,0,0,0-.58-2.37v87.63h5.93V763.65h-1.1c6.76-.36,18.34-2.42,19.22-12.37H1074.1C1072.77,748.82,1071.47,747.72,1070.26,747.42Z" transform="translate(-0.09 -476.39)"/><rect class="j" x="933.84" y="288.36" width="2.23" height="27.68"/><path class="k" d="M940.16,760.63s7.61-3,4.91-6.38-7.55,2.78-7.55,2.78,1.75-7.35-2.69-7.08c-4.8.28-1.93,7.8-1.93,7.8s-5.24-6.46-8.2-2.76c-1.84,2.31,2.11,4.85,4.73,5.65,0,0-8.4,1.6-6.42,5.28,2.1,3.9,8.69-1.58,8.69-1.58s-6,6.53-1.56,8.16c4.19,1.54,5-6.78,5-6.78s.5,8.28,4.85,7c5.7-1.73-1.56-8.36-1.56-8.36s8.1,4.3,8.84-.34C947.86,760.1,940.16,760.63,940.16,760.63Z" transform="translate(-0.09 -476.39)"/><path class="l" d="M930.74,761.34a4.23,4.23,0,1,0,4.3-3.85A4.07,4.07,0,0,0,930.74,761.34Z" transform="translate(-0.09 -476.39)"/><path class="j" d="M935.25,778s2.56-4.64,8.9-3.09C944.15,774.86,942.19,780.06,935.25,778Z" transform="translate(-0.09 -476.39)"/><path class="j" d="M934.84,784a7.74,7.74,0,0,1-8.35-4.2S932,777.78,934.84,784Z" transform="translate(-0.09 -476.39)"/><path class="e" d="M940.16,760.63s7.61-3,4.91-6.38-7.55,2.78-7.55,2.78,1.68-7.07-2.47-7.07v42.47h1.11V778.18c6.2,1.4,8-3.32,8-3.32-4.23-1-6.76.68-8,1.94V770.3c.71,1.64,1.88,3,3.82,2.37,5.7-1.73-1.56-8.36-1.56-8.36s8.1,4.3,8.84-.34C947.86,760.1,940.16,760.63,940.16,760.63Z" transform="translate(-0.09 -476.39)"/><rect class="m" x="1384.36" y="375.52" width="2.46" height="30.57"/><path class="n" d="M1391.33,847.36s8.41-3.3,5.43-7-8.34,3.07-8.34,3.07,1.94-8.12-3-7.82c-5.31.32-2.14,8.61-2.14,8.61s-5.79-7.14-9.06-3c-2,2.55,2.33,5.35,5.22,6.24,0,0-9.28,1.77-7.09,5.83,2.32,4.31,9.6-1.75,9.6-1.75s-6.61,7.22-1.72,9c4.63,1.7,5.51-7.49,5.51-7.49s.56,9.14,5.36,7.69c6.3-1.91-1.72-9.24-1.72-9.24s8.95,4.75,9.76-.37C1399.84,846.78,1391.33,847.36,1391.33,847.36Z" transform="translate(-0.09 -476.39)"/><path class="o" d="M1380.93,848.14a4.67,4.67,0,1,0,4.75-4.25A4.49,4.49,0,0,0,1380.93,848.14Z" transform="translate(-0.09 -476.39)"/><path class="m" d="M1385.91,866.5s2.83-5.12,9.83-3.42C1395.74,863.08,1393.58,868.83,1385.91,866.5Z" transform="translate(-0.09 -476.39)"/><path class="m" d="M1385.45,873.22a8.55,8.55,0,0,1-9.23-4.64S1382.29,866.31,1385.45,873.22Z" transform="translate(-0.09 -476.39)"/><path class="e" d="M1391.33,847.36s8.41-3.3,5.43-7-8.34,3.07-8.34,3.07,1.85-7.81-2.73-7.81v46.92h1.23V866.75c6.85,1.55,8.83-3.67,8.83-3.67-4.67-1.14-7.47.76-8.83,2.15V858c.78,1.81,2.08,3.26,4.22,2.61,6.3-1.91-1.72-9.24-1.72-9.24s8.95,4.75,9.76-.37C1399.84,846.78,1391.33,847.36,1391.33,847.36Z" transform="translate(-0.09 -476.39)"/><rect class="m" x="1060.82" y="371.67" width="2.46" height="30.57"/><path class="p" d="M1067.78,843.51s8.41-3.3,5.43-7-8.34,3.07-8.34,3.07,1.94-8.12-3-7.82c-5.31.32-2.14,8.62-2.14,8.62s-5.79-7.14-9.06-3c-2,2.55,2.33,5.35,5.22,6.24,0,0-9.28,1.77-7.09,5.83,2.32,4.31,9.59-1.75,9.59-1.75s-6.61,7.22-1.72,9c4.63,1.7,5.51-7.49,5.51-7.49s.56,9.14,5.36,7.69c6.3-1.91-1.72-9.24-1.72-9.24s8.95,4.75,9.76-.37C1076.3,842.93,1067.78,843.51,1067.78,843.51Z" transform="translate(-0.09 -476.39)"/><path class="o" d="M1057.38,844.29a4.67,4.67,0,1,0,4.75-4.25A4.49,4.49,0,0,0,1057.38,844.29Z" transform="translate(-0.09 -476.39)"/><path class="m" d="M1062.37,862.65s2.83-5.12,9.83-3.42C1072.19,859.23,1070,865,1062.37,862.65Z" transform="translate(-0.09 -476.39)"/><path class="m" d="M1061.91,869.37a8.55,8.55,0,0,1-9.23-4.64S1058.74,862.46,1061.91,869.37Z" transform="translate(-0.09 -476.39)"/><path class="e" d="M1067.78,843.51s8.41-3.3,5.43-7-8.34,3.07-8.34,3.07,1.85-7.81-2.73-7.81v46.92h1.23V862.9c6.85,1.55,8.83-3.67,8.83-3.67-4.67-1.14-7.47.76-8.83,2.15v-7.19c.78,1.81,2.08,3.26,4.21,2.61,6.3-1.91-1.72-9.24-1.72-9.24s8.95,4.75,9.76-.37C1076.3,842.93,1067.78,843.51,1067.78,843.51Z" transform="translate(-0.09 -476.39)"/><rect class="m" x="1124.5" y="331.08" width="2.22" height="27.63"/><path class="n" d="M1130.81,803.36s7.6-3,4.9-6.37-7.54,2.77-7.54,2.77,1.75-7.34-2.69-7.07c-4.79.29-1.93,7.79-1.93,7.79s-5.23-6.45-8.18-2.75c-1.84,2.31,2.11,4.84,4.72,5.64,0,0-8.39,1.6-6.41,5.27,2.1,3.89,8.67-1.58,8.67-1.58s-6,6.52-1.56,8.15c4.18,1.54,5-6.77,5-6.77s.5,8.26,4.84,6.95c5.69-1.73-1.56-8.35-1.56-8.35s8.09,4.29,8.82-.34C1138.5,802.83,1130.81,803.36,1130.81,803.36Z" transform="translate(-0.09 -476.39)"/><path class="o" d="M1121.41,804.07a4.22,4.22,0,1,0,4.3-3.84A4.06,4.06,0,0,0,1121.41,804.07Z" transform="translate(-0.09 -476.39)"/><path class="m" d="M1125.92,820.65s2.56-4.63,8.88-3.09C1134.8,817.57,1132.84,822.76,1125.92,820.65Z" transform="translate(-0.09 -476.39)"/><path class="m" d="M1125.5,826.73a7.72,7.72,0,0,1-8.34-4.19S1122.64,820.48,1125.5,826.73Z" transform="translate(-0.09 -476.39)"/><path class="e" d="M1130.81,803.36s7.6-3,4.9-6.37-7.54,2.77-7.54,2.77,1.67-7.06-2.47-7.06v42.4h1.11V820.88c6.19,1.4,8-3.31,8-3.31-4.22-1-6.75.69-8,1.94V813c.7,1.63,1.88,2.95,3.81,2.36,5.69-1.73-1.56-8.35-1.56-8.35s8.09,4.29,8.82-.34C1138.5,802.83,1130.81,803.36,1130.81,803.36Z" transform="translate(-0.09 -476.39)"/><rect class="m" x="859.27" y="321.87" width="2.2" height="27.36"/><path class="q" d="M865.52,794.19s7.52-3,4.86-6.31-7.46,2.75-7.46,2.75,1.73-7.26-2.66-7c-4.75.28-1.91,7.71-1.91,7.71s-5.18-6.39-8.1-2.73c-1.82,2.28,2.09,4.79,4.67,5.59,0,0-8.3,1.58-6.34,5.22,2.08,3.86,8.59-1.57,8.59-1.57s-5.91,6.46-1.54,8.07c4.14,1.52,4.93-6.7,4.93-6.7s.5,8.18,4.8,6.88c5.64-1.71-1.54-8.27-1.54-8.27s8,4.25,8.73-.33C873.14,793.67,865.52,794.19,865.52,794.19Z" transform="translate(-0.09 -476.39)"/><path class="l" d="M856.21,794.89a4.18,4.18,0,1,0,4.25-3.8A4,4,0,0,0,856.21,794.89Z" transform="translate(-0.09 -476.39)"/><path class="m" d="M860.67,811.32s2.53-4.58,8.79-3.06C869.46,808.26,867.53,813.4,860.67,811.32Z" transform="translate(-0.09 -476.39)"/><path class="m" d="M860.26,817.33a7.64,7.64,0,0,1-8.26-4.15S857.43,811.15,860.26,817.33Z" transform="translate(-0.09 -476.39)"/><path class="e" d="M865.52,794.19s7.52-3,4.86-6.31-7.46,2.75-7.46,2.75,1.66-7-2.45-7v42h1.1V811.54c6.12,1.38,7.9-3.28,7.9-3.28-4.18-1-6.68.68-7.9,1.92v-6.43c.7,1.62,1.86,2.92,3.77,2.34,5.64-1.71-1.54-8.27-1.54-8.27s8,4.25,8.73-.33C873.14,793.67,865.52,794.19,865.52,794.19Z" transform="translate(-0.09 -476.39)"/><rect class="m" x="1222.94" y="369.08" width="2.46" height="30.57"/><path class="r" d="M1229.91,840.92s8.41-3.3,5.43-7-8.34,3.07-8.34,3.07,1.93-8.12-3-7.82c-5.31.32-2.14,8.61-2.14,8.61s-5.79-7.14-9.06-3c-2,2.55,2.33,5.35,5.22,6.24,0,0-9.28,1.77-7.09,5.83,2.32,4.31,9.6-1.75,9.6-1.75s-6.61,7.22-1.72,9c4.63,1.7,5.51-7.49,5.51-7.49s.56,9.14,5.36,7.69C1236,852.3,1228,845,1228,845s8.95,4.75,9.76-.37C1238.42,840.34,1229.91,840.92,1229.91,840.92Z" transform="translate(-0.09 -476.39)"/><path class="o" d="M1219.5,841.7a4.67,4.67,0,1,0,4.75-4.25A4.49,4.49,0,0,0,1219.5,841.7Z" transform="translate(-0.09 -476.39)"/><path class="m" d="M1224.49,860.06s2.83-5.12,9.83-3.42C1234.32,856.64,1232.15,862.39,1224.49,860.06Z" transform="translate(-0.09 -476.39)"/><path class="m" d="M1224,866.78a8.55,8.55,0,0,1-9.23-4.64S1220.86,859.87,1224,866.78Z" transform="translate(-0.09 -476.39)"/><path class="e" d="M1229.91,840.92s8.41-3.3,5.43-7-8.34,3.07-8.34,3.07,1.85-7.81-2.73-7.81V876h1.23V860.31c6.85,1.55,8.83-3.67,8.83-3.67-4.67-1.14-7.47.76-8.83,2.15V851.6c.78,1.81,2.08,3.26,4.22,2.61C1236,852.3,1228,845,1228,845s8.95,4.75,9.76-.37C1238.42,840.34,1229.91,840.92,1229.91,840.92Z" transform="translate(-0.09 -476.39)"/><polygon class="c" points="1322.1 198.78 1330.82 198.78 1339.54 198.78 1342.87 294.06 1330.82 294.06 1318.77 294.06 1322.1 198.78"/><path class="s" d="M1333,694s-36.82-6.31-52.39-39.28-18-101,0-134,50.67-58.22,75.58-35.77,49,111.53,31.78,155.72S1345.92,691.85,1333,694Z" transform="translate(-0.09 -476.39)"/><path class="e" d="M1356.22,484.93c-7.9-7.12-16.57-9.43-25.31-8.23V770.45h12l-2.73-78.06c13.62-3.83,33.4-14.77,47.77-51.74C1405.18,596.46,1381.13,507.38,1356.22,484.93Z" transform="translate(-0.09 -476.39)"/><polygon class="c" points="1186.41 235.43 1189.31 235.81 1192.2 235.43 1197.26 309.32 1189.31 309.32 1181.35 309.32 1186.41 235.43"/><polygon class="a" points="1152.71 265.24 1147.54 265.24 1157.09 243.44 1151.72 243.44 1159.47 226.19 1154.7 226.19 1164.44 209.54 1158.88 209.54 1169.61 188.14 1165.44 188.14 1173.79 169.31 1167.82 169.31 1176.37 153.06 1170.81 153.06 1181.14 137.01 1176.77 137.01 1189.3 109.66 1201.83 137.01 1197.46 137.01 1207.8 153.06 1202.23 153.06 1210.78 169.31 1204.81 169.31 1213.17 188.14 1208.99 188.14 1219.73 209.54 1214.17 209.54 1223.91 226.19 1219.13 226.19 1226.89 243.44 1221.52 243.44 1231.07 265.24 1225.89 265.24 1237.03 285.06 1189.3 285.06 1141.57 285.06 1152.71 265.24"/><polygon class="e" points="1190.96 309.32 1190.96 113.27 1201.83 137.01 1197.46 137.01 1207.8 153.06 1202.23 153.06 1210.78 169.31 1204.81 169.31 1213.17 188.14 1208.99 188.14 1219.73 209.54 1214.17 209.54 1223.91 226.19 1219.13 226.19 1226.89 243.44 1221.52 243.44 1231.07 265.24 1225.89 265.24 1237.03 285.06 1195.6 285.06 1197.26 309.32 1190.96 309.32"/><polygon class="c" points="1396.11 236.02 1402.51 236.02 1408.91 236.02 1411.35 305.93 1402.51 305.93 1393.67 305.93 1396.11 236.02"/><path class="t" d="M1440,648.45c-4-8-8.48-13.88-14.24-17.45-18.07-11.19-46.76-2.55-59.84,13.88s-12.16,51,0,66.8c15.07,19.58,38,19.58,38,19.58,11,0,24.23-3.24,36.08-21C1440,710.32,1439.95,648.62,1440,648.45Z" transform="translate(-0.09 -476.39)"/><path class="e" d="M1440,710.32s.1-51.2,0-61.87c0-.18-8.46-13.88-14.22-17.44-6.69-4.15-14.84-5.56-23.12-4.88v156.2h8.84l-1.8-51.42C1419.52,729.6,1430.1,725.06,1440,710.32Z" transform="translate(-0.09 -476.39)"/><rect class="u" x="1250.37" y="254.96" width="4.94" height="49.89"/><rect class="u" x="1343.15" y="254.96" width="4.94" height="49.89"/><rect class="v" x="1242.85" y="249.3" width="112.7" height="10.84"/><circle class="u" cx="1253.29" cy="254.72" r="0.96"/><circle class="u" cx="1346.06" cy="254.72" r="0.96"/><rect class="v" x="1242.91" y="261.75" width="112.7" height="10.84"/><circle class="u" cx="1253.35" cy="267.17" r="0.96"/><circle class="u" cx="1346.12" cy="267.17" r="0.96"/><rect class="v" x="1242.91" y="274.18" width="112.7" height="10.84"/><circle class="u" cx="1253.35" cy="279.6" r="0.96"/><circle class="u" cx="1346.12" cy="279.6" r="0.96"/><polygon class="w" points="1355.55 286.68 1299.23 286.68 1242.91 286.68 1234.67 288.91 1234.67 292.1 1299.23 292.1 1363.79 292.1 1363.79 288.91 1355.55 286.68"/><rect class="u" x="1236.98" y="292.1" width="4.94" height="17.69"/><rect class="u" x="1356.53" y="292.1" width="4.94" height="17.69"/><rect class="x" x="1234.67" y="288.91" width="129.11" height="3.19"/><polygon class="e" points="1348.09 286.68 1348.09 285.02 1355.61 285.02 1355.61 274.18 1348.09 274.18 1348.09 272.59 1355.61 272.59 1355.61 261.75 1348.09 261.75 1348.09 260.14 1355.55 260.14 1355.55 249.3 1299.26 249.3 1299.26 260.14 1343.15 260.14 1343.15 261.75 1299.26 261.75 1299.26 272.59 1343.15 272.59 1343.15 274.18 1299.26 274.18 1299.26 285.02 1343.15 285.02 1343.15 286.68 1299.26 286.68 1299.26 292.1 1343.15 292.1 1343.15 304.85 1348.09 304.85 1348.09 292.1 1356.53 292.1 1356.53 309.79 1361.48 309.79 1361.48 292.1 1363.79 292.1 1363.79 288.91 1355.55 286.68 1348.09 286.68"/><path class="y" d="M1345.81,805.33s-10.66-6.45-4.21-18.64,19-2.51,19-2.51,4.88-26.17,32.73-21.15,17.82,42.31,17.82,42.31Z" transform="translate(-0.09 -476.39)"/><path class="e" d="M1393.34,763a31.62,31.62,0,0,0-14.79.48v41.83h32.61S1421.19,768,1393.34,763Z" transform="translate(-0.09 -476.39)"/><polygon class="a" points="739.35 423.06 0 422.59 0 301.96 739.35 301.96 739.35 423.06"/><ellipse class="b" cx="50.18" cy="403.71" rx="16.29" ry="2.94"/><ellipse class="b" cx="147.17" cy="352.44" rx="12.92" ry="2.33"/><ellipse class="b" cx="108.73" cy="314.79" rx="9.55" ry="1.72"/><ellipse class="b" cx="20.98" cy="313.06" rx="9.55" ry="1.72"/><ellipse class="b" cx="212.75" cy="314.08" rx="9.55" ry="1.72"/><ellipse class="b" cx="319.5" cy="346.38" rx="12.92" ry="2.33"/><ellipse class="b" cx="288.55" cy="396.94" rx="16.29" ry="2.94"/><ellipse class="b" cx="412.27" cy="406.98" rx="16.29" ry="2.94"/><ellipse class="b" cx="474.63" cy="377.07" rx="16.29" ry="2.94"/><ellipse class="b" cx="422.91" cy="349.6" rx="12.92" ry="2.33"/><ellipse class="b" cx="581.38" cy="346.38" rx="12.92" ry="2.33"/><ellipse class="b" cx="565.92" cy="394" rx="16.29" ry="2.94"/><ellipse class="b" cx="712.46" cy="406.98" rx="16.29" ry="2.94"/><ellipse class="b" cx="698.49" cy="352.81" rx="12.92" ry="2.33"/><ellipse class="b" cx="406.14" cy="318.64" rx="9.55" ry="1.72"/><ellipse class="b" cx="529.96" cy="307.79" rx="9.55" ry="1.72"/><ellipse class="b" cx="721.88" cy="320.36" rx="9.55" ry="1.72"/><path class="e" d="M348.4,778.35H309.66c-117.43,27.94-186.13,121.1-186.13,121.1h79.4C215.53,807.83,348.4,778.35,348.4,778.35Z" transform="translate(-0.09 -476.39)"/><rect class="a" x="397.67" y="276.07" width="2.24" height="26.5"/><path class="z" d="M404,748.52s7.63-2.86,4.93-6.11-7.57,2.66-7.57,2.66,1.76-7-2.7-6.78c-4.82.27-1.94,7.47-1.94,7.47s-5.26-6.19-8.22-2.64c-1.85,2.21,2.12,4.64,4.74,5.41,0,0-8.43,1.53-6.44,5.05,2.11,3.74,8.71-1.52,8.71-1.52s-6,6.26-1.56,7.81c4.2,1.48,5-6.49,5-6.49s.51,7.93,4.87,6.66c5.72-1.66-1.56-8-1.56-8s8.12,4.12,8.86-.32C411.73,748,404,748.52,404,748.52Z" transform="translate(-0.09 -476.39)"/><path class="l" d="M394.56,749.2A4,4,0,0,0,398.7,753a4,4,0,0,0,4.32-3.68,4,4,0,0,0-4.14-3.84A4,4,0,0,0,394.56,749.2Z" transform="translate(-0.09 -476.39)"/><path class="a" d="M399.09,765.11s2.57-4.44,8.92-3C408,762.15,406,767.13,399.09,765.11Z" transform="translate(-0.09 -476.39)"/><path class="a" d="M398.67,770.94a7.92,7.92,0,0,1-8.38-4S395.79,764.95,398.67,770.94Z" transform="translate(-0.09 -476.39)"/><path class="e" d="M404,748.52s7.63-2.86,4.93-6.11-7.57,2.66-7.57,2.66,1.68-6.77-2.48-6.77V779H400V765.33c6.21,1.34,8-3.18,8-3.18-4.24-1-6.78.66-8,1.86v-6.23c.71,1.57,1.89,2.83,3.83,2.26,5.72-1.66-1.56-8-1.56-8s8.12,4.12,8.86-.32C411.73,748,404,748.52,404,748.52Z" transform="translate(-0.09 -476.39)"/><rect class="m" x="677.16" y="376.41" width="2.58" height="30.57"/><path class="n" d="M684.46,848.25s8.8-3.3,5.68-7-8.74,3.07-8.74,3.07,2-8.12-3.11-7.82c-5.56.32-2.24,8.61-2.24,8.61s-6.06-7.14-9.48-3c-2.13,2.55,2.44,5.35,5.47,6.24,0,0-9.72,1.77-7.42,5.83,2.43,4.31,10-1.75,10-1.75s-6.92,7.22-1.8,9c4.85,1.7,5.77-7.49,5.77-7.49s.58,9.14,5.62,7.69c6.6-1.91-1.8-9.24-1.8-9.24s9.37,4.75,10.22-.37C693.37,847.66,684.46,848.25,684.46,848.25Z" transform="translate(-0.09 -476.39)"/><path class="o" d="M673.56,849a4.6,4.6,0,0,0,4.78,4.43,4.66,4.66,0,0,0,5-4.25,4.61,4.61,0,0,0-4.77-4.43A4.66,4.66,0,0,0,673.56,849Z" transform="translate(-0.09 -476.39)"/><path class="m" d="M678.79,867.39s3-5.12,10.29-3.42C689.08,864,686.81,869.71,678.79,867.39Z" transform="translate(-0.09 -476.39)"/><path class="m" d="M678.3,874.11a9.13,9.13,0,0,1-9.66-4.64S675,867.2,678.3,874.11Z" transform="translate(-0.09 -476.39)"/><path class="e" d="M684.46,848.25s8.8-3.3,5.68-7-8.74,3.07-8.74,3.07,1.94-7.81-2.86-7.81v46.92h1.29V867.64c7.17,1.55,9.24-3.67,9.24-3.67-4.89-1.14-7.82.76-9.24,2.15v-7.19c.82,1.81,2.18,3.26,4.41,2.61,6.6-1.91-1.8-9.24-1.8-9.24s9.37,4.75,10.22-.37C693.37,847.66,684.46,848.25,684.46,848.25Z" transform="translate(-0.09 -476.39)"/><rect class="m" x="338.34" y="372.55" width="2.58" height="30.57"/><path class="p" d="M345.63,844.39s8.8-3.3,5.68-7-8.74,3.07-8.74,3.07,2-8.12-3.11-7.82c-5.56.32-2.24,8.62-2.24,8.62s-6.06-7.14-9.49-3c-2.13,2.55,2.44,5.35,5.47,6.24,0,0-9.72,1.77-7.43,5.83,2.43,4.31,10-1.75,10-1.75s-6.92,7.22-1.8,9c4.85,1.7,5.77-7.49,5.77-7.49s.58,9.14,5.61,7.69c6.6-1.91-1.8-9.24-1.8-9.24s9.37,4.75,10.22-.37C354.54,843.81,345.63,844.39,345.63,844.39Z" transform="translate(-0.09 -476.39)"/><path class="o" d="M334.74,845.18a4.61,4.61,0,0,0,4.78,4.43,4.66,4.66,0,0,0,5-4.25,4.61,4.61,0,0,0-4.78-4.43A4.66,4.66,0,0,0,334.74,845.18Z" transform="translate(-0.09 -476.39)"/><path class="m" d="M340,863.53s3-5.12,10.29-3.42C350.25,860.12,348,865.86,340,863.53Z" transform="translate(-0.09 -476.39)"/><path class="m" d="M339.47,870.25a9.13,9.13,0,0,1-9.66-4.64S336.16,863.34,339.47,870.25Z" transform="translate(-0.09 -476.39)"/><path class="e" d="M345.63,844.39s8.8-3.3,5.68-7-8.74,3.07-8.74,3.07,1.94-7.81-2.86-7.81v46.92H341V863.79c7.17,1.55,9.24-3.67,9.24-3.67-4.89-1.14-7.82.76-9.24,2.15v-7.19c.82,1.81,2.18,3.26,4.41,2.61,6.6-1.91-1.8-9.24-1.8-9.24s9.37,4.75,10.22-.37C354.54,843.81,345.63,844.39,345.63,844.39Z" transform="translate(-0.09 -476.39)"/><rect class="m" x="22.07" y="370.76" width="2.58" height="30.57"/><path class="n" d="M29.37,842.6s8.8-3.3,5.68-7-8.74,3.07-8.74,3.07,2-8.12-3.11-7.82c-5.56.32-2.24,8.62-2.24,8.62s-6.06-7.14-9.49-3c-2.13,2.55,2.44,5.35,5.47,6.24,0,0-9.72,1.77-7.42,5.83,2.43,4.31,10-1.75,10-1.75s-6.92,7.22-1.8,9c4.85,1.7,5.77-7.49,5.77-7.49s.58,9.14,5.62,7.69c6.6-1.91-1.8-9.24-1.8-9.24s9.37,4.75,10.22-.37C38.28,842,29.37,842.6,29.37,842.6Z" transform="translate(-0.09 -476.39)"/><path class="o" d="M18.47,843.38a4.61,4.61,0,0,0,4.78,4.43,4.66,4.66,0,0,0,5-4.25,4.61,4.61,0,0,0-4.77-4.43A4.66,4.66,0,0,0,18.47,843.38Z" transform="translate(-0.09 -476.39)"/><path class="m" d="M23.69,861.74s3-5.12,10.29-3.41C34,858.32,31.72,864.07,23.69,861.74Z" transform="translate(-0.09 -476.39)"/><path class="m" d="M23.21,868.46a9.13,9.13,0,0,1-9.66-4.64S19.9,861.55,23.21,868.46Z" transform="translate(-0.09 -476.39)"/><path class="e" d="M29.37,842.6s8.8-3.3,5.68-7-8.74,3.07-8.74,3.07,1.94-7.81-2.86-7.81v46.92h1.29V862c7.17,1.55,9.24-3.67,9.24-3.67-4.89-1.14-7.82.76-9.24,2.15v-7.19c.82,1.81,2.17,3.26,4.41,2.61,6.6-1.91-1.8-9.24-1.8-9.24s9.37,4.75,10.22-.37C38.28,842,29.37,842.6,29.37,842.6Z" transform="translate(-0.09 -476.39)"/><rect class="m" x="405.03" y="331.97" width="2.33" height="27.63"/><path class="n" d="M411.63,804.24s8-3,5.14-6.37-7.89,2.77-7.89,2.77,1.83-7.34-2.81-7.07c-5,.29-2,7.79-2,7.79s-5.48-6.45-8.57-2.75c-1.93,2.31,2.21,4.84,4.94,5.64,0,0-8.78,1.6-6.71,5.27,2.2,3.89,9.08-1.58,9.08-1.58s-6.25,6.52-1.63,8.15c4.38,1.54,5.22-6.77,5.22-6.77s.53,8.26,5.07,6.95c6-1.73-1.63-8.35-1.63-8.35s8.47,4.29,9.24-.34C419.69,803.72,411.63,804.24,411.63,804.24Z" transform="translate(-0.09 -476.39)"/><path class="o" d="M401.79,805a4.16,4.16,0,0,0,4.32,4,4.21,4.21,0,0,0,4.5-3.84,4.16,4.16,0,0,0-4.31-4A4.21,4.21,0,0,0,401.79,805Z" transform="translate(-0.09 -476.39)"/><path class="m" d="M406.51,821.54s2.68-4.63,9.3-3.09C415.81,818.45,413.76,823.64,406.51,821.54Z" transform="translate(-0.09 -476.39)"/><path class="m" d="M406.07,827.61a8.25,8.25,0,0,1-8.73-4.19S403.08,821.37,406.07,827.61Z" transform="translate(-0.09 -476.39)"/><path class="e" d="M411.63,804.24s8-3,5.14-6.37-7.89,2.77-7.89,2.77,1.75-7.06-2.59-7.06V836h1.16V821.77c6.48,1.4,8.35-3.31,8.35-3.31-4.42-1-7.07.69-8.35,1.94v-6.5c.74,1.63,2,2.95,4,2.36,6-1.73-1.63-8.35-1.63-8.35s8.47,4.29,9.24-.34C419.69,803.72,411.63,804.24,411.63,804.24Z" transform="translate(-0.09 -476.39)"/><rect class="m" x="127.27" y="322.76" width="2.31" height="27.36"/><path class="q" d="M133.81,795.08s7.88-3,5.09-6.31-7.82,2.75-7.82,2.75,1.81-7.26-2.78-7c-5,.28-2,7.71-2,7.71s-5.42-6.39-8.49-2.73c-1.91,2.28,2.19,4.79,4.89,5.59,0,0-8.7,1.58-6.64,5.22,2.18,3.86,9-1.57,9-1.57s-6.19,6.46-1.61,8.07c4.34,1.52,5.17-6.7,5.17-6.7s.52,8.18,5,6.88c5.9-1.71-1.61-8.27-1.61-8.27s8.39,4.25,9.15-.33C141.79,794.56,133.81,795.08,133.81,795.08Z" transform="translate(-0.09 -476.39)"/><path class="l" d="M124.06,795.78a4.12,4.12,0,0,0,4.27,4,4.17,4.17,0,0,0,4.45-3.8,4.12,4.12,0,0,0-4.27-4A4.17,4.17,0,0,0,124.06,795.78Z" transform="translate(-0.09 -476.39)"/><path class="m" d="M128.73,812.2s2.65-4.58,9.21-3.06C137.94,809.15,135.92,814.29,128.73,812.2Z" transform="translate(-0.09 -476.39)"/><path class="m" d="M128.3,818.22a8.17,8.17,0,0,1-8.65-4.15S125.33,812,128.3,818.22Z" transform="translate(-0.09 -476.39)"/><path class="e" d="M133.81,795.08s7.88-3,5.09-6.31-7.82,2.75-7.82,2.75,1.73-7-2.56-7v42h1.15V812.43c6.41,1.38,8.27-3.28,8.27-3.28-4.37-1-7,.68-8.27,1.92v-6.43c.73,1.62,1.95,2.92,3.95,2.34,5.9-1.71-1.61-8.27-1.61-8.27s8.39,4.25,9.15-.33C141.79,794.56,133.81,795.08,133.81,795.08Z" transform="translate(-0.09 -476.39)"/><rect class="m" x="508.12" y="369.97" width="2.57" height="30.57"/><path class="r" d="M515.41,841.8s8.8-3.3,5.68-7-8.74,3.07-8.74,3.07,2-8.12-3.11-7.82c-5.56.32-2.24,8.61-2.24,8.61s-6.06-7.14-9.49-3c-2.13,2.55,2.44,5.35,5.47,6.24,0,0-9.72,1.77-7.43,5.83,2.43,4.31,10-1.75,10-1.75s-6.92,7.22-1.8,9c4.85,1.7,5.77-7.49,5.77-7.49s.58,9.14,5.62,7.69c6.6-1.91-1.8-9.24-1.8-9.24s9.37,4.75,10.22-.37C524.32,841.22,515.41,841.8,515.41,841.8Z" transform="translate(-0.09 -476.39)"/><path class="o" d="M504.51,842.59a4.61,4.61,0,0,0,4.78,4.43,4.66,4.66,0,0,0,5-4.25,4.61,4.61,0,0,0-4.78-4.43A4.66,4.66,0,0,0,504.51,842.59Z" transform="translate(-0.09 -476.39)"/><path class="m" d="M509.74,860.94s3-5.12,10.29-3.42C520,857.53,517.76,863.27,509.74,860.94Z" transform="translate(-0.09 -476.39)"/><path class="m" d="M509.25,867.66a9.13,9.13,0,0,1-9.66-4.64S505.94,860.76,509.25,867.66Z" transform="translate(-0.09 -476.39)"/><path class="e" d="M515.41,841.8s8.8-3.3,5.68-7-8.74,3.07-8.74,3.07S514.3,830,509.5,830v46.92h1.29V861.2c7.17,1.55,9.24-3.67,9.24-3.67-4.89-1.14-7.82.76-9.24,2.15v-7.19c.82,1.81,2.18,3.26,4.41,2.61,6.6-1.91-1.8-9.24-1.8-9.24s9.37,4.75,10.22-.37C524.32,841.22,515.41,841.8,515.41,841.8Z" transform="translate(-0.09 -476.39)"/></svg>