<svg id="Layer_1" data-name="Layer 1" xmlns="http://www.w3.org/2000/svg" xmlns:xlink="http://www.w3.org/1999/xlink" viewBox="0 0 1437.63 899.4"><defs><style>.cls-1,.cls-15,.cls-16{fill:none;}.cls-2{fill:#b5ce9f;}.cls-3{fill:#e0da03;}.cls-4{fill:#c9bf00;}.cls-5{fill:#a0650b;}.cls-6{fill:#e8881f;}.cls-7{fill:#929900;}.cls-8{fill:#998600;}.cls-9{fill:#9cad09;}.cls-10{clip-path:url(#clip-path);}.cls-11{fill:#e8e6d9;opacity:0.4;}.cls-12{fill:#997f00;}.cls-13{fill:#b59b00;}.cls-14{fill:#bcb708;}.cls-15,.cls-16{stroke:#fff;stroke-linecap:round;stroke-miterlimit:10;}.cls-15{stroke-width:1.25px;}.cls-16{stroke-width:1.75px;}.cls-17{fill:#fff;opacity:0.2;}.cls-18{opacity:0.3;}</style><clipPath id="clip-path" transform="translate(0 -2.9)"><path class="cls-1" d="M1437.72,740.43l-.53-.21c-1.29-.52-2.58-1-3.64-1.41q-.4-1.49-.84-3l2.26-3.12c1-1.38,1.93-2.79,2.63-3.83q-.08-8.79-.1-17.58a5.69,5.69,0,0,1,.05-.75,13.47,13.47,0,0,0-8.35-4.82s-.8-.14-2-.3-2.86-.35-4.45-.49c-1.32-.1-2.61-.16-3.69-.19-4.39-6.28-9.33-10.37-14.55-10.37h0V797.74h0a32.33,32.33,0,0,0,19.42-6.49,30.6,30.6,0,0,1-3,2.06,24.47,24.47,0,0,1-3.11,1.65l-.89.44-.33.12s.62.49,1.57,1.08,2.3,1.42,3.75,2.17a41.49,41.49,0,0,0,4.08,1.74c1.17.43,2,.69,2,.69a11.58,11.58,0,0,0,3.61.48,10.5,10.5,0,0,0,3.65-.65,14.29,14.29,0,0,0,3.22-1.59C1438.36,791.35,1437.85,750.77,1437.72,740.43Z"/></clipPath></defs><title>floor-automne</title><polygon class="cls-2" points="1437.6 897.1 738.3 897.1 738.3 776.45 1437.6 776.56 1437.6 897.1"/><rect class="cls-2" y="776.45" width="738.3" height="120.65"/><path class="cls-3" d="M992.19,791.87c-3.93-59.44-49.38-106.34-104.87-106.34S786.39,732.43,782.46,791.87" transform="translate(0 -2.9)"/><path class="cls-4" d="M1220.08,711.94c-51.88,0-94.37,35.09-98,79.57h196.1C1314.45,747,1272,711.94,1220.08,711.94Z" transform="translate(0 -2.9)"/><path class="cls-3" d="M1072.51,705c-83.68,0-126,42.62-132,96.65h263.94C1198.55,747.57,1156.19,705,1072.51,705Z" transform="translate(0 -2.9)"/><polygon class="cls-5" points="1255.92 743.48 1269.69 712.79 1266.63 711.42 1255.41 736.43 1230.96 697.99 1228.14 699.79 1255.92 743.48"/><rect class="cls-5" x="1253.99" y="739.96" width="3.35" height="24.74"/><path class="cls-6" d="M1258.92,720.46h28.36a10.24,10.24,0,0,0,10.21-10.21h0A10.24,10.24,0,0,0,1287.28,700h-28.36a10.24,10.24,0,0,0-10.21,10.21h0A10.24,10.24,0,0,0,1258.92,720.46Z" transform="translate(0 -2.9)"/><path class="cls-6" d="M1218.24,707.25h18.7a10.17,10.17,0,0,0,10.14-10.14h0A10.17,10.17,0,0,0,1236.94,687h-18.7a10.17,10.17,0,0,0-10.14,10.14h0A10.17,10.17,0,0,0,1218.24,707.25Z" transform="translate(0 -2.9)"/><path class="cls-6" d="M1247.14,698.45h28.33a7.39,7.39,0,0,0,7.36-7.36h0a7.39,7.39,0,0,0-7.36-7.36h-28.33a7.39,7.39,0,0,0-7.36,7.36h0A7.39,7.39,0,0,0,1247.14,698.45Z" transform="translate(0 -2.9)"/><path class="cls-6" d="M1246.45,682.43h10a4.91,4.91,0,0,0,4.9-4.9h0a4.91,4.91,0,0,0-4.9-4.9h-10a4.91,4.91,0,0,0-4.9,4.9h0A4.91,4.91,0,0,0,1246.45,682.43Z" transform="translate(0 -2.9)"/><path class="cls-6" d="M1228.14,723.4h13.44a6.64,6.64,0,0,0,6.62-6.62h0a6.64,6.64,0,0,0-6.62-6.62h-13.44a6.64,6.64,0,0,0-6.62,6.62h0A6.64,6.64,0,0,0,1228.14,723.4Z" transform="translate(0 -2.9)"/><path class="cls-7" d="M768.92,790.83c0,.61-.06,1.23-.06,1.85h0a29.41,29.41,0,0,0,29.32,29.49h520.7a29.41,29.41,0,0,0,29.32-29.49h0c0-.62,0-1.24-.06-1.85Z" transform="translate(0 -2.9)"/><rect class="cls-5" x="1170.42" y="722.54" width="3.96" height="39.03"/><path class="cls-8" d="M1196.61,714.5a24.2,24.2,0,1,1-48.4,0c0-13.37,24.2-48,24.2-48S1196.61,701.13,1196.61,714.5Z" transform="translate(0 -2.9)"/><path class="cls-5" d="M919.24,786.54l.79-.09.45-.1a5.33,5.33,0,0,1,2.82.1V752.9H918.6v33.74Z" transform="translate(0 -2.9)"/><path class="cls-8" d="M897.17,749.95c0,13.55,10.64,24.53,23.78,24.53s23.78-11,23.78-24.53-10.64-49.59-23.78-49.59S897.17,736.4,897.17,749.95Z" transform="translate(0 -2.9)"/><path class="cls-8" d="M948.82,763.63s-.06-.13-.2-.36l-.55-.94c-.46-.77-1.1-1.74-1.76-2.64a33.1,33.1,0,0,0-3-3.31l-.24.93-.27,1.07c-.1.41-.31.85-.48,1.34a22.79,22.79,0,0,1-3.8,6.63,22.5,22.5,0,0,1-5.82,5,17.55,17.55,0,0,1-2.23,1.19l-.64.31-.24.08s.44.35,1.13.78,1.65,1,2.69,1.55a29.73,29.73,0,0,0,2.93,1.25c.84.31,1.42.5,1.42.5a8.3,8.3,0,0,0,2.59.34,7.53,7.53,0,0,0,2.61-.46,9.89,9.89,0,0,0,2.44-1.22,13.76,13.76,0,0,0,2-1.87,13,13,0,0,0,1.46-2.36,9,9,0,0,0,.76-2.62,10.54,10.54,0,0,0,.12-1.32,9.53,9.53,0,0,0-.14-1.33A8.79,8.79,0,0,0,948.82,763.63Z" transform="translate(0 -2.9)"/><path class="cls-8" d="M948.74,735.07s-2.15-1-4.33-1.83-4.35-1.64-4.35-1.64.49,1.6,1.12,4,1.37,5.68,1.88,8.89c.27,1.61.45,3.2.58,4.65a23.67,23.67,0,0,1,.05,3.74c0,.52,0,1-.09,1.43l-.17,1.09-.14,1a33.51,33.51,0,0,0,4.06-1.87,39.54,39.54,0,0,0,3.87-2.64,9.81,9.81,0,0,0,3.3-9.18A10,10,0,0,0,948.74,735.07Z" transform="translate(0 -2.9)"/><path class="cls-8" d="M938.69,708.51s-.57-.1-1.46-.22-2-.25-3.19-.35-2.31-.13-3.16-.15-1.42,0-1.42,0,.9,1.23,2.1,3.3a75.78,75.78,0,0,1,4,8c1.32,3,2.46,6.16,3.25,8.54s1.26,4,1.26,4l.88-1.16,1.88-2.59c1.35-1.9,2.64-3.89,2.64-3.89a10,10,0,0,0,.75-9.5A9.92,9.92,0,0,0,938.69,708.51Z" transform="translate(0 -2.9)"/><path class="cls-8" d="M893.08,763.63s.06-.13.2-.36l.55-.94c.46-.77,1.1-1.74,1.76-2.64a33.1,33.1,0,0,1,3-3.31l.24.93.27,1.07c.1.41.31.85.48,1.34a22.8,22.8,0,0,0,3.8,6.63,22.5,22.5,0,0,0,5.82,5,17.56,17.56,0,0,0,2.23,1.19l.64.31.24.08s-.44.35-1.13.78-1.65,1-2.69,1.55a29.73,29.73,0,0,1-2.93,1.25c-.84.31-1.42.5-1.42.5a8.3,8.3,0,0,1-2.59.34,7.53,7.53,0,0,1-2.61-.46,9.89,9.89,0,0,1-2.44-1.22,13.76,13.76,0,0,1-2-1.87,13,13,0,0,1-1.46-2.36,9,9,0,0,1-.76-2.62,10.54,10.54,0,0,1-.12-1.32,9.55,9.55,0,0,1,.14-1.33A8.79,8.79,0,0,1,893.08,763.63Z" transform="translate(0 -2.9)"/><path class="cls-8" d="M893.16,735.07s2.15-1,4.33-1.83,4.35-1.64,4.35-1.64-.49,1.6-1.12,4-1.37,5.68-1.88,8.89c-.27,1.61-.45,3.2-.58,4.65a23.66,23.66,0,0,0-.05,3.74c0,.52,0,1,.09,1.43l.17,1.09.14,1a33.51,33.51,0,0,1-4.06-1.87,39.54,39.54,0,0,1-3.87-2.64,9.81,9.81,0,0,1-3.3-9.18A10,10,0,0,1,893.16,735.07Z" transform="translate(0 -2.9)"/><path class="cls-8" d="M903.21,708.51s.57-.1,1.46-.22,2-.25,3.19-.35,2.31-.13,3.16-.15,1.42,0,1.42,0-.9,1.23-2.1,3.3a75.76,75.76,0,0,0-4,8c-1.32,3-2.46,6.16-3.25,8.54s-1.26,4-1.26,4l-.88-1.16-1.88-2.59c-1.35-1.9-2.64-3.89-2.64-3.89a10,10,0,0,1-.75-9.5A9.92,9.92,0,0,1,903.21,708.51Z" transform="translate(0 -2.9)"/><path class="cls-9" d="M1034.41,759.45l4.08,5.21h-20l4.08-5.21A7.53,7.53,0,0,1,1034.41,759.45Z" transform="translate(0 -2.9)"/><path class="cls-9" d="M1054.44,759.45l4.08,5.21h-20l4.08-5.21A7.53,7.53,0,0,1,1054.44,759.45Z" transform="translate(0 -2.9)"/><path class="cls-9" d="M1074.47,759.45l4.08,5.21h-20l4.08-5.21A7.53,7.53,0,0,1,1074.47,759.45Z" transform="translate(0 -2.9)"/><path class="cls-9" d="M1094.49,759.45l4.08,5.21h-20l4.08-5.21A7.53,7.53,0,0,1,1094.49,759.45Z" transform="translate(0 -2.9)"/><path class="cls-9" d="M1114.52,759.45l4.08,5.21h-20l4.08-5.21A7.53,7.53,0,0,1,1114.52,759.45Z" transform="translate(0 -2.9)"/><path class="cls-9" d="M1134.55,759.45l4.08,5.21h-20l4.08-5.21A7.53,7.53,0,0,1,1134.55,759.45Z" transform="translate(0 -2.9)"/><path class="cls-9" d="M1154.58,759.45l4.08,5.21h-20l4.08-5.21A7.53,7.53,0,0,1,1154.58,759.45Z" transform="translate(0 -2.9)"/><path class="cls-9" d="M1174.6,759.45l4.08,5.21h-20l4.08-5.21A7.53,7.53,0,0,1,1174.6,759.45Z" transform="translate(0 -2.9)"/><path class="cls-9" d="M1194.63,759.45l4.08,5.21h-20l4.08-5.21A7.53,7.53,0,0,1,1194.63,759.45Z" transform="translate(0 -2.9)"/><path class="cls-9" d="M1214.66,759.45l4.08,5.21h-20l4.08-5.21A7.53,7.53,0,0,1,1214.66,759.45Z" transform="translate(0 -2.9)"/><path class="cls-9" d="M1234.68,759.45l4.08,5.21h-20l4.08-5.21A7.53,7.53,0,0,1,1234.68,759.45Z" transform="translate(0 -2.9)"/><path class="cls-9" d="M1254.71,759.45l4.08,5.21h-20l4.08-5.21A7.53,7.53,0,0,1,1254.71,759.45Z" transform="translate(0 -2.9)"/><path class="cls-9" d="M1274.74,759.45l4.08,5.21h-20l4.08-5.21A7.53,7.53,0,0,1,1274.74,759.45Z" transform="translate(0 -2.9)"/><path class="cls-9" d="M1294.76,759.45l4.08,5.21h-20l4.08-5.21A7.53,7.53,0,0,1,1294.76,759.45Z" transform="translate(0 -2.9)"/><path class="cls-9" d="M1314.79,759.45l4.08,5.21h-20l4.08-5.21A7.53,7.53,0,0,1,1314.79,759.45Z" transform="translate(0 -2.9)"/><path class="cls-9" d="M785.31,785.62l4.05,5.21H769.49l4.05-5.21A7.44,7.44,0,0,1,785.31,785.62Z" transform="translate(0 -2.9)"/><path class="cls-9" d="M805.19,785.62l4.05,5.21H789.37l4.05-5.21A7.44,7.44,0,0,1,805.19,785.62Z" transform="translate(0 -2.9)"/><path class="cls-9" d="M825.07,785.62l4.05,5.21H809.24l4.05-5.21A7.44,7.44,0,0,1,825.07,785.62Z" transform="translate(0 -2.9)"/><path class="cls-9" d="M844.94,785.62l4.05,5.21H829.12l4.05-5.21A7.44,7.44,0,0,1,844.94,785.62Z" transform="translate(0 -2.9)"/><path class="cls-9" d="M864.82,785.62l4.05,5.21H849l4.05-5.21A7.44,7.44,0,0,1,864.82,785.62Z" transform="translate(0 -2.9)"/><path class="cls-9" d="M884.7,785.62l4.05,5.21H868.87l4.05-5.21A7.44,7.44,0,0,1,884.7,785.62Z" transform="translate(0 -2.9)"/><path class="cls-9" d="M904.57,785.62l4.05,5.21H888.75l4.05-5.21A7.44,7.44,0,0,1,904.57,785.62Z" transform="translate(0 -2.9)"/><path class="cls-9" d="M924.45,785.62l4.05,5.21H908.63l4.05-5.21A7.44,7.44,0,0,1,924.45,785.62Z" transform="translate(0 -2.9)"/><path class="cls-9" d="M944.33,785.62l4.05,5.21H928.5l4.05-5.21A7.44,7.44,0,0,1,944.33,785.62Z" transform="translate(0 -2.9)"/><path class="cls-9" d="M964.2,785.62l4.05,5.21H948.38l4.05-5.21A7.44,7.44,0,0,1,964.2,785.62Z" transform="translate(0 -2.9)"/><path class="cls-9" d="M984.08,785.62l4.05,5.21H968.26l4.05-5.21A7.44,7.44,0,0,1,984.08,785.62Z" transform="translate(0 -2.9)"/><path class="cls-9" d="M1004,785.62l4.05,5.21H988.13l4.05-5.21A7.44,7.44,0,0,1,1004,785.62Z" transform="translate(0 -2.9)"/><path class="cls-9" d="M1023.84,785.62l4.05,5.21H1008l4.05-5.21A7.44,7.44,0,0,1,1023.84,785.62Z" transform="translate(0 -2.9)"/><path class="cls-9" d="M1043.71,785.62l4.05,5.21h-19.88l4.05-5.21A7.44,7.44,0,0,1,1043.71,785.62Z" transform="translate(0 -2.9)"/><path class="cls-9" d="M1063.59,785.62l4.05,5.21h-19.88l4.05-5.21A7.44,7.44,0,0,1,1063.59,785.62Z" transform="translate(0 -2.9)"/><path class="cls-9" d="M1083.47,785.62l4.05,5.21h-19.88l4.05-5.21A7.44,7.44,0,0,1,1083.47,785.62Z" transform="translate(0 -2.9)"/><path class="cls-9" d="M1103.34,785.62l4.05,5.21h-19.88l4.05-5.21A7.44,7.44,0,0,1,1103.34,785.62Z" transform="translate(0 -2.9)"/><path class="cls-9" d="M1123.22,785.62l4.05,5.21H1107.4l4.05-5.21A7.44,7.44,0,0,1,1123.22,785.62Z" transform="translate(0 -2.9)"/><path class="cls-9" d="M1143.1,785.62l4.05,5.21h-19.88l4.05-5.21A7.44,7.44,0,0,1,1143.1,785.62Z" transform="translate(0 -2.9)"/><path class="cls-9" d="M1163,785.62l4.05,5.21h-19.88l4.05-5.21A7.44,7.44,0,0,1,1163,785.62Z" transform="translate(0 -2.9)"/><path class="cls-9" d="M1182.85,785.62l4.05,5.21H1167l4.05-5.21A7.44,7.44,0,0,1,1182.85,785.62Z" transform="translate(0 -2.9)"/><path class="cls-9" d="M1202.73,785.62l4.05,5.21H1186.9l4.05-5.21A7.44,7.44,0,0,1,1202.73,785.62Z" transform="translate(0 -2.9)"/><path class="cls-9" d="M1222.61,785.62l4.05,5.21h-19.88l4.05-5.21A7.44,7.44,0,0,1,1222.61,785.62Z" transform="translate(0 -2.9)"/><path class="cls-9" d="M1242.48,785.62l4.05,5.21h-19.88l4.05-5.21A7.44,7.44,0,0,1,1242.48,785.62Z" transform="translate(0 -2.9)"/><path class="cls-9" d="M1262.36,785.62l4.05,5.21h-19.88l4.05-5.21A7.44,7.44,0,0,1,1262.36,785.62Z" transform="translate(0 -2.9)"/><path class="cls-9" d="M1282.24,785.62l4.05,5.21h-19.88l4.05-5.21A7.44,7.44,0,0,1,1282.24,785.62Z" transform="translate(0 -2.9)"/><path class="cls-9" d="M1302.11,785.62l4.05,5.21h-19.88l4.05-5.21A7.44,7.44,0,0,1,1302.11,785.62Z" transform="translate(0 -2.9)"/><path class="cls-9" d="M1322,785.62l4.05,5.21h-19.88l4.05-5.21A7.44,7.44,0,0,1,1322,785.62Z" transform="translate(0 -2.9)"/><path class="cls-9" d="M1343.86,785.62l4.05,5.21H1328l4.05-5.21A7.44,7.44,0,0,1,1343.86,785.62Z" transform="translate(0 -2.9)"/><path class="cls-9" d="M1381.62,785.62l4.05,5.21H1365.8l4.05-5.21A7.44,7.44,0,0,1,1381.62,785.62Z" transform="translate(0 -2.9)"/><path class="cls-9" d="M1401.5,785.62l4.05,5.21h-19.88l4.05-5.21A7.44,7.44,0,0,1,1401.5,785.62Z" transform="translate(0 -2.9)"/><path class="cls-9" d="M1421.37,785.62l4.05,5.21h-19.88l4.05-5.21A7.44,7.44,0,0,1,1421.37,785.62Z" transform="translate(0 -2.9)"/><rect class="cls-9" x="846.17" y="754.49" width="3.55" height="34.95"/><path class="cls-9" d="M1066.53,763.33c0,.55,0,1.11,0,1.67h0c0,14.72,6,26.66,13.38,26.66h237.67c7.39,0,13.38-11.93,13.38-26.66h0c0-.56,0-1.12,0-1.67Z" transform="translate(0 -2.9)"/><path class="cls-9" d="M869.61,756.54a21.67,21.67,0,1,1-43.33,0c0-12,21.67-43,21.67-43S869.61,744.57,869.61,756.54Z" transform="translate(0 -2.9)"/><rect class="cls-8" x="1102.12" y="758.25" width="3.09" height="30.42"/><polygon class="cls-8" points="1103.66 720.79 1119.18 769.62 1088.14 769.62 1103.66 720.79"/><rect class="cls-9" x="979.6" y="756.92" width="3.15" height="31.03"/><path class="cls-9" d="M997.15,757.83a16,16,0,1,1-32,0c0-9.11,7.16-33.33,16-33.33S997.15,748.73,997.15,757.83Z" transform="translate(0 -2.9)"/><path class="cls-9" d="M962.44,767l.13-.24.37-.63c.31-.52.74-1.17,1.19-1.78a22.25,22.25,0,0,1,2-2.23l.16.62.18.72c.07.28.21.57.32.9a15.32,15.32,0,0,0,2.56,4.46,15.12,15.12,0,0,0,3.91,3.34,11.81,11.81,0,0,0,1.5.8l.43.21.16.06s-.3.23-.76.52-1.11.68-1.81,1a20,20,0,0,1-2,.84c-.56.21-1,.33-1,.33a5.58,5.58,0,0,1-1.74.23,5.06,5.06,0,0,1-1.76-.31,6.65,6.65,0,0,1-1.64-.82,9.25,9.25,0,0,1-1.38-1.26,8.7,8.7,0,0,1-1-1.59,6.08,6.08,0,0,1-.51-1.76,7.09,7.09,0,0,1-.08-.89,6.42,6.42,0,0,1,.09-.9A5.9,5.9,0,0,1,962.44,767Z" transform="translate(0 -2.9)"/><path class="cls-9" d="M962.49,747.83s1.45-.65,2.91-1.23,2.92-1.1,2.92-1.1-.33,1.08-.75,2.7-.92,3.82-1.27,6c-.18,1.08-.3,2.15-.39,3.13a15.89,15.89,0,0,0,0,2.51c0,.35,0,.68.06,1l.11.73.09.64a22.55,22.55,0,0,1-2.73-1.26,26.59,26.59,0,0,1-2.6-1.77,6.59,6.59,0,0,1-2.22-6.17A6.7,6.7,0,0,1,962.49,747.83Z" transform="translate(0 -2.9)"/><path class="cls-9" d="M969.25,730s.39-.07,1-.15,1.38-.17,2.15-.24,1.55-.09,2.12-.1,1,0,1,0-.6.83-1.41,2.22a51,51,0,0,0-2.69,5.37c-.88,2-1.66,4.14-2.19,5.74s-.84,2.68-.84,2.68l-.59-.78L966.47,743c-.9-1.28-1.77-2.61-1.77-2.61a6.74,6.74,0,0,1-.5-6.38A6.67,6.67,0,0,1,969.25,730Z" transform="translate(0 -2.9)"/><path class="cls-9" d="M999.9,767l-.13-.24-.37-.63c-.31-.52-.74-1.17-1.19-1.78a22.25,22.25,0,0,0-2-2.23l-.16.62-.18.72c-.07.28-.21.57-.32.9a15.32,15.32,0,0,1-2.56,4.46,15.12,15.12,0,0,1-3.91,3.34,11.8,11.8,0,0,1-1.5.8l-.43.21-.16.06s.3.23.76.52,1.11.68,1.81,1a20,20,0,0,0,2,.84c.56.21,1,.33,1,.33a5.58,5.58,0,0,0,1.74.23,5.06,5.06,0,0,0,1.76-.31,6.65,6.65,0,0,0,1.64-.82,9.26,9.26,0,0,0,1.38-1.26,8.7,8.7,0,0,0,1-1.59,6.08,6.08,0,0,0,.51-1.76,7.09,7.09,0,0,0,.08-.89,6.42,6.42,0,0,0-.09-.9A5.91,5.91,0,0,0,999.9,767Z" transform="translate(0 -2.9)"/><path class="cls-9" d="M999.85,747.83s-1.45-.65-2.91-1.23-2.92-1.1-2.92-1.1.33,1.08.75,2.7.92,3.82,1.27,6c.18,1.08.3,2.15.39,3.13a15.91,15.91,0,0,1,0,2.51c0,.35,0,.68-.06,1l-.11.73-.09.64a22.53,22.53,0,0,0,2.73-1.26,26.6,26.6,0,0,0,2.6-1.77,6.59,6.59,0,0,0,2.22-6.17A6.7,6.7,0,0,0,999.85,747.83Z" transform="translate(0 -2.9)"/><path class="cls-9" d="M993.09,730s-.39-.07-1-.15-1.38-.17-2.15-.24-1.55-.09-2.12-.1-1,0-1,0,.6.83,1.41,2.22a50.93,50.93,0,0,1,2.69,5.37c.88,2,1.66,4.14,2.19,5.74s.84,2.68.84,2.68l.59-.78,1.26-1.74c.9-1.28,1.78-2.61,1.78-2.61a6.74,6.74,0,0,0,.5-6.38A6.67,6.67,0,0,0,993.09,730Z" transform="translate(0 -2.9)"/><rect class="cls-5" x="1401.2" y="764.75" width="6.54" height="64.39"/><path class="cls-6" d="M1437.63,763.53c0,18.9-14.85,34.21-33.16,34.21s-33.16-15.32-33.16-34.21,14.85-69.17,33.16-69.17S1437.63,744.63,1437.63,763.53Z" transform="translate(0 -2.9)"/><path class="cls-6" d="M1365.59,782.61s.09-.18.28-.51l.77-1.32c.65-1.07,1.54-2.43,2.46-3.68a46.18,46.18,0,0,1,4.18-4.62l.34,1.29.38,1.49c.14.58.43,1.19.66,1.88a31.79,31.79,0,0,0,5.3,9.25,31.38,31.38,0,0,0,8.12,6.93,24.49,24.49,0,0,0,3.11,1.65l.89.44.33.12s-.62.49-1.57,1.08-2.3,1.42-3.75,2.17a41.51,41.51,0,0,1-4.08,1.74c-1.17.43-2,.69-2,.69a11.58,11.58,0,0,1-3.61.48,10.5,10.5,0,0,1-3.65-.65,13.79,13.79,0,0,1-3.4-1.71,19.19,19.19,0,0,1-2.86-2.61,18.07,18.07,0,0,1-2-3.29,12.61,12.61,0,0,1-1.05-3.65,14.69,14.69,0,0,1-.16-1.84,13.31,13.31,0,0,1,.19-1.86A12.26,12.26,0,0,1,1365.59,782.61Z" transform="translate(0 -2.9)"/><path class="cls-6" d="M1365.7,742.77s3-1.35,6-2.55,6.06-2.29,6.06-2.29-.68,2.23-1.56,5.61-1.91,7.92-2.63,12.4c-.38,2.25-.63,4.46-.81,6.49a33,33,0,0,0-.08,5.22c.05.73,0,1.41.12,2l.24,1.52.19,1.33a46.75,46.75,0,0,1-5.66-2.61,55.17,55.17,0,0,1-5.39-3.68,13.68,13.68,0,0,1-4.6-12.8A13.9,13.9,0,0,1,1365.7,742.77Z" transform="translate(0 -2.9)"/><path class="cls-6" d="M1379.73,705.72s.8-.14,2-.3,2.86-.35,4.45-.49,3.22-.19,4.4-.22,2,0,2,0-1.25,1.72-2.93,4.6a105.71,105.71,0,0,0-5.57,11.14c-1.84,4.22-3.44,8.59-4.54,11.91s-1.75,5.56-1.75,5.56l-1.22-1.61L1374,732.7c-1.88-2.65-3.68-5.43-3.68-5.43a14,14,0,0,1-1-13.25A13.84,13.84,0,0,1,1379.73,705.72Z" transform="translate(0 -2.9)"/><path class="cls-6" d="M1436.07,769.64l-.24,1.52-.19,1.33s.49-.27,2-.93V740.47c-.18-.07-.23-.18-.41-.25-3-1.22-6.06-2.29-6.06-2.29s.68,2.23,1.56,5.61,1.91,7.92,2.63,12.4c.38,2.25.63,4.46.81,6.49a33,33,0,0,1,.08,5.22C1436.14,768.38,1436.17,769.05,1436.07,769.64Z" transform="translate(0 -2.9)"/><path class="cls-6" d="M1437.5,711.29a5.69,5.69,0,0,1,.05-.75,13.47,13.47,0,0,0-8.35-4.82s-.8-.14-2-.3-2.86-.35-4.45-.49-3.22-.19-4.4-.22-2,0-2,0,1.25,1.72,2.93,4.6a105.65,105.65,0,0,1,5.57,11.14c1.84,4.22,3.44,8.59,4.54,11.91s1.75,5.56,1.75,5.56l1.22-1.61,2.62-3.61c1-1.38,1.93-2.79,2.63-3.83Q1437.52,720.08,1437.5,711.29Z" transform="translate(0 -2.9)"/><path class="cls-6" d="M1389.92,704.73c-1.08,0-2.37.1-3.7.2-1.6.14-3.22.33-4.45.49s-2,.3-2,.3a13.84,13.84,0,0,0-10.49,8.31,14,14,0,0,0,1,13.25s1.81,2.77,3.68,5.43l2.27,3.13q-.43,1.49-.83,3c-1.07.4-2.36.89-3.66,1.42-3,1.2-6,2.55-6,2.55a13.9,13.9,0,0,0-8.07,10.61,13.68,13.68,0,0,0,4.6,12.8,55.17,55.17,0,0,0,5.39,3.68,46.88,46.88,0,0,0,4.74,2.25c.08.34.18.67.28,1a46.24,46.24,0,0,0-3.54,4c-.92,1.25-1.81,2.61-2.46,3.68l-.77,1.32c-.19.33-.28.51-.28.51a12.26,12.26,0,0,0-1.14,3.46,13.31,13.31,0,0,0-.19,1.86,14.7,14.7,0,0,0,.16,1.84,12.61,12.61,0,0,0,1.05,3.65,18.07,18.07,0,0,0,2,3.29,19.2,19.2,0,0,0,2.86,2.61,13.8,13.8,0,0,0,3.4,1.71,10.5,10.5,0,0,0,3.65.65,11.58,11.58,0,0,0,3.61-.48s.82-.26,2-.69a41.47,41.47,0,0,0,4.08-1.74c1.45-.75,2.79-1.55,3.75-2.17s1.57-1.08,1.57-1.08l-.33-.12-.89-.44a24.47,24.47,0,0,1-3.11-1.65,30.77,30.77,0,0,1-3.19-2.18,32.34,32.34,0,0,0,19.57,6.6V694.36C1399.25,694.36,1394.31,698.46,1389.92,704.73Z" transform="translate(0 -2.9)"/><g class="cls-10"><rect class="cls-11" x="6.47" width="1431.13" height="899.4"/></g><rect class="cls-5" x="1037.83" y="757.66" width="6.54" height="64.39" transform="translate(2082.21 1576.82) rotate(180)"/><path class="cls-12" d="M1041.1,676.91V796A39.92,39.92,0,0,0,1081,756.09C1081,734,1041.1,676.91,1041.1,676.91Z" transform="translate(0 -2.9)"/><path class="cls-13" d="M1001.18,756.09A39.92,39.92,0,0,0,1041.1,796V676.91S1001.18,734,1001.18,756.09Z" transform="translate(0 -2.9)"/><rect class="cls-5" x="1305.67" y="765.93" width="5.47" height="53.9"/><polygon class="cls-13" points="1308.41 715.53 1335.91 802.04 1280.91 802.04 1308.41 715.53"/><polygon class="cls-13" points="1280.91 786.07 1308.41 786.07 1308.41 699.55 1280.91 786.07"/><polygon class="cls-12" points="1308.41 699.55 1308.41 786.07 1335.91 786.07 1308.41 699.55"/><path class="cls-6" d="M828.72,813.93a4.57,4.57,0,0,0-2.9-1.26,11.72,11.72,0,0,0-4.55.32,7.55,7.55,0,0,0-3.34,1.7l-.66.66a1.62,1.62,0,0,0-.32,2.15,4.57,4.57,0,0,0,2.9,1.26,11.73,11.73,0,0,0,4.55-.32,7.55,7.55,0,0,0,3.34-1.7l.66-.66A1.62,1.62,0,0,0,828.72,813.93Z" transform="translate(0 -2.9)"/><path class="cls-6" d="M952.31,822.24c-1.75-3-7.46-3.43-10.39-3.43-2.74,0-5.43,1.55-3.78,4.34,1.75,3,7.46,3.43,10.39,3.43C951.27,826.58,954,825,952.31,822.24Z" transform="translate(0 -2.9)"/><path class="cls-6" d="M1001.75,806.54c-3.12,0-6.2,3.25-1.5,3.25C1003.37,809.79,1006.45,806.54,1001.75,806.54Z" transform="translate(0 -2.9)"/><path class="cls-6" d="M1137.69,806.41c-4.71,0,.4,12.71,4.86,12.71C1147.25,819.11,1142.15,806.41,1137.69,806.41Z" transform="translate(0 -2.9)"/><path class="cls-14" d="M796.27,816.73c-3.77,0-8.79,10.32-5,10.32S800.07,816.73,796.27,816.73Z" transform="translate(0 -2.9)"/><path class="cls-13" d="M847.79,791.51c-6,0-9.14,16.25-4.63,16.25C849.14,807.76,852.31,791.51,847.79,791.51Z" transform="translate(0 -2.9)"/><path class="cls-14" d="M1110.17,817.38c-.19-.6-.58-1.73-1.38-1.73h-.66c-2,0-2.9,3-3.13,4.6a8.22,8.22,0,0,0,.08,3.64c.19.6.58,1.73,1.38,1.73h.66c2,0,2.9-3,3.13-4.6A8.22,8.22,0,0,0,1110.17,817.38Z" transform="translate(0 -2.9)"/><path class="cls-14" d="M1223.3,804.32l-.66-.66c-1.34-1.34-3.94-1.7-5.74-1.37-.67.12-1.71.3-2.09.94a1.18,1.18,0,0,0,.26,1.56l.66.66c1.34,1.34,3.94,1.7,5.74,1.37.67-.12,1.71-.3,2.09-.94A1.18,1.18,0,0,0,1223.3,804.32Z" transform="translate(0 -2.9)"/><path class="cls-15" d="M927.52,617.95a11.11,11.11,0,1,1,11.11,11.11H862.1" transform="translate(0 -2.9)"/><path class="cls-15" d="M962.31,612a17,17,0,1,1,17,17H862.1" transform="translate(0 -2.9)"/><path class="cls-16" d="M1045,643.2a15.5,15.5,0,1,1,15.5,15.5h-54.43" transform="translate(0 -2.9)"/><path class="cls-16" d="M1093.52,635a23.75,23.75,0,1,1,23.75,23.75H1006.05" transform="translate(0 -2.9)"/><g id="entrée"><path class="cls-17" d="M139.05,902.3h38.47C294.78,874.41,363.6,782.66,363.6,782.66l-79.61.09C271.42,874.24,139.05,902.3,139.05,902.3Z" transform="translate(0 -2.9)"/></g><g id="Sol_2" data-name="Sol 2" class="cls-18"><ellipse class="cls-12" cx="69.76" cy="884.83" rx="15.35" ry="2.77"/><ellipse class="cls-12" cx="161.13" cy="836.52" rx="12.17" ry="2.19"/><ellipse class="cls-12" cx="124.92" cy="801.05" rx="9" ry="1.62"/><ellipse class="cls-12" cx="42.25" cy="799.43" rx="9" ry="1.62"/><ellipse class="cls-12" cx="222.92" cy="800.38" rx="9" ry="1.62"/><ellipse class="cls-12" cx="335.47" cy="830.82" rx="12.17" ry="2.19"/><ellipse class="cls-12" cx="294.32" cy="878.44" rx="15.35" ry="2.77"/><ellipse class="cls-12" cx="410.88" cy="887.9" rx="15.35" ry="2.77"/><ellipse class="cls-12" cx="469.63" cy="859.72" rx="15.35" ry="2.77"/><ellipse class="cls-12" cx="420.9" cy="833.84" rx="12.17" ry="2.19"/><ellipse class="cls-12" cx="570.2" cy="830.82" rx="12.17" ry="2.19"/><ellipse class="cls-12" cx="555.63" cy="875.68" rx="15.35" ry="2.77"/><ellipse class="cls-12" cx="693.69" cy="887.9" rx="15.35" ry="2.77"/><ellipse class="cls-12" cx="680.53" cy="836.87" rx="12.17" ry="2.19"/><ellipse class="cls-12" cx="405.11" cy="804.68" rx="9" ry="1.62"/><ellipse class="cls-12" cx="521.76" cy="794.46" rx="9" ry="1.62"/><ellipse class="cls-12" cx="702.57" cy="806.3" rx="9" ry="1.62"/></g><g id="Sol" class="cls-18"><ellipse class="cls-12" cx="766.3" cy="884.83" rx="15.35" ry="2.77"/><ellipse class="cls-12" cx="857.67" cy="836.52" rx="12.17" ry="2.19"/><ellipse class="cls-12" cx="821.45" cy="801.05" rx="9" ry="1.62"/><ellipse class="cls-12" cx="738.79" cy="799.43" rx="9" ry="1.62"/><ellipse class="cls-12" cx="919.45" cy="800.38" rx="9" ry="1.62"/><ellipse class="cls-12" cx="1020.02" cy="830.82" rx="12.17" ry="2.19"/><ellipse class="cls-12" cx="990.86" cy="878.44" rx="15.35" ry="2.77"/><ellipse class="cls-12" cx="1107.42" cy="887.9" rx="15.35" ry="2.77"/><ellipse class="cls-12" cx="1166.16" cy="859.72" rx="15.35" ry="2.77"/><ellipse class="cls-12" cx="1117.44" cy="833.84" rx="12.17" ry="2.19"/><ellipse class="cls-12" cx="1266.73" cy="830.82" rx="12.17" ry="2.19"/><ellipse class="cls-12" cx="1252.17" cy="875.68" rx="15.35" ry="2.77"/><ellipse class="cls-12" cx="1390.23" cy="887.9" rx="15.35" ry="2.77"/><ellipse class="cls-12" cx="1377.07" cy="836.87" rx="12.17" ry="2.19"/><ellipse class="cls-12" cx="1399.1" cy="806.3" rx="9" ry="1.62"/></g></svg>