<svg xmlns="http://www.w3.org/2000/svg" xmlns:xlink="http://www.w3.org/1999/xlink" viewBox="0 0 1436.96 383.81"><defs><style>.cls-1{isolation:isolate;}.cls-2{fill:#424952;}.cls-3{fill:#fff;}.cls-4,.cls-9{stroke:#141313;}.cls-17,.cls-4,.cls-9{stroke-miterlimit:10;stroke-width:2px;}.cls-4{fill:url(#radial-gradient);}.cls-5{fill:#cfc2b2;}.cls-6{fill:#fd7469;}.cls-28,.cls-7{fill:#eee;}.cls-8{fill:#263238;}.cls-9{fill:url(#radial-gradient-2);}.cls-10{fill:url(#radial-gradient-3);}.cls-11{fill:url(#radial-gradient-4);}.cls-12{fill:#bdbdbd;}.cls-13{fill:url(#radial-gradient-5);}.cls-14{fill:url(#radial-gradient-6);}.cls-15{fill:url(#linear-gradient);}.cls-16{fill:#313f55;}.cls-17{fill:none;stroke:#455b65;opacity:0.25;}.cls-17,.cls-34{mix-blend-mode:multiply;}.cls-18{fill:#1e2a3c;}.cls-19{fill:#d0d8dc;}.cls-20{fill:#f05a28;}.cls-21{fill:#bbbdbf;}.cls-22{fill:#f3974c;}.cls-23{fill:#efdecb;}.cls-24,.cls-34{fill:#d2dade;}.cls-25{fill:#ed5342;}.cls-26{fill:#a6a8ab;}.cls-27{fill:url(#linear-gradient-2);}.cls-28{opacity:0.36;}.cls-29{fill:#c54536;}.cls-30{fill:#b0bec5;}.cls-31{fill:#f6b47b;}.cls-32{fill:#73c3d4;}.cls-33{fill:#9fc675;}.cls-34{opacity:0.46;}</style><radialGradient id="radial-gradient" cx="1203.69" cy="786.81" r="37.53" gradientTransform="translate(-22.92 -536.11) scale(1.08 1.05)" gradientUnits="userSpaceOnUse"><stop offset="0" stop-color="#434343"/><stop offset="0.39" stop-color="#404040"/><stop offset="0.68" stop-color="#373737"/><stop offset="0.93" stop-color="#272727"/><stop offset="1" stop-color="#212121"/></radialGradient><radialGradient id="radial-gradient-2" cx="981.29" cy="787.22" r="37.53" xlink:href="#radial-gradient"/><radialGradient id="radial-gradient-3" cx="1035.97" cy="294.34" r="18.52" gradientTransform="matrix(1, 0, 0, 1, 0, 0)" xlink:href="#radial-gradient"/><radialGradient id="radial-gradient-4" cx="1035.97" cy="294.34" r="15.97" gradientUnits="userSpaceOnUse"><stop offset="0" stop-color="#e0e0e0"/><stop offset="0.39" stop-color="#dedede"/><stop offset="0.53" stop-color="#d8d8d7"/><stop offset="0.61" stop-color="#d0d0cf"/><stop offset="0.62" stop-color="#d1d0cf"/><stop offset="0.86" stop-color="#9e9c9c"/><stop offset="1" stop-color="#757576"/></radialGradient><radialGradient id="radial-gradient-5" cx="1275.8" cy="294.34" r="18.52" gradientTransform="matrix(1, 0, 0, 1, 0, 0)" xlink:href="#radial-gradient"/><radialGradient id="radial-gradient-6" cx="1275.8" cy="294.34" r="15.97" xlink:href="#radial-gradient-4"/><linearGradient id="linear-gradient" x1="1167.39" y1="723.11" x2="1167.39" y2="830.4" gradientUnits="userSpaceOnUse"><stop offset="0" stop-color="#a4cfef"/><stop offset="1" stop-color="#18b4e9"/></linearGradient><linearGradient id="linear-gradient-2" x1="1283.19" y1="736.7" x2="1283.19" y2="681.42" xlink:href="#linear-gradient"/></defs><title>floor-été</title><g class="cls-1"><g id="Layer_1" data-name="Layer 1"><rect id="Route" class="cls-2" y="264.19" width="1436.96" height="119.62"/><g id="Route-2" data-name="Route"><polygon class="cls-3" points="1436.96 276.01 0 276.01 0.02 282.71 1436.96 282.71 1436.96 276.01"/><rect class="cls-3" x="1334.8" y="320.83" width="61.99" height="3.62"/><rect class="cls-3" x="1226.91" y="320.83" width="61.99" height="3.62"/><rect class="cls-3" x="1119.01" y="320.83" width="61.99" height="3.62"/><rect class="cls-3" x="1011.11" y="320.83" width="61.99" height="3.62"/><rect class="cls-3" x="903.22" y="320.83" width="61.99" height="3.62"/><rect class="cls-3" x="795.32" y="320.83" width="61.99" height="3.62"/><rect class="cls-3" x="687.42" y="320.83" width="61.99" height="3.62"/><rect class="cls-3" x="579.53" y="320.83" width="61.99" height="3.62"/><rect class="cls-3" x="471.63" y="320.83" width="61.99" height="3.62"/><rect class="cls-3" x="363.73" y="320.83" width="61.99" height="3.62"/><rect class="cls-3" x="255.84" y="320.83" width="61.99" height="3.62"/><rect class="cls-3" x="147.94" y="320.83" width="61.99" height="3.62"/><rect class="cls-3" x="40.04" y="320.83" width="61.99" height="3.62"/><rect class="cls-3" y="364.81" width="1436.96" height="6.7"/></g><g id="Ice_cream" data-name="Ice cream"><ellipse class="cls-4" cx="1274.57" cy="293.34" rx="40.46" ry="39.57"/><rect class="cls-5" x="1201.88" y="89.25" width="92.3" height="23.26"/><path class="cls-6" d="M1097.09,614.43a12.49,12.49,0,0,1-12.49,12.49h0a12.49,12.49,0,0,1-12.49-12.49v-12.8a12.49,12.49,0,0,1,12.49-12.49h0a12.49,12.49,0,0,1,12.49,12.49Z" transform="translate(-1.56 -515.19)"/><polygon class="cls-7" points="964.02 187.85 998.75 176.1 1025.7 102.25 1135.99 102.51 1135.71 244.05 963.95 243.59 964.02 187.85"/><path class="cls-8" d="M1236.09,817.88a23.28,23.28,0,0,1-.66-5.31,10.4,10.4,0,0,1-.1-1.14H971.45l11.13,7.45h253.67C1236.18,818.55,1236.13,818.21,1236.09,817.88Z" transform="translate(-1.56 -515.19)"/><path class="cls-8" d="M1317.09,811.43a13.8,13.8,0,0,1-.32,3.25,18.69,18.69,0,0,1-.45,2.36c-.1.25-.37,1.5-.46,1.84h40.66v-7.45Z" transform="translate(-1.56 -515.19)"/><rect class="cls-7" x="1135.81" y="102.33" width="234.16" height="144.89" rx="7.27" ry="7.27"/><rect class="cls-6" x="962.89" y="235.1" width="406.98" height="12.13"/><rect class="cls-6" x="964.09" y="236.78" width="168.36" height="10.44"/><ellipse class="cls-9" cx="1034.84" cy="293.77" rx="40.46" ry="39.57"/><circle class="cls-10" cx="1035.97" cy="294.34" r="18.52"/><circle class="cls-11" cx="1035.97" cy="294.34" r="15.97"/><circle class="cls-12" cx="1035.97" cy="294.34" r="6.72"/><circle class="cls-13" cx="1275.8" cy="294.34" r="18.52"/><circle class="cls-14" cx="1275.8" cy="294.34" r="15.97"/><circle class="cls-12" cx="1275.8" cy="294.34" r="6.72"/><path class="cls-15" d="M958.61,757.16v44.21l17.69,10H996c0-.63,0-1.26,0-1.9a41,41,0,1,1,82,0c0,.64,0,1.27,0,1.9h157.59c0-.63,0-1.26,0-1.9a41,41,0,1,1,82,0c0,.64,0,1.27,0,1.9h41l17.78-20.87V761.42l-242.37.83.2-5.08Z" transform="translate(-1.56 -515.19)"/><polygon class="cls-16" points="1034.91 118.44 1018.48 171.78 1056.17 171.78 1056.17 118.44 1034.91 118.44"/><path class="cls-17" d="M1064.75,628.47V755.53A57.59,57.59,0,0,1,1101,787.29h28.68V628.47Z" transform="translate(-1.56 -515.19)"/><rect class="cls-16" x="1069.12" y="118.43" width="52.82" height="53.34"/><rect class="cls-18" x="1106.47" y="118.43" width="15.46" height="53.34"/><rect class="cls-19" x="1128.12" y="111.73" width="4.32" height="105.85"/><path class="cls-7" d="M1130.28,615.34a6.3,6.3,0,0,1-6.3,6.3H1044a6.3,6.3,0,0,1-6.3-6.3h0a6.3,6.3,0,0,1,6.3-6.3H1124a6.3,6.3,0,0,1,6.3,6.3Z" transform="translate(-1.56 -515.19)"/><path class="cls-7" d="M983.6,787.58a5.45,5.45,0,0,1-5.45,5.45H968a5.45,5.45,0,0,1-5.45-5.45h0a5.45,5.45,0,0,1,5.45-5.45h10.17a5.45,5.45,0,0,1,5.45,5.45Z" transform="translate(-1.56 -515.19)"/><path class="cls-20" d="M981.6,787.58a5.21,5.21,0,0,1-4.93,5.45h-9.21a5.21,5.21,0,0,1-4.93-5.45h0a5.21,5.21,0,0,1,4.93-5.45h9.21a5.21,5.21,0,0,1,4.93,5.45Z" transform="translate(-1.56 -515.19)"/><path class="cls-7" d="M1360.39,787.58a5.45,5.45,0,0,1-5.45,5.45h-10.17a5.45,5.45,0,0,1-5.45-5.45h0a5.45,5.45,0,0,1,5.45-5.45h10.17a5.45,5.45,0,0,1,5.45,5.45Z" transform="translate(-1.56 -515.19)"/><path class="cls-6" d="M1358.39,787.58a5.21,5.21,0,0,1-4.93,5.45h-9.21a5.21,5.21,0,0,1-4.93-5.45h0a5.21,5.21,0,0,1,4.93-5.45h9.21a5.21,5.21,0,0,1,4.93,5.45Z" transform="translate(-1.56 -515.19)"/><rect class="cls-21" x="1178.13" y="129.95" width="148.03" height="84.3" rx="14.54" ry="14.54"/><path class="cls-16" d="M1317.78,707.68c0,7.2-3.56,13-10.76,13H1200.38a13,13,0,0,1-13-13V658.16a13,13,0,0,1,13-13H1307c7.2,0,10.76,5.83,10.76,13Z" transform="translate(-1.56 -515.19)"/><path class="cls-22" d="M1093.94,604.8a2.06,2.06,0,0,1-2.06,2.06h0a2.06,2.06,0,0,1-2.06-2.06v-4.12a2.06,2.06,0,0,1,2.06-2.06h0a2.06,2.06,0,0,1,2.06,2.06Z" transform="translate(-1.56 -515.19)"/><path class="cls-23" d="M1306.64,596.81A14.17,14.17,0,0,1,1292.47,611h-85.76a14.17,14.17,0,0,1-14.17-14.17h0a14.17,14.17,0,0,1,14.17-14.17h85.76a14.17,14.17,0,0,1,14.17,14.17Z" transform="translate(-1.56 -515.19)"/><path class="cls-7" d="M1195.2,570.28a82.11,82.11,0,0,1-5.81,9.93c-3.63,5.33-4.6,12.6,1.45,16s10.42-3.15,16.47-3.63,12.36,8.72,24.23,6.54,13.81-9.45,22.53-6.78,16.23,9.69,25.19,6.78,8-6.78,13.32-5.81,13.57,8.72,17.93.73a17.71,17.71,0,0,0-3.39-21.8c-5.57-5.09-6.06-8.48-8.72-13.57s-11.63-20.35-32.83-21.44c-17.08-.88-21.44-8-18.9-14.54s7.27-5.09,7.27-5.09.36-3.27-6.9-2.18-15.26,8-22.53,18.17-9.81,8-18.9,14.9S1191.33,566.64,1195.2,570.28Z" transform="translate(-1.56 -515.19)"/><path class="cls-24" d="M1243.17,521.83s-4.85,10.17,1.45,16.23,14.05,1.94,17.44,3.63c3.88.24,0-2.67-3.63-2.67S1242,536.12,1243.17,521.83Z" transform="translate(-1.56 -515.19)"/><path class="cls-24" d="M1228.15,545.93s-.36-5.81,14.9,0,18.9,10.17,28.71,8.36c6.54,1.09-.73,6.9-12.72,4.72S1232.15,544.84,1228.15,545.93Z" transform="translate(-1.56 -515.19)"/><path class="cls-7" d="M1188.91,616.79a8,8,0,0,1-8,8h-19.62a8,8,0,0,1-8-8h0a8,8,0,0,1,8-8h19.62a8,8,0,0,1,8,8Z" transform="translate(-1.56 -515.19)"/><path class="cls-7" d="M1356.06,616.79a8,8,0,0,1-8,8h-19.62a8,8,0,0,1-8-8h0a8,8,0,0,1,8-8h19.62a8,8,0,0,1,8,8Z" transform="translate(-1.56 -515.19)"/><circle class="cls-25" cx="1354.32" cy="116.32" r="2"/><circle class="cls-25" cx="1354.32" cy="227.58" r="2"/><circle class="cls-26" cx="1184.8" cy="205.89" r="1.45"/><circle class="cls-26" cx="1318.89" cy="205.89" r="1.45"/><path class="cls-27" d="M1246.32,720.71H1307a13,13,0,0,0,13-13V658.16a13,13,0,0,0-5.83-10.86h-67.91Z" transform="translate(-1.56 -515.19)"/><path class="cls-28" d="M1313.67,701.09h0a2.19,2.19,0,0,1-2.18-2.18V683.4a2.19,2.19,0,0,1,2.18-2.18h0a2.19,2.19,0,0,1,2.18,2.18v15.5A2.19,2.19,0,0,1,1313.67,701.09Z" transform="translate(-1.56 -515.19)"/><path class="cls-28" d="M1313.67,714.17h0a2.19,2.19,0,0,1-2.18-2.18v-6.06a2.19,2.19,0,0,1,2.18-2.18h0a2.19,2.19,0,0,1,2.18,2.18V712A2.19,2.19,0,0,1,1313.67,714.17Z" transform="translate(-1.56 -515.19)"/><polygon class="cls-28" points="1244.76 135.06 1278.04 205.53 1282.4 205.53 1248.88 134.54 1244.76 134.54 1244.76 135.06"/><polygon class="cls-28" points="1254.45 135.06 1287.73 205.53 1292.1 205.53 1258.57 134.54 1254.45 134.54 1254.45 135.06"/><rect class="cls-21" x="1241.85" y="142.3" width="5.09" height="68.32"/><ellipse class="cls-29" cx="1181.96" cy="155.07" rx="10.04" ry="9.79"/><rect class="cls-6" x="1171.94" y="120.6" width="20.06" height="35.5"/><ellipse class="cls-30" cx="1201.87" cy="155.07" rx="10.04" ry="9.79"/><rect class="cls-19" x="1191.85" y="120.6" width="20.06" height="35.5"/><ellipse class="cls-29" cx="1221.93" cy="155.07" rx="10.04" ry="9.79"/><rect class="cls-6" x="1211.91" y="120.6" width="20.06" height="35.5"/><ellipse class="cls-30" cx="1241.84" cy="155.07" rx="10.04" ry="9.79"/><rect class="cls-19" x="1231.82" y="120.6" width="20.06" height="35.5"/><ellipse class="cls-29" cx="1261.87" cy="155.07" rx="10.04" ry="9.79"/><rect class="cls-6" x="1251.85" y="120.6" width="20.06" height="35.5"/><ellipse class="cls-30" cx="1281.78" cy="155.07" rx="10.04" ry="9.79"/><rect class="cls-19" x="1271.76" y="120.6" width="20.06" height="35.5"/><ellipse class="cls-29" cx="1301.84" cy="155.07" rx="10.04" ry="9.79"/><rect class="cls-6" x="1291.82" y="120.6" width="20.06" height="35.5"/><ellipse class="cls-30" cx="1321.75" cy="155.07" rx="10.04" ry="9.79"/><rect class="cls-19" x="1311.73" y="120.6" width="20.06" height="35.5"/><path class="cls-28" d="M1103.39,658.93h0a1.7,1.7,0,0,1-1.7-1.7v-15.5a1.7,1.7,0,0,1,1.7-1.7h0a1.7,1.7,0,0,1,1.7,1.7v15.5A1.7,1.7,0,0,1,1103.39,658.93Z" transform="translate(-1.56 -515.19)"/><path class="cls-24" d="M1191.45,589.53s.36,2.54,5.45,0,6.18-5.81,11.63-2.54c4.36,2.91,3.27,2.91,0,2.54s-5.45.73-8,1.82S1190.72,595.71,1191.45,589.53Z" transform="translate(-1.56 -515.19)"/><path class="cls-24" d="M1235.06,588.8s.36,2.54,5.45,0,6.18-5.81,11.63-2.54c4.36,2.91,3.27,2.91,0,2.54s-5.45.73-8,1.82S1234.33,595,1235.06,588.8Z" transform="translate(-1.56 -515.19)"/><path class="cls-24" d="M1275.75,589.77s.36,2.54,5.45,0,6.18-5.81,11.63-2.54c4.36,2.91,3.27,2.91,0,2.54s-5.45.73-8,1.82S1275,595.95,1275.75,589.77Z" transform="translate(-1.56 -515.19)"/><circle class="cls-25" cx="1219.32" cy="37.64" r="2.91"/><circle class="cls-31" cx="1252.27" cy="47.82" r="2.91"/><circle class="cls-32" cx="1223.68" cy="71.56" r="2.91"/><circle class="cls-33" cx="1292.48" cy="63.81" r="1.45"/><circle class="cls-25" cx="1264.38" cy="73.01" r="1.45"/><circle class="cls-32" cx="1274.55" cy="31.83" r="1.45"/><path class="cls-34" d="M1310.52,594a17.79,17.79,0,0,0,0-17.6,10.44,10.44,0,0,0,.52,1.12c3.39,6.3-3.39,10.66-11.14,10.66s-7.27-8.72-16-3.39-14.54,1-21.8-1.45-15.5-1-22.77,3.88-18.41,3.88-26.16-2.91-8.24-4.36-15.5-1.45-1-6.78,0-10.17-2.42-2.41-2.42-2.41a82.11,82.11,0,0,1-5.81,9.93c-3.63,5.33-4.6,12.6,1.45,16s10.42-3.15,16.47-3.63,12.36,8.72,24.23,6.54,13.81-9.45,22.53-6.78,16.23,9.69,25.19,6.78,8-6.78,13.32-5.81S1306.16,602,1310.52,594Z" transform="translate(-1.56 -515.19)"/><path class="cls-24" d="M1196.9,568.46s-.36,4,8.72,0,7.27-13.81,26.53-7.63,12,8.72,25.07,8,24.71,0,30.89,0,8.36-6.54,9.81-5.09,0,4-5.81,7.27-6.54,5.81-25.44,3.27-23,5.57-37.55,6.66-8.6-8.12-19.5-7S1194,574.64,1196.9,568.46Z" transform="translate(-1.56 -515.19)"/><path class="cls-34" d="M1298.4,558.65c-.43-.83-1-1.93-1.83-3.19a3,3,0,0,1-.59-.21c1.94,3.39-3.39,5.33-8.72,9.69s-8.24-1.94-17.44,1-20.83,0-28.59-4.85-22.29,0-22.29,0a39.31,39.31,0,0,1-15,3.88c-6.56.36-4.07-7.77-5.33-9.35-4.38,5.89-6.1,12.15-3.39,14.68l-.15.31a10.59,10.59,0,0,0,6.45,3.56c5.81.48,9.69,1.45,17.44,7.27s26.16-5.33,36.34-7.75,27.13,3.88,38.76,0c5.65-1.88,8.55-3.2,9.88-4.83C1301.21,565.42,1300.44,562.53,1298.4,558.65Z" transform="translate(-1.56 -515.19)"/></g></g></g></svg>