<svg id="Hiver" xmlns="http://www.w3.org/2000/svg" viewBox="0 0 1438 417.6"><defs><style>.cls-1{fill:#fff;}.cls-2{fill:#74c2b5;}.cls-3{fill:#89cec0;}.cls-4{fill:#9b8b75;}.cls-5{fill:#827360;}.cls-6{fill:#cbf7f3;}.cls-7{fill:#eff6f6;}.cls-8,.cls-9{fill:#dceaea;}.cls-9{opacity:0.3;}</style></defs><title>floor-hiver</title><rect id="Route_blanche" data-name="Route blanche" class="cls-1" y="293.34" width="1438" height="123.79"/><g id="Forêt"><polygon class="cls-2" points="1034.25 260.19 1041.24 260.19 1025.27 223.73 1034.25 223.73 1021.28 194.9 1029.26 194.9 1011.3 167.05 1022.28 167.05 1004.32 131.26 1011.3 131.26 997.33 99.77 1007.31 99.77 991.35 72.59 1002.32 72.59 983.37 45.74 992.35 45.74 971.39 0 950.44 45.74 959.42 45.74 940.46 72.59 951.44 72.59 935.47 99.77 945.45 99.77 931.48 131.26 938.47 131.26 920.51 167.05 931.48 167.05 913.52 194.9 921.5 194.9 908.53 223.73 917.51 223.73 901.55 260.19 908.53 260.19 891.57 293.34 971.39 293.34 1051.21 293.34 1034.25 260.19"/><polygon class="cls-3" points="950.44 45.74 959.42 45.74 940.46 72.59 951.44 72.59 935.47 99.77 945.45 99.77 931.48 131.26 938.47 131.26 920.51 167.05 931.48 167.05 913.52 194.9 921.5 194.9 908.53 223.73 917.51 223.73 901.55 260.19 908.53 260.19 891.57 293.34 971.39 293.34 971.39 0 950.44 45.74"/><polygon class="cls-2" points="1122.46 268.65 1127.66 268.65 1115.77 241.5 1122.46 241.5 1112.8 220.03 1118.74 220.03 1105.37 199.29 1113.54 199.29 1100.16 172.63 1105.37 172.63 1094.96 149.18 1102.39 149.18 1090.51 128.94 1098.68 128.94 1084.56 108.94 1091.25 108.94 1075.64 74.88 1060.04 108.94 1066.73 108.94 1052.61 128.94 1060.78 128.94 1048.89 149.18 1056.32 149.18 1045.92 172.63 1051.12 172.63 1037.75 199.29 1045.92 199.29 1032.54 220.03 1038.49 220.03 1028.83 241.5 1035.52 241.5 1023.63 268.65 1028.83 268.65 1016.2 293.34 1075.64 293.34 1135.09 293.34 1122.46 268.65"/><polygon class="cls-3" points="1060.04 108.94 1066.73 108.94 1052.61 128.94 1060.78 128.94 1048.89 149.18 1056.32 149.18 1045.92 172.63 1051.12 172.63 1037.75 199.29 1045.92 199.29 1032.54 220.03 1038.49 220.03 1028.83 241.5 1035.52 241.5 1023.63 268.65 1028.83 268.65 1016.2 293.34 1075.64 293.34 1075.64 74.88 1060.04 108.94"/><rect class="cls-4" x="602.64" y="263.65" width="25.55" height="29.69"/><rect class="cls-5" x="602.64" y="263.65" width="12.77" height="29.69"/><polygon class="cls-6" points="649.48 211.97 667.51 211.97 635.45 166.88 655.49 166.88 615.42 103.76 575.34 166.88 595.38 166.88 563.32 211.97 581.35 211.97 543.28 274.08 615.42 274.08 687.55 274.08 649.48 211.97"/><polygon class="cls-1" points="615.42 103.77 615.42 103.76 575.34 166.88 595.38 166.88 563.32 211.97 581.35 211.97 543.28 274.08 615.42 274.08 615.42 274.08 615.42 103.77"/><path class="cls-6" d="M756.33,733.85c-11.37,1.55-31.2-8.91-33.11-38.84s9.28-52.13,30.51-52.21c30.16-.12,32.21,33.75,30.94,54.76S770.34,731.94,756.33,733.85Z" transform="translate(-2 -482.25)"/><path class="cls-1" d="M753.72,642.79c-21.22.08-32.42,22.29-30.51,52.21S745,735.4,756.33,733.85v-91C755.48,642.82,754.62,642.79,753.72,642.79Z" transform="translate(-2 -482.25)"/><path class="cls-4" d="M736.08,712.29s14.64,1.82,15.68,10.94-1.57,52.36-1.57,52.36h15.68s-6.8-52.36-4.44-58.35,9.93-9.38,9.93-9.38-8.63-.26-11.5,2.87-6.53,3.91-10.46,3.13S741.57,711.77,736.08,712.29Z" transform="translate(-2 -482.25)"/><path class="cls-5" d="M756.33,775.59V713.3a11.48,11.48,0,0,1-6.92.56c-3.92-.78-7.84-2.09-13.33-1.56,0,0,14.64,1.82,15.68,10.94s-1.57,52.36-1.57,52.36Z" transform="translate(-2 -482.25)"/><path class="cls-6" d="M857.43,732.89s-16.07-4.76-22.87-29.6-7.87-76.12,0-101,22.12-43.87,33-27,21.37,84,13.87,117.35S863.05,731.3,857.43,732.89Z" transform="translate(-2 -482.25)"/><path class="cls-1" d="M834.56,602.32c-7.87,24.85-6.8,76.12,0,101s22.87,29.6,22.87,29.6V569C848.91,570.05,840.14,584.72,834.56,602.32Z" transform="translate(-2 -482.25)"/><path class="cls-4" d="M850.22,775.59s2.05-59.6,1.46-62.65-7.91-17-7.91-17,9.38,12.62,10.26,7.4,3.4-44.81,3.4-44.81-.18,40,2.17,39.59,12-16.1,12-16.1-11.14,20.88-11.14,28.71.88,64.82.88,64.82Z" transform="translate(-2 -482.25)"/><path class="cls-5" d="M857.69,775.59v-89c-.79-11.69-.26-28-.26-28s-2.52,39.59-3.4,44.81-10.26-7.4-10.26-7.4,7.33,13.92,7.91,17-1.46,62.65-1.46,62.65Z" transform="translate(-2 -482.25)"/><rect class="cls-4" x="1231.35" y="264.74" width="21.45" height="28.6"/><rect class="cls-5" x="1231.35" y="264.74" width="10.72" height="28.6"/><polygon class="cls-6" points="1270.68 232.3 1285.82 232.3 1258.9 202.41 1275.72 202.41 1242.08 160.55 1208.43 202.41 1225.26 202.41 1198.34 232.3 1213.48 232.3 1181.52 273.5 1242.08 273.5 1302.64 273.5 1270.68 232.3"/><polygon class="cls-1" points="1242.08 160.55 1242.08 160.55 1208.43 202.41 1225.26 202.41 1198.34 232.3 1213.48 232.3 1181.52 273.5 1242.08 273.5 1242.08 273.5 1242.08 160.55"/><path class="cls-6" d="M1186.06,669.72c-1-43.22-21.67-89.35-48.5-89.35a1,1,0,0,0-.92,0c-27.28,0-47.51,46.12-48.5,89.35-.92,40.25,41.66,53.09,48.5,54.89v.23l.46-.11.46.11v-.23C1144.4,722.81,1187,710,1186.06,669.72Z" transform="translate(-2 -482.25)"/><path class="cls-1" d="M1136.63,580.38c-27.28,0-47.51,46.12-48.5,89.35-.92,40.25,41.66,53.09,48.5,54.89v.23l.46-.11V580.26A1,1,0,0,0,1136.63,580.38Z" transform="translate(-2 -482.25)"/><path class="cls-4" d="M1117,685.51s14.22,2.59,15.23,15.57-1.52,74.51-1.52,74.51h15.23s-6.6-74.51-4.31-83,9.65-13.35,9.65-13.35-8.38-.37-11.17,4.08-6.35,5.56-10.16,4.45S1122.29,684.77,1117,685.51Z" transform="translate(-2 -482.25)"/><path class="cls-5" d="M1136.63,775.59V686.94a7.88,7.88,0,0,1-6.72.8c-3.81-1.11-7.61-3-12.95-2.22,0,0,14.22,2.59,15.23,15.57s-1.52,74.51-1.52,74.51Z" transform="translate(-2 -482.25)"/><path class="cls-6" d="M1350,733.89c-11.37,1.09-31.2-6.27-33.11-27.31s9.28-36.66,30.51-36.72c30.16-.09,32.21,23.73,30.94,38.51S1364,732.55,1350,733.89Z" transform="translate(-2 -482.25)"/><path class="cls-1" d="M1347.39,669.86c-21.22.06-32.42,15.67-30.51,36.72s21.74,28.4,33.11,27.31v-64C1349.16,669.88,1348.29,669.86,1347.39,669.86Z" transform="translate(-2 -482.25)"/><path class="cls-4" d="M1329.75,712.29s14.64,1.82,15.68,10.94-1.57,52.36-1.57,52.36h15.68s-6.8-52.36-4.44-58.35,9.93-9.38,9.93-9.38-8.63-.26-11.5,2.87-6.53,3.91-10.46,3.13S1335.24,711.77,1329.75,712.29Z" transform="translate(-2 -482.25)"/><path class="cls-5" d="M1350,775.59V713.3a11.48,11.48,0,0,1-6.92.56c-3.92-.78-7.84-2.09-13.33-1.56,0,0,14.64,1.82,15.68,10.94s-1.57,52.36-1.57,52.36Z" transform="translate(-2 -482.25)"/><rect class="cls-1" y="293.34" width="1438" height="124.26"/><path class="cls-7" d="M293,776.46s81,47.5,116.79,122.94H546.65s-91-84-179.56-122.94Z" transform="translate(-2 -482.25)"/></g><g id="Route"><path class="cls-8" d="M363.44,833.57a5.34,5.34,0,0,1-1.2-1H2v6.7H369.81A27.22,27.22,0,0,0,363.44,833.57Z" transform="translate(-2 -482.25)"/><path class="cls-9" d="M461.3,837.77c-2.93-.92-4.14-3.09-4-5.17H372.33c1.76,1.68,3.47,3.4,5.24,5.08a5.79,5.79,0,0,1,1.21,1.62h87C464.31,838.74,462.82,838.24,461.3,837.77Z" transform="translate(-2 -482.25)"/><path class="cls-8" d="M463.68,832.6l.13.08c2.44,1.57,4.49,3.71,6.88,5.32l1.41.86a5.9,5.9,0,0,1,.64.45H1440v-6.7Z" transform="translate(-2 -482.25)"/></g></svg>