<svg id="Hiver" xmlns="http://www.w3.org/2000/svg" viewBox="0 0 1438 775.62"><defs><style>.cls-1{fill:#a3e2d6;}.cls-2{fill:#fff;}.cls-3{fill:#e9f2f0;}.cls-4{fill:#fefdfd;}.cls-5{fill:#fef8fa;}.cls-6{fill:#fefefe;}</style></defs><title>hiver-background</title><rect class="cls-1" width="1438" height="775.62"/><g id="Nuage_gauche" data-name="Nuage gauche"><path class="cls-2" d="M68.07,185.71c1.91-6.7,7.72-11.57,14.59-11.57a14.56,14.56,0,0,1,9.4,3.48c2.44-9.87,10.82-17.14,20.8-17.14,9.6,0,17.73,6.75,20.5,16.06.33,0,.67-.05,1-.05,5.79,0,10.56,4.64,11.25,10.64,10.37.5,14.3,11.79,10.65,21.08h-103S50.11,185.44,68.07,185.71Z" transform="translate(-2 -0.63)"/><path class="cls-3" d="M110.66,160.62a19.87,19.87,0,0,1,2.2-.13c9.6,0,17.73,6.75,20.5,16.06.33,0,.67-.05,1-.05,5.79,0,10.56,4.64,11.25,10.64,10.37.5,14.3,11.79,10.65,21.08h-45.6Z" transform="translate(-2 -0.63)"/><path class="cls-2" d="M334.24,224c1.91-6.7,7.72-11.57,14.59-11.57a14.56,14.56,0,0,1,9.41,3.48c2.44-9.87,10.82-17.14,20.79-17.14,9.6,0,17.73,6.75,20.5,16.06.33,0,.67-.05,1-.05,5.79,0,10.56,4.64,11.25,10.64,10.37.5,14.3,11.79,10.65,21.08h-103S316.28,223.73,334.24,224Z" transform="translate(-2 -0.63)"/><path class="cls-3" d="M376.84,198.92a19.9,19.9,0,0,1,2.2-.13c9.6,0,17.73,6.75,20.5,16.06.33,0,.67-.05,1-.05,5.79,0,10.56,4.64,11.25,10.64,10.37.5,14.3,11.79,10.65,21.08h-45.6Z" transform="translate(-2 -0.63)"/><path class="cls-2" d="M537.05,226.66c1.91-6.7,7.72-11.57,14.59-11.57a14.56,14.56,0,0,1,9.41,3.48c2.44-9.87,10.82-17.14,20.79-17.14,9.6,0,17.73,6.75,20.5,16.06.33,0,.67-.05,1-.05,5.79,0,10.56,4.64,11.25,10.64,10.37.5,14.3,11.79,10.65,21.08h-103S519.1,226.39,537.05,226.66Z" transform="translate(-2 -0.63)"/><path class="cls-3" d="M579.65,201.57a19.76,19.76,0,0,1,2.2-.13c9.6,0,17.73,6.75,20.5,16.06.33,0,.67-.05,1-.05,5.79,0,10.56,4.64,11.25,10.64,10.37.5,14.3,11.79,10.65,21.08h-45.6Z" transform="translate(-2 -0.63)"/><path class="cls-2" d="M332.49,138.91a1.62,1.62,0,0,1-2,1.19h0a1.62,1.62,0,0,1-1.2-2l9.37-38.7a1.62,1.62,0,0,1,2-1.19h0a1.62,1.62,0,0,1,1.2,2Z" transform="translate(-2 -0.63)"/><path class="cls-2" d="M334.92,130.06a1.53,1.53,0,0,0-.21-.27l4.95-20.43a1.65,1.65,0,0,0,.3-.14l7.91-4.82a1.62,1.62,0,0,0-1.69-2.77l-5.45,3.32,1.15-4.73a1.62,1.62,0,1,0-3.15-.77l-1.14,4.73-3.32-5.45a1.62,1.62,0,1,0-2.77,1.69l4.82,7.91a1.79,1.79,0,0,0,.2.27L331.56,129a1.63,1.63,0,0,0-.3.14L323.36,134a1.62,1.62,0,1,0,1.69,2.77l5.45-3.32-1.14,4.7a1.62,1.62,0,0,0,3.15.77l1.14-4.71,3.32,5.45a1.62,1.62,0,0,0,2.77-1.69Z" transform="translate(-2 -0.63)"/><path class="cls-2" d="M344.62,125.34a1.81,1.81,0,0,0-.33,0l-15-14.68a1.57,1.57,0,0,0,0-.33l-.11-9.26a1.62,1.62,0,1,0-3.24,0l.08,6.38-3.48-3.4a1.62,1.62,0,1,0-2.27,2.32l3.48,3.4-6.38.08a1.62,1.62,0,0,0,0,3.25l9.26-.11a1.53,1.53,0,0,0,.33,0l15,14.68a1.45,1.45,0,0,0,0,.33l.11,9.26a1.62,1.62,0,0,0,3.25,0l-.08-6.38,3.46,3.38a1.62,1.62,0,0,0,2.27-2.32l-3.47-3.38,6.38-.08a1.62,1.62,0,1,0,0-3.25Z" transform="translate(-2 -0.63)"/><path class="cls-2" d="M325.84,124a1.61,1.61,0,0,0,.13-.31l20.18-5.9a1.55,1.55,0,0,0,.27.19l8.12,4.45a1.62,1.62,0,0,0,1.56-2.85l-5.6-3.07,4.67-1.36a1.62,1.62,0,0,0-.91-3.12l-4.67,1.36,3.07-5.6a1.62,1.62,0,1,0-2.84-1.56l-4.45,8.12a1.71,1.71,0,0,0-.13.31l-20.18,5.9a1.71,1.71,0,0,0-.28-.19l-8.12-4.45a1.62,1.62,0,0,0-1.56,2.85l5.6,3.07-4.65,1.36a1.62,1.62,0,1,0,.91,3.12l4.65-1.36-3.07,5.6a1.62,1.62,0,1,0,2.85,1.56Z" transform="translate(-2 -0.63)"/><path class="cls-2" d="M243,299.32a1.62,1.62,0,0,1-2,1.19h0a1.62,1.62,0,0,1-1.2-2l9.37-38.7a1.62,1.62,0,0,1,2-1.19h0a1.62,1.62,0,0,1,1.2,2Z" transform="translate(-2 -0.63)"/><path class="cls-2" d="M245.45,290.47a1.52,1.52,0,0,0-.21-.27l5-20.43a1.72,1.72,0,0,0,.3-.14l7.91-4.82a1.62,1.62,0,1,0-1.69-2.77l-5.45,3.32,1.14-4.73a1.62,1.62,0,1,0-3.15-.77l-1.15,4.73-3.33-5.45a1.62,1.62,0,1,0-2.77,1.69l4.82,7.91a1.92,1.92,0,0,0,.2.27l-4.95,20.43a1.65,1.65,0,0,0-.3.14l-7.91,4.82a1.62,1.62,0,1,0,1.69,2.77l5.45-3.32-1.14,4.7a1.62,1.62,0,1,0,3.15.77l1.14-4.71,3.32,5.45a1.62,1.62,0,0,0,2.77-1.69Z" transform="translate(-2 -0.63)"/><path class="cls-2" d="M255.14,285.75a1.76,1.76,0,0,0-.33,0l-15-14.68a1.6,1.6,0,0,0,0-.33l-.11-9.26a1.62,1.62,0,1,0-3.24,0l.08,6.38-3.48-3.4a1.62,1.62,0,1,0-2.27,2.32l3.48,3.4-6.38.08a1.62,1.62,0,0,0,0,3.25l9.26-.11a1.56,1.56,0,0,0,.33,0l15,14.68a1.45,1.45,0,0,0,0,.33l.11,9.26a1.62,1.62,0,0,0,3.25,0l-.08-6.38,3.46,3.38a1.62,1.62,0,1,0,2.27-2.32L258.05,289l6.39-.08a1.62,1.62,0,1,0,0-3.25Z" transform="translate(-2 -0.63)"/><path class="cls-2" d="M236.37,284.42a1.63,1.63,0,0,0,.13-.31l20.18-5.9a1.64,1.64,0,0,0,.28.19l8.12,4.45a1.62,1.62,0,0,0,1.56-2.85l-5.6-3.07,4.67-1.37a1.62,1.62,0,0,0-.91-3.11l-4.67,1.36,3.07-5.6a1.62,1.62,0,1,0-2.84-1.56l-4.45,8.12a1.67,1.67,0,0,0-.13.31L235.59,281a1.79,1.79,0,0,0-.27-.19l-8.12-4.45a1.62,1.62,0,0,0-1.56,2.85l5.6,3.07-4.65,1.36a1.62,1.62,0,1,0,.91,3.11l4.64-1.36-3.07,5.6a1.62,1.62,0,1,0,2.85,1.56Z" transform="translate(-2 -0.63)"/><path class="cls-2" d="M599.56,322.4a1.62,1.62,0,0,1-2,1.19h0a1.62,1.62,0,0,1-1.2-2l9.37-38.7a1.62,1.62,0,0,1,2-1.19h0a1.62,1.62,0,0,1,1.2,2Z" transform="translate(-2 -0.63)"/><path class="cls-2" d="M602,313.55a1.5,1.5,0,0,0-.21-.27l5-20.43a1.78,1.78,0,0,0,.3-.14l7.91-4.83a1.62,1.62,0,1,0-1.69-2.77l-5.45,3.32,1.15-4.73a1.62,1.62,0,1,0-3.15-.77l-1.15,4.73-3.33-5.45a1.62,1.62,0,1,0-2.77,1.69l4.82,7.91a1.75,1.75,0,0,0,.2.27l-4.95,20.43a1.63,1.63,0,0,0-.3.14l-7.91,4.82a1.62,1.62,0,1,0,1.69,2.77l5.45-3.32-1.14,4.7a1.62,1.62,0,0,0,3.15.77l1.14-4.71,3.33,5.45a1.62,1.62,0,0,0,2.77-1.69Z" transform="translate(-2 -0.63)"/><path class="cls-2" d="M611.69,308.83a1.85,1.85,0,0,0-.33,0l-15-14.68a1.61,1.61,0,0,0,0-.33l-.11-9.26a1.62,1.62,0,1,0-3.25,0l.08,6.38-3.48-3.4a1.62,1.62,0,1,0-2.27,2.32l3.48,3.4-6.38.08a1.62,1.62,0,0,0,0,3.25l9.26-.11a1.5,1.5,0,0,0,.33,0l15,14.68a1.43,1.43,0,0,0,0,.33l.11,9.26a1.62,1.62,0,0,0,3.25,0l-.08-6.38,3.46,3.38a1.62,1.62,0,1,0,2.27-2.32L614.6,312,621,312a1.62,1.62,0,1,0,0-3.25Z" transform="translate(-2 -0.63)"/><path class="cls-2" d="M592.92,307.49a1.55,1.55,0,0,0,.13-.31l20.18-5.9a1.58,1.58,0,0,0,.27.19l8.12,4.45a1.62,1.62,0,1,0,1.56-2.85l-5.6-3.07,4.67-1.36a1.62,1.62,0,1,0-.91-3.11l-4.67,1.36,3.07-5.6a1.62,1.62,0,1,0-2.84-1.56l-4.45,8.12a1.64,1.64,0,0,0-.13.31l-20.18,5.9a1.74,1.74,0,0,0-.28-.19l-8.12-4.45a1.62,1.62,0,0,0-1.56,2.85l5.6,3.07-4.65,1.36a1.62,1.62,0,1,0,.91,3.12l4.65-1.36-3.07,5.6a1.62,1.62,0,1,0,2.85,1.56Z" transform="translate(-2 -0.63)"/><path class="cls-2" d="M564.35,98.64a1.5,1.5,0,0,0-.21-.27l5-20.43a1.73,1.73,0,0,0,.3-.14L577.3,73a1.62,1.62,0,0,0-1.69-2.77l-5.45,3.32,1.15-4.73a1.62,1.62,0,1,0-3.15-.77L567,72.76l-3.33-5.45A1.62,1.62,0,1,0,560.91,69l4.82,7.9a1.83,1.83,0,0,0,.2.27L561,97.61a1.64,1.64,0,0,0-.3.14l-7.91,4.83a1.62,1.62,0,1,0,1.69,2.77l5.45-3.32-1.14,4.7a1.62,1.62,0,1,0,3.15.77l1.14-4.71,3.32,5.45a1.62,1.62,0,0,0,2.77-1.69Z" transform="translate(-2 -0.63)"/><path class="cls-2" d="M574,93.91a1.91,1.91,0,0,0-.33,0l-15-14.68a1.53,1.53,0,0,0,0-.33l-.12-9.26a1.62,1.62,0,1,0-3.24,0l.08,6.38-3.48-3.4A1.62,1.62,0,1,0,549.66,75l3.48,3.4-6.38.08a1.62,1.62,0,0,0,0,3.25l9.26-.11a1.48,1.48,0,0,0,.33,0l15,14.68a1.42,1.42,0,0,0,0,.33l.11,9.26a1.62,1.62,0,0,0,3.25,0l-.08-6.38,3.46,3.38a1.62,1.62,0,1,0,2.27-2.32L577,97.12l6.38-.08a1.62,1.62,0,1,0,0-3.25Z" transform="translate(-2 -0.63)"/><path class="cls-2" d="M555.27,92.58a1.57,1.57,0,0,0,.13-.31l20.18-5.9a1.56,1.56,0,0,0,.27.19L584,91a1.62,1.62,0,0,0,1.56-2.85l-5.6-3.07,4.67-1.36a1.62,1.62,0,0,0-.92-3.12L579,82l3.07-5.6a1.62,1.62,0,1,0-2.85-1.56L574.8,83a1.63,1.63,0,0,0-.13.31l-20.18,5.9a1.77,1.77,0,0,0-.27-.19l-8.12-4.45a1.62,1.62,0,0,0-1.56,2.85l5.6,3.06-4.65,1.36a1.62,1.62,0,1,0,.91,3.12L551,93.55,548,99.14a1.62,1.62,0,1,0,2.85,1.56Z" transform="translate(-2 -0.63)"/></g><g id="Nuages_droites" data-name="Nuages droites"><path class="cls-2" d="M747.44,174.15c2.57-9,10.39-15.57,19.65-15.57a19.6,19.6,0,0,1,12.66,4.69c3.28-13.28,14.57-23.07,28-23.07,12.93,0,23.87,9.08,27.6,21.62.45,0,.9-.07,1.36-.07,7.79,0,14.21,6.25,15.15,14.32,14,.67,19.25,15.87,14.33,28.38H727.52S723.27,173.78,747.44,174.15Z" transform="translate(-2 -0.63)"/><path class="cls-3" d="M804.79,140.37a26.75,26.75,0,0,1,3-.18c12.93,0,23.87,9.08,27.6,21.62.45,0,.9-.07,1.36-.07,7.79,0,14.21,6.25,15.15,14.32,14,.67,19.25,15.87,14.33,28.38H804.79Z" transform="translate(-2 -0.63)"/><path class="cls-2" d="M995,251.58c2.57-9,10.39-15.57,19.65-15.57a19.6,19.6,0,0,1,12.66,4.69c3.28-13.28,14.56-23.07,28-23.07,12.93,0,23.87,9.08,27.6,21.62.45,0,.9-.07,1.36-.07,7.79,0,14.21,6.25,15.15,14.32,14,.67,19.25,15.87,14.33,28.38H975.13S970.87,251.21,995,251.58Z" transform="translate(-2 -0.63)"/><path class="cls-3" d="M1052.39,217.8a26.79,26.79,0,0,1,3-.18c12.93,0,23.87,9.08,27.6,21.62.45,0,.9-.07,1.36-.07,7.79,0,14.21,6.25,15.15,14.32,14,.67,19.25,15.87,14.33,28.38h-61.39Z" transform="translate(-2 -0.63)"/><path class="cls-2" d="M1278.66,170.36c2.57-9,10.39-15.57,19.65-15.57a19.6,19.6,0,0,1,12.66,4.69c3.28-13.28,14.56-23.07,28-23.07,12.93,0,23.87,9.08,27.6,21.62.45,0,.9-.07,1.36-.07,7.79,0,14.21,6.25,15.15,14.32,14,.67,19.25,15.87,14.33,28.38H1258.74S1254.49,170,1278.66,170.36Z" transform="translate(-2 -0.63)"/><path class="cls-3" d="M1336,136.59a26.6,26.6,0,0,1,3-.18c12.93,0,23.87,9.08,27.6,21.62.45,0,.9-.07,1.36-.07,7.79,0,14.21,6.25,15.15,14.32,14,.67,19.25,15.87,14.33,28.38H1336Z" transform="translate(-2 -0.63)"/><path class="cls-2" d="M925.65,99.23a2.06,2.06,0,0,0-.28-.36L932,71.37a2.22,2.22,0,0,0,.41-.19l10.64-6.5A2.18,2.18,0,0,0,940.81,61l-7.34,4.47L935,59.06a2.18,2.18,0,1,0-4.25-1l-1.54,6.37-4.48-7.33A2.18,2.18,0,1,0,921,59.34L927.51,70a2.41,2.41,0,0,0,.27.36l-6.66,27.51a2.19,2.19,0,0,0-.41.19l-10.64,6.5a2.18,2.18,0,1,0,2.28,3.73l7.34-4.47-1.53,6.33a2.18,2.18,0,0,0,4.25,1l1.53-6.34,4.48,7.34a2.19,2.19,0,0,0,3.73-2.28Z" transform="translate(-2 -0.63)"/><path class="cls-2" d="M938.7,92.87a2.43,2.43,0,0,0-.45.05L918,73.16a2.12,2.12,0,0,0,0-.45l-.15-12.47a2.18,2.18,0,1,0-4.37.05l.11,8.59-4.69-4.58a2.18,2.18,0,1,0-3.05,3.13L910.57,72l-8.59.1a2.19,2.19,0,0,0,.05,4.37l12.47-.15a2.06,2.06,0,0,0,.45-.05L935.2,96a2,2,0,0,0,0,.45l.15,12.47a2.19,2.19,0,0,0,4.37-.05l-.11-8.59,4.66,4.55a2.19,2.19,0,0,0,3.05-3.13l-4.67-4.55,8.6-.11a2.19,2.19,0,1,0-.05-4.37Z" transform="translate(-2 -0.63)"/><path class="cls-2" d="M913.42,91.08a2.17,2.17,0,0,0,.17-.42l27.17-7.94a2.09,2.09,0,0,0,.37.25l10.93,6a2.19,2.19,0,0,0,2.1-3.83L946.63,81l6.29-1.84A2.19,2.19,0,0,0,951.69,75l-6.29,1.84,4.13-7.54a2.18,2.18,0,1,0-3.83-2.1l-6,10.93a2.3,2.3,0,0,0-.18.42l-27.16,7.94a2.3,2.3,0,0,0-.37-.26l-10.94-6a2.19,2.19,0,0,0-2.1,3.83l7.54,4.13L900.25,90a2.19,2.19,0,1,0,1.23,4.19l6.25-1.83-4.13,7.54a2.18,2.18,0,1,0,3.83,2.1Z" transform="translate(-2 -0.63)"/><path class="cls-2" d="M805.19,315.17a2,2,0,0,0-.28-.36l6.66-27.5a2.32,2.32,0,0,0,.41-.19l10.64-6.5a2.18,2.18,0,1,0-2.28-3.73L813,281.36l1.54-6.36a2.18,2.18,0,1,0-4.24-1l-1.54,6.37L804.3,273a2.18,2.18,0,1,0-3.73,2.28l6.49,10.64a2.59,2.59,0,0,0,.27.36l-6.66,27.51a2.23,2.23,0,0,0-.41.19l-10.64,6.5a2.18,2.18,0,1,0,2.28,3.73l7.34-4.47-1.53,6.33a2.18,2.18,0,1,0,4.24,1l1.53-6.34,4.48,7.34a2.19,2.19,0,0,0,3.73-2.28Z" transform="translate(-2 -0.63)"/><path class="cls-2" d="M818.24,308.81a2.38,2.38,0,0,0-.45.05L797.54,289.1a2.16,2.16,0,0,0,0-.45l-.15-12.47a2.18,2.18,0,1,0-4.37.05l.11,8.59-4.69-4.58a2.18,2.18,0,1,0-3.05,3.13l4.69,4.58-8.59.1a2.19,2.19,0,0,0,.05,4.37l12.47-.15a2.1,2.1,0,0,0,.45-.05L814.74,312a2,2,0,0,0,0,.45l.15,12.47a2.19,2.19,0,0,0,4.37-.05l-.11-8.59,4.66,4.55a2.19,2.19,0,1,0,3.05-3.13l-4.67-4.55,8.6-.11a2.19,2.19,0,1,0-.05-4.37Z" transform="translate(-2 -0.63)"/><path class="cls-2" d="M793,307a2.2,2.2,0,0,0,.17-.42l27.17-7.94a2.21,2.21,0,0,0,.37.25l10.93,6a2.19,2.19,0,0,0,2.1-3.83l-7.54-4.13,6.29-1.84a2.19,2.19,0,0,0-1.23-4.19L825,292.75l4.13-7.54a2.18,2.18,0,1,0-3.83-2.1l-6,10.93a2.25,2.25,0,0,0-.18.42l-27.16,7.94a2.4,2.4,0,0,0-.37-.26l-10.94-6a2.19,2.19,0,0,0-2.1,3.83l7.54,4.13-6.26,1.83a2.18,2.18,0,1,0,1.23,4.19l6.25-1.83-4.13,7.54A2.18,2.18,0,1,0,787,318Z" transform="translate(-2 -0.63)"/><path class="cls-2" d="M1285.17,346.24a2,2,0,0,0-.28-.36l6.66-27.5a2.4,2.4,0,0,0,.41-.19l10.64-6.5a2.18,2.18,0,1,0-2.28-3.73l-7.34,4.47,1.54-6.36a2.18,2.18,0,1,0-4.25-1l-1.54,6.37-4.48-7.33a2.18,2.18,0,1,0-3.73,2.28L1287,317a2.35,2.35,0,0,0,.27.36l-6.66,27.51a2.19,2.19,0,0,0-.41.19l-10.64,6.49a2.18,2.18,0,1,0,2.28,3.73l7.34-4.47-1.53,6.33a2.18,2.18,0,0,0,4.25,1l1.53-6.33,4.48,7.33a2.19,2.19,0,0,0,3.73-2.28Z" transform="translate(-2 -0.63)"/><path class="cls-2" d="M1298.23,339.88a2.49,2.49,0,0,0-.45.05l-20.25-19.77a2.17,2.17,0,0,0,0-.45l-.15-12.47a2.18,2.18,0,1,0-4.37.05l.11,8.59-4.69-4.58a2.19,2.19,0,1,0-3.05,3.13l4.69,4.57-8.59.1a2.19,2.19,0,0,0,.05,4.37l12.47-.15a2,2,0,0,0,.45-.05l20.25,19.77a1.92,1.92,0,0,0,0,.45l.15,12.47a2.19,2.19,0,0,0,4.37-.05l-.11-8.59,4.66,4.55a2.19,2.19,0,1,0,3.05-3.13l-4.67-4.55,8.6-.11a2.19,2.19,0,1,0-.06-4.37Z" transform="translate(-2 -0.63)"/><path class="cls-2" d="M1273,338.09a2.08,2.08,0,0,0,.17-.42l27.17-7.94a2.13,2.13,0,0,0,.37.26l10.93,6a2.18,2.18,0,1,0,2.1-3.83l-7.54-4.13,6.29-1.84a2.18,2.18,0,1,0-1.23-4.19l-6.28,1.84,4.13-7.54a2.18,2.18,0,1,0-3.83-2.1l-6,10.93a2.21,2.21,0,0,0-.18.42l-27.16,7.94a2.34,2.34,0,0,0-.37-.26l-10.94-6a2.19,2.19,0,0,0-2.1,3.83l7.54,4.13-6.26,1.83a2.19,2.19,0,1,0,1.23,4.19l6.25-1.83-4.13,7.54A2.18,2.18,0,1,0,1267,349Z" transform="translate(-2 -0.63)"/><path class="cls-2" d="M1194.16,151a2,2,0,0,0-.28-.36l6.66-27.51a2.33,2.33,0,0,0,.41-.19l10.64-6.5a2.18,2.18,0,0,0-2.28-3.73l-7.34,4.47,1.54-6.36a2.18,2.18,0,1,0-4.25-1l-1.54,6.37-4.48-7.33a2.18,2.18,0,1,0-3.73,2.28l6.49,10.64a2.47,2.47,0,0,0,.27.36l-6.66,27.51a2.2,2.2,0,0,0-.41.19l-10.64,6.5a2.18,2.18,0,1,0,2.28,3.73l7.34-4.47-1.53,6.33a2.18,2.18,0,1,0,4.24,1l1.53-6.34,4.48,7.34a2.19,2.19,0,0,0,3.73-2.28Z" transform="translate(-2 -0.63)"/><path class="cls-2" d="M1207.22,144.67a2.57,2.57,0,0,0-.45.05L1186.51,125a2.07,2.07,0,0,0,0-.45L1186.4,112a2.18,2.18,0,1,0-4.37.05l.11,8.59-4.69-4.58a2.18,2.18,0,1,0-3.05,3.13l4.69,4.58-8.59.1a2.19,2.19,0,0,0,.05,4.37l12.47-.15a2,2,0,0,0,.45-.05l20.25,19.77a1.91,1.91,0,0,0,0,.45l.15,12.47a2.19,2.19,0,0,0,4.37-.05l-.11-8.59,4.66,4.55a2.19,2.19,0,1,0,3.06-3.13l-4.67-4.55,8.6-.11a2.19,2.19,0,1,0-.05-4.37Z" transform="translate(-2 -0.63)"/><path class="cls-2" d="M1181.94,142.88a2.11,2.11,0,0,0,.17-.42l27.17-7.94a2.11,2.11,0,0,0,.37.26l10.93,6a2.18,2.18,0,0,0,2.1-3.83l-7.54-4.13,6.29-1.84a2.19,2.19,0,0,0-1.23-4.19l-6.28,1.84,4.13-7.54a2.18,2.18,0,1,0-3.83-2.1l-6,10.93a2.2,2.2,0,0,0-.18.42l-27.17,7.94a2.38,2.38,0,0,0-.37-.26l-10.94-6a2.19,2.19,0,0,0-2.1,3.83L1175,140l-6.26,1.83A2.18,2.18,0,1,0,1170,146l6.25-1.83-4.13,7.54a2.18,2.18,0,1,0,3.83,2.1Z" transform="translate(-2 -0.63)"/></g><g id="Nuages_maison" data-name="Nuages maison"><path class="cls-4" d="M118.75,541.68c0-1.19.11-2.42-1-3.24-10-1-20-1.43-29.92-2.36-8.52-.79-17-1.86-25.52-2.75-11.21-1.18-22.26-.09-33.36,1.15-6.86.77-13.61,2.4-20.62,2.18-1.89-.06-3-.31-3.55-1.27q0,9.38,0,18.75a4.41,4.41,0,0,1,.77.32v-.25c0-1.25.08-2.5,0-3.74-.16-2.54.95-3.28,3.37-2.88a127.4,127.4,0,0,0,18.57,1.87c19.71.32,39.42-.14,59.12,1.25,9.8.69,19.37-2,29-3.45a5,5,0,0,0,2.25-1C119,544.92,118.91,543.31,118.75,541.68Z" transform="translate(-2 -0.63)"/><path class="cls-5" d="M503.1,464.25c-14.43,1.81-28.78,4.18-43.4,4.49q-15.81.34-31.64,1.19c-13.64.72-27.26,1.49-40.91,1.88-5.65.16-11.24,1.42-16.91,1.84-7.83.58-14.38-2.12-20.29-7-2.15-1.77-4.42-3.41-6.71-5-4-2.77-8.65-3.26-13.3-3.63-6-.48-12.09-.88-18.93-1.38,4.89-1.72,9.27-1.8,13.51-2.22,9.55-1,19.15-1.72,28.75-1.91a48.39,48.39,0,0,1,20.87,3.88c6.69,3,13.9,3.94,21.19,4.1,11.51.25,23-.38,34.5-.86,7.59-.32,15.08.46,22.62.25,4.24-.11,8.46,0,12.71-.53,5.58-.68,11.11.74,16.65,1.32,7.09.74,14.14,1.73,21.29,1.7Z" transform="translate(-2 -0.63)"/><path class="cls-4" d="M503.1,517.86c-9,1.66-18.21,2.07-27.14,4.27a11.89,11.89,0,0,1-2.79.09c-13.58,0-27.15-.07-40.73,0-10.24.08-20.47.39-30.71.61-2,0-3.83.93-5.83.6a2.09,2.09,0,0,1-.71-.89c-.51-2.07-.7-4.11.43-6.06,4.4-.51,6.23-3,5.7-7.35a1.56,1.56,0,0,1,.79-1.27c4.57.84,9.12,1.79,13.71,2.5a60.09,60.09,0,0,0,22.82-.69c8.71-2,17.5-1.27,26.28-.75a46.19,46.19,0,0,0,9.63,0,53.27,53.27,0,0,1,20,1.14c2.82.63,5.59,1.57,8.53,1.5Z" transform="translate(-2 -0.63)"/><path class="cls-6" d="M286.57,481.53a2,2,0,0,1-2,.77c-11.52-.44-23,.52-34.52.77a277,277,0,0,0-27.78,2.21c-6.28.77-12.61,0-18.89-.74-8.88-1-17.35-3.79-26-5.64a49.84,49.84,0,0,0-18.52-.47c-3.56.58-7.23.44-10.83.63-8.88.46-17.75,1.21-26.65,1.51-9.93.33-19.86.7-29.78,1.22-9.49.49-18.94,1.54-28.46,1.89-8.47.31-16.95.77-25.41,1.25-5.67.32-11.29,1.23-16.9-.15-2.51-.62-4.94-1.52-7.39-2.35-.68-.23-1.4-.63-1.25-1.54.09-.55.58-.8,1.1-1,5.69-1.84,11-4.83,17.12-5.37,1.44-.13,2.88-.26,4.32-.33,12.92-.63,25.84-1.19,38.75-1.92,8.14-.47,16.29-1,24.41-1.87,10.61-1.11,21.22-1.69,31.89-2,6.31-.17,12.56-.33,18.88,0a63.38,63.38,0,0,0,25.36-3.5c9.93-3.6,18.69-1.45,27.47,3,6,3,11.69,6.64,18.34,8.37,4.79,1.24,9.7,1.33,14.47,1.41,9.85.17,19.69.6,29.53.88A122.7,122.7,0,0,1,286.57,481.53Z" transform="translate(-2 -0.63)"/></g></svg>