<?xml version="1.0" encoding="utf-8"?>
<!-- Generator: Adobe Illustrator 21.0.0, SVG Export Plug-In . SVG Version: 6.00 Build 0)  -->
<svg version="1.1" id="Layer_1" xmlns="http://www.w3.org/2000/svg" xmlns:xlink="http://www.w3.org/1999/xlink" x="0px" y="0px"
	 viewBox="0 0 512 512" style="enable-background:new 0 0 512 512;" xml:space="preserve">
<style type="text/css">
	.st0{fill:#E15050;}
	.st1{fill:#D24146;}
</style>
<path class="st0" d="M471.8,46.2c0-15.5-7.5-29.7-20.5-38.5c-11.6-7.9-26.4-9.5-39.9-5.8L190.6,62.1c-26.9,7.3-45.6,31.8-45.6,59.6
	v287.1c-13.2-4.6-28.9-5.9-45.1-2.6c-38.3,7.7-64.6,37.1-58.9,65.8c5.7,28.7,41.4,45.8,79.7,38.1c35.3-7.1,60.5-32.7,59.6-59.2
	c0-0.3,0.1-0.5,0.1-0.8v-312c0-4,2.7-7.5,6.5-8.5l238.5-65c5.6-1.5,11.2,2.7,11.2,8.5v265.1c-13.2-4.6-28.9-5.9-45.1-2.6
	c-38.3,7.7-64.6,37.1-58.9,65.8c5.7,28.7,41.4,45.8,79.7,38.1c35.3-7.1,60.5-32.7,59.6-59.2c0-0.3,0.1-0.5,0.1-0.8L471.8,46.2
	L471.8,46.2z"/>
<g>
	<path class="st1" d="M375.4,403c-5.7-28.5,20.4-57.8,58.3-65.7c-12.6-3.9-27.3-4.8-42.4-1.7c-38.3,7.7-64.6,37.1-58.9,65.8
		c5.7,28.7,41.4,45.8,79.7,38.1c0.2,0,0.4-0.1,0.6-0.1C393.4,433.4,378.9,420.4,375.4,403z"/>
	<path class="st1" d="M84,473.7c-5.7-28.5,20.4-57.8,58.3-65.7c-12.6-3.9-27.3-4.8-42.4-1.7c-38.3,7.7-64.6,37.1-58.9,65.8
		c5.7,28.7,41.4,45.8,79.7,38.1c0.2,0,0.4-0.1,0.6-0.1C101.9,504.1,87.4,491,84,473.7z"/>
</g>
<rect x="249" y="-34.2" transform="matrix(0.7071 -0.7071 0.7071 0.7071 -105.6746 255.6834)" class="st0" width="13.6" height="579.2"/>
<rect x="250.4" y="-30.2" transform="matrix(0.7071 -0.7071 0.7071 0.7071 -109.4477 254.4706)" class="st1" width="4.1" height="579.2"/>
</svg>
