<svg id="mute" xmlns="http://www.w3.org/2000/svg" viewBox="0 0 82.45 101.53"><defs><style>.cls-1{fill:#e1504f;}</style></defs><title>mute</title><g id="mute_drawing" data-name="mute drawing"><path class="cls-1" d="M26.71,27l4-3.64L46.86,40,86.39,12.52c.11,1.78.25,3,.25,4.13q0,21.15,0,42.3c0,5.81-.15,11.62.07,17.42A7.7,7.7,0,0,0,88.64,81c5.48,5.75,11.18,11.3,16.79,16.92.65.65,1.26,1.35,2,2.19l-3.34,3.53L87.62,86.09l-.93.51v27.46c-1.54-.95-2.47-1.46-3.34-2.07-11.65-8.1-23.26-16.25-35-24.27a9.05,9.05,0,0,0-4.64-1.44c-6.13-.16-12.27-.07-18.71-.07V40.51H40.91ZM82,105.45c0-7.8.11-14.89-.09-22a7.14,7.14,0,0,0-1.86-4.38c-7.28-7.49-14.71-14.83-22.1-22.21-2.69-2.68-5.4-5.35-8.62-8.54,0,11.64,0,22.4.08,33.15,0,.86,1,1.94,1.84,2.53,4.29,3.1,8.66,6.09,13,9.1ZM82,21.2,50.74,42.94,82,73.74ZM29.53,81.46c4.73,0,9.06.07,13.39-.09.58,0,1.57-1.22,1.61-1.91.17-3.28.07-6.57.08-9.86,0-7.25.05-14.51,0-21.76,0-.89-.77-2.52-1.23-2.54-4.57-.19-9.15-.12-13.8-.12Z" transform="translate(-25.03 -12.52)"/></g></svg>