<svg id="Layer_1" data-name="Layer 1" xmlns="http://www.w3.org/2000/svg" xmlns:xlink="http://www.w3.org/1999/xlink" viewBox="0 0 1439.82 778.52"><defs><style>.cls-1{fill:url(#Printemps);}.cls-2{opacity:0.8;}.cls-3{fill:#f4f4f4;}.cls-4{fill:#f0b728;}.cls-5,.cls-7{fill:#fff;}.cls-5{opacity:0.2;}.cls-6{opacity:0.9;}.cls-12,.cls-7{opacity:0.5;}.cls-8{fill:#edf2f4;}.cls-9{fill:#fefdfd;}.cls-10{fill:#fef8fa;}.cls-11{fill:#fefefe;}.cls-13{opacity:0.7;}</style><linearGradient id="Printemps" x1="719.91" y1="778.52" x2="719.91" gradientUnits="userSpaceOnUse"><stop offset="0" stop-color="#dff1f2"/><stop offset="1" stop-color="#b3e1ef"/></linearGradient></defs><title>printemps-background</title><g id="Background_bleu" data-name="Background bleu"><rect class="cls-1" width="1439.82" height="778.52"/></g><g id="Soleil_Nuages_haut" data-name="Soleil + Nuages haut"><g class="cls-2"><path class="cls-3" d="M1308.74,155c-3.1-10.87-12.54-18.78-23.7-18.78a23.64,23.64,0,0,0-15.27,5.65c-4-16-17.57-27.83-33.77-27.83-15.59,0-28.8,11-33.29,26.07-.54,0-1.09-.08-1.64-.08-9.4,0-17.14,7.54-18.27,17.28-16.83.81-23.22,19.14-17.29,34.23h167.25S1337.9,154.6,1308.74,155Z" transform="translate(-0.11 0.17)"/></g><path class="cls-4" d="M1244.37,112.5a2.11,2.11,0,0,0,0-4.22h-25.55c-.06-1.4-.19-2.78-.37-4.14l25.17-4.44a2.11,2.11,0,0,0-.73-4.16L1217.73,100c-.3-1.36-.65-2.7-1.06-4l24-8.74a2.11,2.11,0,0,0-1.44-4l-24,8.74c-.53-1.29-1.13-2.54-1.76-3.76l22.12-12.78a2.11,2.11,0,0,0-2.11-3.65l-22.13,12.78q-1.12-1.75-2.38-3.4l19.57-16.43a2.11,2.11,0,0,0-2.71-3.23l-19.57,16.42q-1.41-1.53-2.94-2.94l16.42-19.57a2.11,2.11,0,0,0-3.23-2.71L1200.07,72.3q-1.64-1.27-3.4-2.38l12.78-22.13a2.11,2.11,0,0,0-3.65-2.11L1193,67.8c-1.22-.64-2.48-1.23-3.76-1.76L1198,42a2.11,2.11,0,0,0-4-1.44l-8.73,24c-1.31-.41-2.66-.76-4-1.06l4.44-25.16a2.11,2.11,0,0,0-4.15-.73l-4.44,25.17c-1.36-.18-2.74-.31-4.14-.37V36.89a2.11,2.11,0,0,0-2.1-2.11h0a2.11,2.11,0,0,0-2.11,2.11V62.44c-1.4.06-2.78.19-4.14.36l-4.44-25.16a2.11,2.11,0,1,0-4.15.73l4.44,25.16c-1.36.3-2.7.65-4,1.06l-8.73-24a2.11,2.11,0,1,0-4,1.44l8.73,24c-1.29.53-2.54,1.13-3.76,1.76l-12.77-22.12a2.11,2.11,0,1,0-3.66,2.11l12.78,22.13q-1.75,1.12-3.4,2.38l-16.42-19.57a2.11,2.11,0,0,0-3.24,2.71L1138.42,75q-1.53,1.41-2.94,2.94l-19.57-16.42a2.11,2.11,0,0,0-2.71,3.23l19.57,16.42q-1.26,1.64-2.38,3.4l-22.13-12.77a2.11,2.11,0,0,0-2.11,3.65l22.12,12.77c-.64,1.23-1.23,2.48-1.77,3.76l-24-8.73a2.11,2.11,0,0,0-1.44,4l24,8.73c-.41,1.32-.76,2.66-1.06,4l-25.16-4.43a2.11,2.11,0,1,0-.73,4.15l25.16,4.44c-.18,1.36-.3,2.74-.37,4.14h-25.55a2.11,2.11,0,0,0,0,4.22h25.55c.06,1.4.19,2.78.37,4.14l-25.16,4.44a2.11,2.11,0,0,0,.73,4.16L1124,120.8c.3,1.36.65,2.7,1.06,4l-24,8.73a2.11,2.11,0,0,0,1.45,4l24-8.73c.53,1.29,1.13,2.54,1.77,3.77l-22.12,12.77a2.11,2.11,0,0,0,2.11,3.65l22.12-12.77q1.12,1.76,2.38,3.4L1113.21,156a2.11,2.11,0,0,0,2.71,3.23l19.57-16.42q1.4,1.53,2.94,2.94L1122,165.35a2.11,2.11,0,0,0,3.23,2.71l16.42-19.57q1.65,1.27,3.4,2.38L1132.29,173a2.11,2.11,0,0,0,3.65,2.11L1148.72,153c1.23.64,2.48,1.23,3.77,1.76l-8.73,24a2.11,2.11,0,0,0,4,1.44l8.73-24c1.31.41,2.66.76,4,1.06L1156,182.41a2.11,2.11,0,0,0,4.16.73l4.44-25.16c1.36.18,2.74.3,4.14.37V183.9a2.11,2.11,0,0,0,4.22,0V158.35c1.4-.06,2.78-.19,4.14-.37l4.44,25.16a2.11,2.11,0,0,0,4.16-.73l-4.44-25.15c1.36-.3,2.7-.65,4-1.06l8.73,24a2.11,2.11,0,0,0,4-1.45l-8.73-24c1.29-.53,2.54-1.13,3.76-1.76l12.77,22.12a2.11,2.11,0,0,0,3.66-2.11l-12.78-22.13q1.75-1.12,3.4-2.38l16.42,19.57a2.11,2.11,0,0,0,3.23-2.71l-16.42-19.57q1.53-1.41,2.94-2.94l19.57,16.42a2.11,2.11,0,0,0,2.71-3.23L1209,139.6q1.26-1.65,2.38-3.4L1233.47,149a2.11,2.11,0,0,0,2.11-3.66l-22.13-12.77c.64-1.23,1.23-2.48,1.76-3.76l24,8.73a2.11,2.11,0,0,0,1.44-4l-24-8.73c.41-1.31.76-2.66,1.06-4l25.16,4.44a2.11,2.11,0,0,0,.73-4.16l-25.17-4.44c.18-1.36.3-2.74.36-4.14Z" transform="translate(-0.11 0.17)"/><path class="cls-5" d="M1244.37,108.28h-25.55c-.06-1.4-.19-2.78-.37-4.14l25.17-4.44a2.11,2.11,0,0,0-.73-4.16L1217.73,100c-.3-1.36-.65-2.7-1.06-4l24-8.74a2.11,2.11,0,0,0-1.44-4l-24,8.74c-.53-1.29-1.13-2.54-1.76-3.76l22.12-12.78a2.11,2.11,0,0,0-2.11-3.65l-22.13,12.78q-1.12-1.75-2.38-3.4l19.57-16.43a2.11,2.11,0,0,0-2.71-3.23l-19.57,16.42q-1.41-1.53-2.94-2.94l16.42-19.57a2.11,2.11,0,0,0-3.23-2.71L1200.07,72.3q-1.64-1.27-3.4-2.38l12.78-22.13a2.11,2.11,0,0,0-3.65-2.11L1193,67.8c-1.22-.64-2.48-1.23-3.76-1.76L1198,42a2.11,2.11,0,0,0-4-1.44l-8.73,24c-1.31-.41-2.66-.76-4-1.06l4.44-25.16a2.11,2.11,0,0,0-4.15-.73l-4.44,25.17c-1.36-.18-2.74-.31-4.14-.37V36.89a2.11,2.11,0,0,0-2.1-2.11h0V186h0a2.11,2.11,0,0,0,2.11-2.11V158.35c1.4-.06,2.78-.19,4.14-.37l4.44,25.16a2.11,2.11,0,0,0,4.16-.73l-4.44-25.15c1.36-.3,2.7-.65,4-1.06l8.73,24a2.11,2.11,0,0,0,4-1.45l-8.73-24c1.29-.53,2.54-1.13,3.76-1.76l12.77,22.12a2.11,2.11,0,0,0,3.66-2.11l-12.78-22.13q1.75-1.12,3.4-2.38l16.42,19.57a2.11,2.11,0,0,0,3.23-2.71l-16.42-19.57q1.53-1.41,2.94-2.94l19.57,16.42a2.11,2.11,0,0,0,2.71-3.23L1209,139.6q1.26-1.65,2.38-3.4L1233.47,149a2.11,2.11,0,0,0,2.11-3.66l-22.13-12.77c.64-1.23,1.23-2.48,1.76-3.76l24,8.73a2.11,2.11,0,0,0,1.44-4l-24-8.73c.41-1.31.76-2.66,1.06-4l25.16,4.44a2.11,2.11,0,0,0,.73-4.16l-25.17-4.44c.18-1.36.3-2.74.36-4.14h25.55a2.11,2.11,0,0,0,0-4.22Z" transform="translate(-0.11 0.17)"/><g class="cls-6"><path class="cls-3" d="M480.09,273.41c2.84-10,11.49-17.22,21.73-17.22a21.67,21.67,0,0,1,14,5.18c3.63-14.69,16.11-25.51,31-25.51,14.29,0,26.4,10,30.52,23.9.5,0,1-.07,1.5-.07,8.62,0,15.72,6.91,16.75,15.84,15.43.74,21.28,17.55,15.85,31.38H458.06S453.36,273,480.09,273.41Z" transform="translate(-0.11 0.17)"/><path class="cls-7" d="M595.53,275.54c-1-8.93-8.13-15.84-16.75-15.84-.51,0-1,0-1.5.07-4.12-13.86-16.22-23.9-30.52-23.9a30,30,0,0,0-9.2,1.44v69.61h73.81C616.82,293.08,611,276.27,595.53,275.54Z" transform="translate(-0.11 0.17)"/></g><path class="cls-3" d="M1023.18,96.35c-1.9-6.68-7.7-11.54-14.56-11.54a14.52,14.52,0,0,0-9.38,3.47c-2.43-9.84-10.79-17.1-20.75-17.1-9.58,0-17.69,6.73-20.45,16-.33,0-.67-.05-1-.05-5.78,0-10.53,4.63-11.23,10.62-10.34.5-14.27,11.76-10.62,21h102.76S1041.09,96.08,1023.18,96.35Z" transform="translate(-0.11 0.17)"/><path class="cls-7" d="M945.8,97.77c.69-6,5.45-10.62,11.23-10.62.34,0,.67,0,1,.05,2.76-9.29,10.87-16,20.45-16a20.14,20.14,0,0,1,6.16,1V118.8H935.18C931.53,109.53,935.46,98.27,945.8,97.77Z" transform="translate(-0.11 0.17)"/><path class="cls-8" d="M1315.55,53.62c.64-3.87,3.91-7.16,7.36-8.72,4.2-1.91,8.76-2.29,13.2-3.33s9.19-2.89,11.83-6.83a19.91,19.91,0,0,0,1.38-2.36c-1.5,3.69-9.15,16.31-19.73,17.13-3.17,0-6.47,1.54-9.2,3-.45.24-1.85.87-1.6,1.63a5.57,5.57,0,0,0,1,1.29,21.65,21.65,0,0,0,3.28,2.81c.24.19.47.42.7.62a39.07,39.07,0,0,1-9.38,1c-2.39,0-5.89-2.2-6.35-4.71l4.34-.07c-.67,0-1.08-.62-1.62-.94-1.42-.85-3.32-.74-4.91-.94a94.61,94.61,0,0,0-12.4-.59q-1.82,0-3.64.08a24.84,24.84,0,0,1-11.47-2.24c-1-.47-2.05-1-3.06-1.51a5.37,5.37,0,0,0,1.49.22c1.3.19,2.61.35,3.92.49a57.21,57.21,0,0,0,9.19.34,64.27,64.27,0,0,0,8.89-1.52,39.37,39.37,0,0,1,5.06-.75c3.18-.22,7.41-.59,9.84,2A7.25,7.25,0,0,1,1315.55,53.62Z" transform="translate(-0.11 0.17)"/></g><g id="Nuage_bas" data-name="Nuage bas"><path class="cls-9" d="M1.2,557.54a4.41,4.41,0,0,1,.77.32v-.25c0-1.25.08-2.5,0-3.74-.16-2.54.95-3.28,3.38-2.88a127.57,127.57,0,0,0,18.59,1.88c19.73.32,39.47-.14,59.19,1.25,9.81.69,19.39-2,29-3.45a5,5,0,0,0,2.26-1c1.2-1.35,1.1-3,.94-4.6,0-1.19.11-2.42-1-3.24-10-1-20-1.43-30-2.36-8.53-.8-17-1.86-25.56-2.75-11.22-1.18-22.29-.09-33.4,1.15-6.87.77-13.63,2.4-20.64,2.19-1.89-.06-3-.31-3.55-1.28" transform="translate(-0.11 0.17)"/><path class="cls-10" d="M500.21,467.52c-14.45,1.81-28.82,4.19-43.46,4.5q-15.83.34-31.68,1.19c-13.65.72-27.3,1.49-41,1.88-5.66.16-11.26,1.42-16.93,1.84-7.84.58-14.4-2.13-20.32-7-2.15-1.77-4.42-3.42-6.72-5-4-2.77-8.66-3.26-13.32-3.63-6-.48-12.1-.88-19-1.38,4.9-1.73,9.28-1.8,13.53-2.22,9.57-1,19.18-1.72,28.79-1.92a48.45,48.45,0,0,1,20.9,3.88c6.69,3,13.92,3.94,21.21,4.1,11.53.25,23.05-.38,34.55-.86,7.6-.32,15.1.46,22.65.25,4.24-.11,8.47,0,12.73-.53,5.58-.68,11.13.74,16.67,1.32,7.1.74,14.16,1.74,21.32,1.71Z" transform="translate(-0.11 0.17)"/><path class="cls-9" d="M500.21,521.21c-9,1.66-18.23,2.07-27.17,4.27a11.9,11.9,0,0,1-2.79.09c-13.59,0-27.19-.07-40.78,0-10.25.08-20.5.39-30.75.61-2,0-3.84.93-5.84.6a2.09,2.09,0,0,1-.71-.89c-.51-2.07-.7-4.12.43-6.07,4.41-.51,6.24-3,5.71-7.36a1.56,1.56,0,0,1,.79-1.28c4.57.84,9.13,1.8,13.73,2.51a60.16,60.16,0,0,0,22.85-.69c8.72-2,17.52-1.27,26.32-.75a46.25,46.25,0,0,0,9.65,0,53.34,53.34,0,0,1,20,1.14c2.82.63,5.59,1.57,8.54,1.5Z" transform="translate(-0.11 0.17)"/><path id="Nuage_bas-2" data-name="Nuage bas" class="cls-11" d="M283.4,484.83a2,2,0,0,1-2,.77c-11.54-.44-23,.52-34.57.77A277.36,277.36,0,0,0,219,488.59c-6.29.77-12.63,0-18.92-.74-8.89-1-17.38-3.79-26.07-5.65a49.9,49.9,0,0,0-18.55-.47c-3.56.58-7.24.44-10.84.63-8.9.46-17.77,1.21-26.69,1.51-9.94.33-19.89.7-29.82,1.22-9.5.49-19,1.54-28.5,1.89-8.48.31-17,.77-25.45,1.26-5.67.32-11.31,1.23-16.92-.15-2.51-.62-4.95-1.53-7.4-2.36-.68-.23-1.4-.63-1.25-1.54.09-.55.58-.81,1.1-1,5.69-1.84,11-4.83,17.14-5.38,1.44-.13,2.88-.26,4.32-.33,12.93-.63,25.87-1.19,38.8-1.93,8.16-.47,16.31-1,24.44-1.87,10.62-1.11,21.25-1.69,31.93-2,6.32-.17,12.57-.33,18.9,0a63.47,63.47,0,0,0,25.39-3.5c9.94-3.61,18.72-1.46,27.51,3,6,3,11.7,6.65,18.36,8.38,4.8,1.24,9.71,1.33,14.48,1.41,9.86.17,19.72.61,29.57.88A122.86,122.86,0,0,1,283.4,484.83Z" transform="translate(-0.11 0.17)"/></g><g id="Nuage_4" data-name="Nuage 4"><g class="cls-2"><path class="cls-3" d="M73.23,226.7C76,217,84.47,209.86,94.48,209.86a21.2,21.2,0,0,1,13.7,5.07c3.55-14.37,15.76-25,30.29-25,14,0,25.82,9.83,29.85,23.39.49,0,1-.07,1.47-.07,8.43,0,15.37,6.76,16.39,15.5,15.1.72,20.82,17.17,15.51,30.7h-150S47.08,226.3,73.23,226.7Z" transform="translate(-0.11 0.17)"/></g><path class="cls-7" d="M186.17,228.78c-1-8.73-8-15.5-16.39-15.5-.49,0-1,0-1.47.07-4-13.56-15.87-23.39-29.85-23.39a29.41,29.41,0,0,0-9,1.41v68.1h72.21C207,245.95,201.27,229.5,186.17,228.78Z" transform="translate(-0.11 0.17)"/></g><g id="Nuage_3" data-name="Nuage 3" class="cls-2"><path class="cls-3" d="M467.62,73.21c2.84-10,11.49-17.22,21.73-17.22a21.67,21.67,0,0,1,14,5.18c3.63-14.69,16.11-25.51,31-25.51,14.29,0,26.4,10,30.52,23.9.5,0,1-.07,1.5-.07,8.62,0,15.72,6.91,16.75,15.84,15.43.74,21.28,17.55,15.85,31.38H445.6S440.89,72.8,467.62,73.21Z" transform="translate(-0.11 0.17)"/><path class="cls-7" d="M583.07,75.33c-1-8.93-8.13-15.84-16.75-15.84-.51,0-1,0-1.5.07-4.12-13.86-16.22-23.9-30.52-23.9a30,30,0,0,0-9.2,1.44v69.61h73.81C604.35,92.88,598.5,76.07,583.07,75.33Z" transform="translate(-0.11 0.17)"/></g><g id="Nuage_2" data-name="Nuage 2" class="cls-12"><path class="cls-3" d="M791.12,164.38c-2.17-7.61-8.78-13.15-16.6-13.15a16.56,16.56,0,0,0-10.69,4c-2.77-11.22-12.3-19.49-23.65-19.49-10.92,0-20.17,7.67-23.31,18.26-.38,0-.76-.06-1.15-.06-6.58,0-12,5.28-12.79,12.1-11.79.56-16.26,13.4-12.11,24H807.94S811.54,164.07,791.12,164.38Z" transform="translate(-0.11 0.17)"/><path class="cls-7" d="M702.93,166c.79-6.82,6.21-12.1,12.79-12.1.39,0,.77,0,1.15.06,3.14-10.59,12.39-18.26,23.31-18.26a23,23,0,0,1,7,1.1V190H690.82C686.67,179.41,691.14,166.57,702.93,166Z" transform="translate(-0.11 0.17)"/></g><g id="Nuage" class="cls-13"><path class="cls-3" d="M1045.08,260.35c-2.75-9.64-11.12-16.66-21-16.66a21,21,0,0,0-13.54,5C1007,234.5,994.94,224,980.57,224c-13.83,0-25.54,9.72-29.52,23.12-.48,0-1-.07-1.45-.07-8.34,0-15.2,6.69-16.2,15.32-14.93.71-20.59,17-15.33,30.36h148.33S1070.94,260,1045.08,260.35Z" transform="translate(-0.11 0.17)"/><path class="cls-7" d="M933.39,262.4c1-8.63,7.87-15.32,16.2-15.32.49,0,1,0,1.45.07,4-13.41,15.69-23.12,29.52-23.12a29.07,29.07,0,0,1,8.9,1.39v67.34H918.06C912.8,279.38,918.47,263.12,933.39,262.4Z" transform="translate(-0.11 0.17)"/></g></svg>