<?xml version="1.0" encoding="iso-8859-1"?>
<!-- Generator: Adobe Illustrator 19.0.0, SVG Export Plug-In . SVG Version: 6.00 Build 0)  -->
<svg version="1.1" id="Layer_1" xmlns="http://www.w3.org/2000/svg" xmlns:xlink="http://www.w3.org/1999/xlink" x="0px" y="0px"
	 viewBox="0 0 512 512" style="enable-background:new 0 0 512 512;" xml:space="preserve">
<g>
	<path style="fill:#9AE1D3;" d="M353.186,479.964c-28.262-0.002-54.509-24.31-63.835-59.112
		c-5.044-18.823-4.311-38.116,2.065-54.327c6.832-17.373,19.248-29.259,34.962-33.47c3.945-1.057,8.026-1.593,12.131-1.593
		c28.257,0,54.506,24.308,63.832,59.112c5.044,18.823,4.311,38.116-2.065,54.325c-6.832,17.373-19.248,29.259-34.962,33.47
		C361.369,479.428,357.289,479.964,353.186,479.964z M338.508,353.62c-2.169,0-4.322,0.281-6.397,0.838
		c-8.751,2.345-15.882,9.511-20.076,20.177c-4.653,11.829-5.108,26.207-1.283,40.482c6.522,24.337,24.763,42.689,42.432,42.69
		c2.166-0.001,4.318-0.281,6.395-0.838c8.751-2.345,15.882-9.511,20.076-20.177c4.653-11.829,5.108-26.207,1.283-40.482
		C374.417,371.972,356.177,353.62,338.508,353.62z"/>
	<path style="fill:#9AE1D3;" d="M403.347,512c-9.42,0-18.792-2.747-27.261-8.106c-11.958-7.565-20.602-19.411-24.339-33.358
		c-1.584-5.91,1.923-11.984,7.833-13.568c5.909-1.585,11.983,1.924,13.568,7.833c2.291,8.553,7.542,15.786,14.783,20.367
		c6.969,4.409,14.881,5.746,22.283,3.763c5.906-1.584,11.983,1.924,13.568,7.833c1.584,5.91-1.923,11.984-7.833,13.568
		C411.791,511.449,407.562,512,403.347,512z"/>
	<path style="fill:#9AE1D3;" d="M290.221,274.567l-33.208-93.8c-1.968-5.556-7.944-8.598-13.59-6.925l-28.917,8.566
		c-0.831-2.802-1.676-5.659-2.535-8.556l27.35-8.102c5.867-1.738,9.214-7.902,7.476-13.768c-1.736-5.867-7.903-9.214-13.768-7.476
		l-27.334,8.097c-0.749-2.538-1.502-5.096-2.261-7.672l25.757-7.63c5.867-1.738,9.214-7.902,7.476-13.768
		c-1.736-5.867-7.903-9.214-13.768-7.476l-25.71,7.616c-0.749-2.552-1.498-5.111-2.248-7.675l24.12-7.144
		c5.867-1.738,9.214-7.902,7.476-13.768c-1.738-5.866-7.904-9.214-13.768-7.476l-24.035,7.12c-0.747-2.567-1.491-5.127-2.232-7.679
		l22.428-6.644c5.867-1.738,9.214-7.902,7.476-13.768c-1.737-5.867-7.904-9.215-13.768-7.476l-22.293,6.604
		c-0.743-2.582-1.481-5.146-2.21-7.686l20.664-6.121c5.867-1.738,9.214-7.902,7.476-13.768c-1.737-5.866-7.905-9.214-13.768-7.476
		l-17.715,5.248c0.318-1.512,0.822-2.968,1.581-4.308c2.143-3.782,6.266-6.514,12.257-8.119c5.91-1.583,9.418-7.658,7.833-13.568
		s-7.658-9.419-13.568-7.833c-11.776,3.155-20.699,9.588-25.803,18.603c-5.515,9.739-6.372,22.08-2.479,35.69
		c13.213,46.208,29.558,101.656,41.787,142.853c10.291,34.663,17.651,59.183,17.81,59.715c0.902,3.003,3.034,5.485,5.869,6.826
		l56.471,26.734c0.044,0.021,0.09,0.034,0.134,0.054c0.194,0.089,0.388,0.175,0.587,0.253c18.745,9.034,40.646,25.066,40.646,50.661
		c0,6.119,4.961,11.078,11.078,11.078s11.078-4.96,11.078-11.078C340.075,315.444,322.412,291.098,290.221,274.567z"/>
</g>
<path style="fill:#6BADB4;" d="M253.871,260.733l67.63-253.521c-3.401-1.928-7.212-3.445-11.377-4.564L300.231,0l-97.194,274.397
	C204.397,273.701,253.871,260.733,253.871,260.733z"/>
<path style="fill:#83C7C3;" d="M335.881,21.226c-3.29-5.816-8.165-10.558-14.38-14.014l-89.787,253.521
	c0,0-27.318,12.968-28.677,13.664c-27.434,14.047-44.343,33.78-48.814,56.677c-27.963,0.361-53.839,24.505-63.077,58.98
	c-5.034,18.785-4.302,38.04,2.061,54.219c6.82,17.342,19.215,29.207,34.9,33.409c3.938,1.056,8.012,1.591,12.11,1.591
	c25.253,0,48.888-19.457,60.242-48.459l3.599,0.965c0.96,0.257,1.924,0.38,2.874,0.38c4.891,0,9.368-3.265,10.694-8.213
	c1.584-5.91-1.923-11.984-7.833-13.568l-3.602-0.965c2.279-15.213,0.818-30.288-4.322-43.356
	c-5.476-13.923-14.551-24.305-26.032-30.036c3.72-21.206,22.811-35.042,39.628-43.07c8.314-3.969,57.559-27.16,57.559-27.16
	c2.836-1.34,4.974-3.822,5.871-6.824c0.355-1.163,35.196-117.263,59.468-202.111C342.24,43.26,341.387,30.941,335.881,21.226z
	 M182.528,414.539c-6.504,24.272-24.694,42.576-42.311,42.576c-2.161,0-4.307-0.281-6.376-0.835
	c-8.724-2.337-15.832-9.482-20.014-20.117c-4.64-11.797-5.095-26.137-1.278-40.375c6.504-24.272,24.693-42.576,42.311-42.576
	c2.161,0,4.307,0.281,6.376,0.835c8.724,2.337,15.832,9.482,20.014,20.117C185.889,385.962,186.343,400.301,182.528,414.539z"/>
<g>
</g>
<g>
</g>
<g>
</g>
<g>
</g>
<g>
</g>
<g>
</g>
<g>
</g>
<g>
</g>
<g>
</g>
<g>
</g>
<g>
</g>
<g>
</g>
<g>
</g>
<g>
</g>
<g>
</g>
</svg>
