<svg xmlns="http://www.w3.org/2000/svg" viewBox="0 0 512 512"><g fill="#9ae1d3"><path d="M353.186 479.964c-28.262-.002-54.509-24.31-63.835-59.112-5.044-18.823-4.311-38.116 2.065-54.327 6.832-17.373 19.248-29.259 34.962-33.47a46.886 46.886 0 0 1 12.131-1.593c28.257 0 54.506 24.308 63.832 59.112 5.044 18.823 4.311 38.116-2.065 54.325-6.832 17.373-19.248 29.259-34.962 33.47a46.79 46.79 0 0 1-12.128 1.595zM338.508 353.62c-2.169 0-4.322.281-6.397.838-8.751 2.345-15.882 9.511-20.076 20.177-4.653 11.829-5.108 26.207-1.283 40.482 6.522 24.337 24.763 42.689 42.432 42.69a24.74 24.74 0 0 0 6.395-.838c8.751-2.345 15.882-9.511 20.076-20.177 4.653-11.829 5.108-26.207 1.283-40.482-6.521-24.338-24.761-42.69-42.43-42.69z"/><path d="M403.347 512c-9.42 0-18.792-2.747-27.261-8.106-11.958-7.565-20.602-19.411-24.339-33.358-1.584-5.91 1.923-11.984 7.833-13.568 5.909-1.585 11.983 1.924 13.568 7.833 2.291 8.553 7.542 15.786 14.783 20.367 6.969 4.409 14.881 5.746 22.283 3.763 5.906-1.584 11.983 1.924 13.568 7.833 1.584 5.91-1.923 11.984-7.833 13.568A48.524 48.524 0 0 1 403.347 512zM290.221 274.567l-33.208-93.8c-1.968-5.556-7.944-8.598-13.59-6.925l-28.917 8.566-2.535-8.556 27.35-8.102c5.867-1.738 9.214-7.902 7.476-13.768-1.736-5.867-7.903-9.214-13.768-7.476l-27.334 8.097-2.261-7.672 25.757-7.63c5.867-1.738 9.214-7.902 7.476-13.768-1.736-5.867-7.903-9.214-13.768-7.476l-25.71 7.616c-.749-2.552-1.498-5.111-2.248-7.675l24.12-7.144c5.867-1.738 9.214-7.902 7.476-13.768-1.738-5.866-7.904-9.214-13.768-7.476l-24.035 7.12-2.232-7.679 22.428-6.644c5.867-1.738 9.214-7.902 7.476-13.768-1.737-5.867-7.904-9.215-13.768-7.476l-22.293 6.604c-.743-2.582-1.481-5.146-2.21-7.686l20.664-6.121c5.867-1.738 9.214-7.902 7.476-13.768-1.737-5.866-7.905-9.214-13.768-7.476l-17.715 5.248c.318-1.512.822-2.968 1.581-4.308 2.143-3.782 6.266-6.514 12.257-8.119 5.91-1.583 9.418-7.658 7.833-13.568S188.805.55 182.895 2.136c-11.776 3.155-20.699 9.588-25.803 18.603-5.515 9.739-6.372 22.08-2.479 35.69 13.213 46.208 29.558 101.656 41.787 142.853 10.291 34.663 17.651 59.183 17.81 59.715a11.074 11.074 0 0 0 5.869 6.826l56.471 26.734c.044.021.09.034.134.054.194.089.388.175.587.253 18.745 9.034 40.646 25.066 40.646 50.661 0 6.119 4.961 11.078 11.078 11.078s11.078-4.96 11.078-11.078c.002-28.081-17.661-52.427-49.852-68.958z"/></g><path d="M253.871 260.733l67.63-253.521c-3.401-1.928-7.212-3.445-11.377-4.564L300.231 0l-97.194 274.397c1.36-.696 50.834-13.664 50.834-13.664z" fill="#6badb4"/><path d="M335.881 21.226c-3.29-5.816-8.165-10.558-14.38-14.014l-89.787 253.521s-27.318 12.968-28.677 13.664c-27.434 14.047-44.343 33.78-48.814 56.677-27.963.361-53.839 24.505-63.077 58.98-5.034 18.785-4.302 38.04 2.061 54.219 6.82 17.342 19.215 29.207 34.9 33.409a46.769 46.769 0 0 0 12.11 1.591c25.253 0 48.888-19.457 60.242-48.459l3.599.965c.96.257 1.924.38 2.874.38 4.891 0 9.368-3.265 10.694-8.213 1.584-5.91-1.923-11.984-7.833-13.568l-3.602-.965c2.279-15.213.818-30.288-4.322-43.356-5.476-13.923-14.551-24.305-26.032-30.036 3.72-21.206 22.811-35.042 39.628-43.07 8.314-3.969 57.559-27.16 57.559-27.16a11.056 11.056 0 0 0 5.871-6.824c.355-1.163 35.196-117.263 59.468-202.111 3.877-13.596 3.024-25.915-2.482-35.63zM182.528 414.539c-6.504 24.272-24.694 42.576-42.311 42.576-2.161 0-4.307-.281-6.376-.835-8.724-2.337-15.832-9.482-20.014-20.117-4.64-11.797-5.095-26.137-1.278-40.375 6.504-24.272 24.693-42.576 42.311-42.576 2.161 0 4.307.281 6.376.835 8.724 2.337 15.832 9.482 20.014 20.117 4.639 11.798 5.093 26.137 1.278 40.375z" fill="#83c7c3"/></svg>