<svg xmlns="http://www.w3.org/2000/svg" viewBox="0 0 468.84 403.81"><defs><style>.cls-1{isolation:isolate;}.cls-2{fill:#ff7043;}.cls-3{fill:#f5f5f5;}.cls-4{fill:#3e2723;}.cls-5{fill:#80cbc4;}.cls-6{fill:#b2dfdb;}.cls-22,.cls-7,.cls-8{fill:#212121;}.cls-7{opacity:0.2;}.cls-7,.cls-8{mix-blend-mode:multiply;}.cls-8{opacity:0.4;}.cls-9{fill:#e0e0e0;}.cls-10{fill:#bdbdbd;}.cls-11{fill:#ff490f;}.cls-12{fill:#eee;}.cls-13{fill:#d32e2e;}.cls-14{fill:#e53a35;}.cls-15,.cls-19{fill:#fafbfb;}.cls-16{fill:#2e7d32;}.cls-17{fill:#1b5e20;}.cls-18{fill:#00897b;}.cls-19{font-size:62.69px;font-family:OstrichSans-Black, OstrichSans Black;}.cls-20{letter-spacing:0.4em;}.cls-21{letter-spacing:0.37em;}</style></defs><title>storeArtboard 1</title><g class="cls-1"><g id="OBJECTS"><rect class="cls-2" x="19.67" y="134.22" width="429.49" height="269.58"/><path class="cls-3" d="M450.38,387.5h-41v16.31h45.67v-11.6A4.71,4.71,0,0,0,450.38,387.5Z"/><rect class="cls-4" x="288.75" y="208.83" width="120.67" height="194.97"/><rect class="cls-5" x="295.92" y="216" width="106.33" height="180.64"/><polygon class="cls-6" points="402.25 260.7 402.25 271.78 346.47 216 357.55 216 402.25 260.7"/><polygon class="cls-6" points="402.25 369.6 402.25 380.67 295.92 274.34 295.92 263.27 402.25 369.6"/><polygon class="cls-6" points="402.25 277.67 402.25 299.83 318.42 216 340.58 216 402.25 277.67"/><rect class="cls-7" x="295.92" y="216" width="106.33" height="3.83"/><polygon class="cls-8" points="288.75 360.36 288.75 403.81 332.19 403.81 288.75 360.36"/><circle class="cls-9" cx="308.79" cy="293.67" r="4.58"/><circle class="cls-9" cx="308.79" cy="326.5" r="4.58"/><path class="cls-3" d="M308.79,290.08a2.62,2.62,0,0,0-2.62,2.63v34.75a2.63,2.63,0,0,0,5.25,0V292.71A2.62,2.62,0,0,0,308.79,290.08Z"/><path class="cls-3" d="M18.46,387.5H288.75a0,0,0,0,1,0,0v16.31a0,0,0,0,1,0,0h-275a0,0,0,0,1,0,0v-11.6A4.71,4.71,0,0,1,18.46,387.5Z"/><rect class="cls-10" x="19.13" y="117.17" width="430.57" height="7.9"/><rect class="cls-10" x="19.13" y="101.36" width="430.57" height="7.9"/><rect class="cls-2" x="24.42" y="109.26" width="420" height="7.9"/><rect class="cls-8" x="24.42" y="109.26" width="420" height="3.95"/><rect class="cls-11" x="371.6" y="192.82" width="24.09" height="9.37"/><rect class="cls-11" x="402.02" y="192.82" width="24.09" height="9.37"/><rect class="cls-11" x="386.91" y="177.22" width="24.09" height="9.37"/><rect class="cls-11" x="414.07" y="324.28" width="24.09" height="9.37"/><rect class="cls-11" x="429.38" y="308.68" width="24.09" height="9.37"/><rect class="cls-11" x="59.44" y="192.82" width="24.09" height="9.37"/><rect class="cls-11" x="89.86" y="192.82" width="24.09" height="9.37"/><rect class="cls-11" x="74.75" y="177.22" width="24.09" height="9.37"/><rect class="cls-11" x="105.17" y="177.22" width="24.09" height="9.37"/><rect class="cls-11" x="132.52" y="370.73" width="24.09" height="9.37" transform="translate(289.14 750.83) rotate(180)"/><rect class="cls-11" x="222.37" y="355.13" width="24.09" height="9.37" transform="translate(468.84 719.63) rotate(180)"/><rect class="cls-11" x="102.1" y="370.73" width="24.09" height="9.37" transform="translate(228.3 750.83) rotate(180)"/><rect class="cls-11" x="117.21" y="355.13" width="24.09" height="9.37" transform="translate(258.52 719.63) rotate(180)"/><rect class="cls-11" x="86.79" y="355.13" width="24.09" height="9.37" transform="translate(197.68 719.63) rotate(180)"/><rect class="cls-11" x="15.64" y="273.95" width="17.41" height="9.37"/><rect class="cls-11" x="26.71" y="258.35" width="17.41" height="9.37"/><path class="cls-3" d="M409.42,236.37a1.8,1.8,0,0,0-1.8,1.8v13.71a1.8,1.8,0,0,0,3.59,0V238.17A1.8,1.8,0,0,0,409.42,236.37Z"/><path class="cls-3" d="M409.42,359a1.8,1.8,0,0,0-1.8,1.8v13.71a1.8,1.8,0,1,0,3.59,0V360.76A1.8,1.8,0,0,0,409.42,359Z"/><rect class="cls-11" x="216.94" y="192.82" width="12.05" height="9.37"/><rect class="cls-11" x="230.69" y="177.22" width="12.05" height="9.37"/><rect class="cls-11" x="198.45" y="177.22" width="24.09" height="9.37"/><rect class="cls-11" x="36.28" y="354.48" width="12.05" height="9.37"/><rect class="cls-11" x="15.79" y="338.88" width="24.09" height="9.37"/><rect class="cls-11" x="417.92" y="262.65" width="17.39" height="9.37"/><rect class="cls-11" x="257.92" y="233.3" width="12.16" height="9.37"/><rect class="cls-11" x="264" y="246.8" width="12.16" height="9.37"/><path class="cls-9" d="M58.57,159a25.12,25.12,0,0,0,25.12,25.12h0A25.12,25.12,0,0,0,108.81,159V143.38H58.57Z"/><path class="cls-9" d="M159.06,159a25.12,25.12,0,0,0,25.12,25.12h0A25.12,25.12,0,0,0,209.3,159V143.38H159.06Z"/><path class="cls-9" d="M259.54,159a25.12,25.12,0,0,0,25.12,25.12h0A25.12,25.12,0,0,0,309.78,159V143.38H259.54Z"/><path class="cls-9" d="M360,143.38V159a25.12,25.12,0,0,0,25.12,25.12h0A25.12,25.12,0,0,0,410.26,159V143.38Z"/><polygon class="cls-12" points="58.57 143.38 108.81 143.38 114.81 125.07 66.97 125.07 58.57 143.38"/><polygon class="cls-12" points="159.06 143.38 209.3 143.38 210.5 125.07 162.66 125.07 159.06 143.38"/><polygon class="cls-12" points="258.34 125.07 259.54 143.38 309.78 143.38 306.18 125.07 258.34 125.07"/><polygon class="cls-12" points="401.86 125.07 354.02 125.07 360.02 143.38 410.26 143.38 401.86 125.07"/><path class="cls-13" d="M8.33,159a25.12,25.12,0,0,0,25.12,25.12h0A25.12,25.12,0,0,0,58.57,159V143.38H8.33Z"/><path class="cls-13" d="M108.81,159a25.12,25.12,0,0,0,25.12,25.12h0A25.12,25.12,0,0,0,159.06,159V143.38H108.81Z"/><path class="cls-13" d="M209.3,159a25.12,25.12,0,1,0,50.24,0V143.38H209.3Z"/><path class="cls-13" d="M309.78,159a25.12,25.12,0,0,0,25.12,25.12h0A25.12,25.12,0,0,0,360,159V143.38H309.78Z"/><path class="cls-13" d="M410.26,143.38V159a25.12,25.12,0,0,0,25.12,25.12h0A25.12,25.12,0,0,0,460.5,159V143.38Z"/><polygon class="cls-14" points="8.33 143.38 58.57 143.38 66.97 125.07 19.13 125.07 8.33 143.38"/><polygon class="cls-14" points="108.81 143.38 159.06 143.38 162.66 125.07 114.81 125.07 108.81 143.38"/><polygon class="cls-14" points="210.5 125.07 209.3 143.38 259.54 143.38 258.34 125.07 210.5 125.07"/><polygon class="cls-14" points="306.18 125.07 309.78 143.38 360.02 143.38 354.02 125.07 306.18 125.07"/><polygon class="cls-14" points="449.7 125.07 401.86 125.07 410.26 143.38 460.5 143.38 449.7 125.07"/><rect class="cls-11" x="24.35" y="208.83" width="12.77" height="9.37"/><rect class="cls-4" x="53.51" y="210.83" width="204.41" height="124"/><rect class="cls-5" x="60.67" y="218" width="190.08" height="109.67"/><polygon class="cls-6" points="250.75 250.36 250.75 267.33 201.42 218 218.39 218 250.75 250.36"/><polygon class="cls-6" points="250.75 272.05 250.75 280.53 188.22 218 196.71 218 250.75 272.05"/><polygon class="cls-6" points="250.75 310.7 250.75 327.67 233.78 327.67 124.11 218 158.05 218 250.75 310.7"/><rect class="cls-7" x="60.67" y="218" width="190.08" height="3.83"/><rect class="cls-15" x="42.87" y="334.83" width="225.69" height="23.33"/><path class="cls-16" d="M254.57,321.17H56.86a9.48,9.48,0,0,0-9.48,9.48v4.19H264v-4.19A9.48,9.48,0,0,0,254.57,321.17Z"/><rect class="cls-12" x="42.87" y="334.83" width="225.69" height="5"/><path class="cls-17" d="M264,330.17H47.41c0,.16,0,.32,0,.48v4.19H264v-4.19C264,330.49,264,330.33,264,330.17Z"/><polygon class="cls-8" points="288.75 355.02 288.75 403.81 88.51 403.81 42.87 358.17 268.56 358.17 268.56 334.83 288.75 355.02"/><rect class="cls-4" width="468.84" height="93.69" rx="12.57" ry="12.57"/><rect class="cls-18" x="7.29" y="7.43" width="454.26" height="78.83" rx="8.08" ry="8.08"/><path class="cls-7" d="M461.54,15.51v.9H7.29v-.9a8.07,8.07,0,0,1,8.08-8.08H453.46A8.07,8.07,0,0,1,461.54,15.51Z"/><text class="cls-19" transform="translate(100.19 73)"><tspan class="cls-20">S</tspan><tspan class="cls-21" x="55.98" y="0">T</tspan><tspan class="cls-20" x="110.53" y="0">OR</tspan><tspan x="237.6" y="0">E</tspan></text><rect class="cls-22" x="50.32" y="93.69" width="7.5" height="7.67"/><rect class="cls-22" x="411.02" y="93.69" width="7.5" height="7.67"/></g></g></svg>