<svg id="Layer_1" data-name="Layer 1" xmlns="http://www.w3.org/2000/svg" viewBox="0 0 512 512"><defs><style>.cls-1{fill:#2d424d;}.cls-2{fill:#253740;}.cls-3{fill:#1e2c33;}.cls-4{fill:#ffd464;}.cls-5{fill:#e16b5a;}.cls-6{fill:#ffe399;}</style></defs><title>Plan de travail 1</title><path class="cls-1" d="M128,170V282h0c4.39,24,60.34,43.6,128,43.6S379,306,383.38,282H384V170Z"/><path class="cls-2" d="M372,170V282h0c-4.25,24-57.43,42.12-122.23,43.26,2.06,0,4.14.2,6.23.2,67.66,0,123.61-19.46,128-43.46h0V170Z"/><path class="cls-3" d="M448,174v5L267.68,156.12a69,69,0,0,0-23.18,0L68,178.42V178H56v5.53c0,.77,2.36,1.56,4.43,2.26l149.35,44.88c6.48,2.22,17.32,2.7,24,1.07l217.45-47c2.28-.56,4.79-1.21,4.79-1.88V178Z"/><path class="cls-1" d="M456,174.83c0-.64-2.54-1.24-4.88-1.7L268.39,149.88a77,77,0,0,0-24.54,0L60.91,173.14c-2.29.45-4.91,1.09-4.91,1.82v3c0,.77,2.36.86,4.43,1.56l149.35,44.88c6.48,2.22,17.32,2.7,24,1.07,0,0,222.24-46.84,222.24-47.5v-3.18Z"/><path class="cls-4" d="M314,331.25a6,6,0,0,1-6-6.23V214.27l-70-23.49a6.11,6.11,0,0,1-3.7-7.88,6.35,6.35,0,0,1,8-3.94l74.1,24.92c2.55.85,7.62,3.44,7.62,6.12V326C324,329.44,317.44,331.25,314,331.25Z"/><path class="cls-5" d="M332,338V325c0-8.6-7.4-15.58-16-15.58s-16,7-16,15.58v13Z"/><rect class="cls-4" x="300" y="338" width="32" height="36"/><rect class="cls-6" x="304" y="338" width="4" height="36"/><rect class="cls-6" x="312" y="338" width="4" height="36"/><rect class="cls-6" x="320" y="338" width="4" height="36"/></svg>