<?xml version="1.0" encoding="utf-8"?>
<!-- Generator: Adobe Illustrator 21.0.0, SVG Export Plug-In . SVG Version: 6.00 Build 0)  -->
<svg version="1.1" id="Calque_1" xmlns="http://www.w3.org/2000/svg" xmlns:xlink="http://www.w3.org/1999/xlink" x="0px" y="0px"
	 viewBox="0 0 1000 1000" style="enable-background:new 0 0 1000 1000;" xml:space="preserve">
<style type="text/css">
	.st0{fill:#FCE0C4;}
	.st1{fill:#BCA599;}
	.st2{fill:#BBA194;}
	.st3{fill:none;}
	.st4{opacity:0.7;fill:#608C7F;enable-background:new    ;}
	.st5{fill:#9E8270;}
	.st6{fill:#FAF7D3;}
	.st7{fill:#608C7F;}
	.st8{fill:#575754;}
</style>
<g id="Calque_2">
	<path class="st0" d="M252.7,317.4c0,0-42.4-6.1-25.7,43.8c0,0,4.6,22.7,4.6,30.3c0,7.5,4.6,30.3,4.6,30.3s3,13.6,9,10.6
		c6.1-3,80.1,119.5,84.7,121s84.7,49.9,84.7,49.9v27.2h21.1c0,0,24.2-16.7,51.4,0l21.1,1.5l1.5-31.7l143.7-137.7l24.2-31.7
		c0,0,6.1,1.5,10.6-6.1c4.6-7.5,10.6-18.2,7.5-27.2c-3-9,6.1-48.4,6.1-48.4s13.6-34.8-25.7-33.2h-10.5l-3-74.1l-6.1-48.4l-174-115.1
		l-174,48.4l-51.4,59l4.6,115L252.7,317.4z"/>
</g>
<g id="Calque_3">
	<path class="st1" d="M269.4,332.5l1.5,51.4l4.6,28.8c0,0,9,22.7,21.1,27.2c12.1,4.6,24.2,16.7,53,16.7c0,0,48.4-9,57.4-9s9,0,9,0
		s10.6,4.6,19.6,1.5c0,0,25.7,13.6,54.5,1.5c0,0,9,1.5,19.6-4.6c0,0,28.8,4.6,37.8,10.6c0,0,54.5,4.6,80.1-13.6
		c0,0,21.1-19.6,25.7-31.7c0,0,4.6-19.6,6.1-27.2s0-34.8,0-34.8l6.1-27.2l9-12.1l6.1,172.4c0,0,10.6,55.9-27.2,86.2
		c0,0-37.8,40.9-95.3,33.2H422.2c0,0-96.8,6.1-111.9-9c0,0-51.4-21.1-62-69.5c0,0-3-40.9,1.5-71.1l6.1-137.7L269.4,332.5z"/>
</g>
<g id="Calque_4">
	<path class="st0" d="M407.1,492.7c0,0,22.7,27.2,80.1,18.2c0,0,21.1-4.6,31.7-13.6c0,0,10.6-13.6-13.6-7.5c0,0-51.4,16.7-81.6,0
		C423.6,489.8,408.6,482.3,407.1,492.7z"/>
</g>
<g id="Calque_5">
	<path class="st2" d="M413.2,275.1c0,0-75.6-9-113.5-4.6c0,0-3-13.6,9-15.1c0,0,69.5-25.7,107.4-3
		C416.1,252.3,432.8,249.2,413.2,275.1z"/>
	<path class="st2" d="M506.9,250.9c0,0-1.5,24.2,9,24.2c0,0,49.9-9,63.5-7.5c13.6,1.5,48.4,1.5,48.4,1.5s15.1-9-25.7-18.2
		C602.2,250.9,584.1,231.1,506.9,250.9z"/>
</g>
<g id="Calque_6">
	<path class="st2" d="M256.9,275.8l9.4-0.9l-0.9-27.5l0.9-12.8l3.4-28.2c0,0-0.9-69.4,53.1-30c0,0,28.2-72.8,101.1-30.8
		c0,0,94.2,66.9,102.7,71.1c0,0,91.6,55.6,135.3,19.6l0.9,38.5l10.3,1.8l-2.5-46.2c0,0,51.4-32.6,26.6-149.9c0,0-10.3-36-24.8-44.6
		c0,0-11.1,43.7-31.7,38.5c0,0-20.5,4.3-47.1-19.6c0,0-77.9-51.4-152.5-48.8c0,0-88.3,1.8-118.2,40.3c0,0-16.2,23.9-12.8,54
		c0,0-37.6-28.2-60.8,11.1c0,0-18.9,26.6-10.3,84c0,0,6.1,39.4,18.9,56.5L256.9,275.8z"/>
</g>
<g id="Calque_7">
	<g>
		<path class="st3" d="M396.8,285.1c-29.7-9.7-88.7,0-88.7,0c-10.2,0.4-22.3,13.9-22.3,13.9c-6.9,6.1-3.2,37.2-3.2,37.2
			c0.9,18.2,14.9,35.3,14.9,35.3s15.8,13.4,29.2,14.9c0,0,16.2,2.4,19.9,2.4c0,0,35.7-0.4,39.6-1.3c0,0,21.4-3.2,33.5-17.7
			c0,0,11.5-15.8,13-28.8c0.4-4.1,1.9-13,1.9-13C441.9,289.2,396.8,285.1,396.8,285.1z"/>
		<path class="st4" d="M282.6,336.2c0,0-3.7-31.1,3.2-37.2c0,0,12.1-13.4,22.3-13.9c0,0,59-9.7,88.7,0c0,0,45,4.1,37.6,42.8
			l22.3-43.2c0,0-67.7-16.5-112.5-15.3c0,0-80.3,1.3-92.8,7.4c0,0-0.6,29.2,1.9,33.5c0,0,10.6,13,12.5,15.8c0,0,9.7,21.4,11.2,27.5
			c0,0,10.2,19.9,13.9,22.7l6.5-4.6C297.5,371.4,283.6,354.3,282.6,336.2z"/>
		<path class="st4" d="M463.8,285.5l-6.9-0.9l-22.3,43.2c0,0-1.3,8.9-1.9,13c-1.5,13-13,28.8-13,28.8
			c-12.1,14.5-33.5,17.7-33.5,17.7c-3.7,0.9-39.6,1.3-39.6,1.3c-3.7,0-19.9-2.4-19.9-2.4c-13.4-1.3-29.2-14.9-29.2-14.9L291,376
			c15.3,13.4,31.1,16.7,31.1,16.7c16.2,6.1,53.4,4.1,53.4,4.1c15.3,0.9,40-11.2,40-11.2c18.6-8.9,27.9-38.5,27.9-38.5
			c8.9-30.3,21-31.1,21-31.1L463.8,285.5z"/>
	</g>
	<g>
		<path class="st3" d="M530,285.4c29.7-9.7,88.7,0,88.7,0c10.2,0.4,22.3,13.9,22.3,13.9c6.9,6.1,3.2,37.2,3.2,37.2
			c-0.9,18.2-14.9,35.3-14.9,35.3s-15.8,13.4-29.2,14.9c0,0-16.2,2.4-19.9,2.4c0,0-35.7-0.4-39.6-1.3c0,0-21.4-3.2-33.5-17.7
			c0,0-11.5-15.8-13-28.8c-0.4-4.1-1.9-13-1.9-13C485,289.7,530,285.4,530,285.4z"/>
		<path class="st4" d="M644.4,336.5c0,0,3.7-31.1-3.2-37.2c0,0-12.1-13.4-22.3-13.9c0,0-59-9.7-88.7,0c0,0-45,4.1-37.6,42.8
			L470.3,285c0,0,67.7-16.5,112.5-15.3c0,0,80.3,1.3,92.8,7.4c0,0,0.6,29.2-1.9,33.5c0,0-10.6,13-12.5,15.8c0,0-9.7,21.4-11.2,27.5
			c0,0-10.2,19.9-13.9,22.7l-6.5-4.6C629.5,371.9,643.4,354.6,644.4,336.5z"/>
		<path class="st4" d="M463.2,285.8l6.9-0.9l22.3,43.2c0,0,1.3,8.9,1.9,13c1.5,13,13,28.8,13,28.8c12.1,14.5,33.5,17.7,33.5,17.7
			c3.7,0.9,39.6,1.3,39.6,1.3c3.7,0,19.9-2.4,19.9-2.4c13.4-1.3,29.2-14.9,29.2-14.9l6.5,4.6c-15.3,13.4-31.1,16.7-31.1,16.7
			c-16.2,6.1-53.4,4.1-53.4,4.1c-15.3,0.9-40-11.2-40-11.2c-18.6-8.9-27.9-38.5-27.9-38.5c-8.9-30.3-21-31.1-21-31.1L463.2,285.8z"
			/>
	</g>
	<g>
		<path class="st5" d="M355.8,326c-10,0-18.2,8.1-18.2,18.2s8.1,18.2,18.2,18.2c10,0,18.2-8.1,18.2-18.2
			C373.9,334.2,365.6,326,355.8,326z M360.3,344.6c-3.4,0-6.2-3.1-6.2-6.8s2.8-6.8,6.2-6.8c3.4,0,6.2,3.1,6.2,6.8
			C366.4,341.5,363.7,344.6,360.3,344.6z"/>
		<ellipse class="st6" cx="360.3" cy="337.8" rx="6.2" ry="6.8"/>
	</g>
	<g>
		<path class="st5" d="M572.7,326.6c-10,0-18.2,8.1-18.2,18.2s8.1,18.2,18.2,18.2c10,0,18.2-8.1,18.2-18.2S582.7,326.6,572.7,326.6z
			 M577.4,345c-3.4,0-6.2-3.1-6.2-6.8s2.8-6.8,6.2-6.8s6.2,3.1,6.2,6.8C583.5,341.9,580.8,345,577.4,345z"/>
		<ellipse class="st6" cx="577.4" cy="338.2" rx="6.2" ry="6.8"/>
	</g>
</g>
<g id="Calque_8">
	<path class="st0" d="M414.6,630.4c0,0,20.4,42.9,47.1,48.8c0,0,35.4-5.3,46.6-47.4C508.4,631.9,447.8,599.4,414.6,630.4z"/>
</g>
<g id="Calque_9">
	<path class="st7" d="M414.6,630.4c0,0,23.3,51.8,47.1,48.8c0,0,35.4-8.4,46.6-47.4l105.1,1.2c0,0,31.3,8.9,44.6,31.3l70,72.9
		l28.2,26.7c0,0-40.1,38.7-72.9,32.8c-32.8-5.9-13.4-4.4-13.4-4.4l-5.9,153.2v59.5l-394.2-3l-1.5-129.4L234,880
		c0,0-98.1,49.1-125-13.4c0,0-23.8-35.7,47.7-93.7l126.5-117.5c0,0,20.8-23.8,46-20.8L414.6,630.4z"/>
	<path class="st7" d="M753.5,760.8L899.7,908c0,0-32.8,56.8-53.7,53.4c-21-3.4-177.1-167.9-177.1-167.9S752.9,775.8,753.5,760.8z"/>
	<path class="st0" d="M257.9,774.5c0,0-43.1,20.8-28.2,53.6c0,0,8.9,44.6,23.8,44.6c0,0,17.9,3,13.4-17.9c0,0-8.9-14.9-5.9-19.3
		c0,0,8.9-10.5,19.3,32.8c0,0,16.4,19.3,22.3-1.5c0,0-1.5-14.9-8.9-35.7c0,0,4.4-14.9,10.5,5.9c0,0,8.9,38.7,23.8,31.3
		c0,0,17.9,0,1.5-38.7c0,0-7.4-25.2,3-13.4c0,0,32.8,81.8,41.6,75.9c0,0,19.3,3-4.4-50.6l-23.8-62.4c0,0-12-22.3-38.7-17.9
		C307.1,761,272.8,767.1,257.9,774.5z"/>
</g>
<g id="Calque_12">
</g>
<g id="Calque_11">
	<path class="st8" d="M331,829.5c0,0-25.7,12-20.8,22.3l24.1-12L331,829.5z"/>
	<polygon class="st8" points="359.9,815.8 392.9,812.6 366.1,831.3 	"/>
	<polygon class="st8" points="370.2,843.3 391.3,803.3 365.8,831 	"/>
	<path class="st8" d="M446.1,757.4c0,0-59.5,50.6-65.4,63.9C380.5,821.3,388.1,754.4,446.1,757.4z"/>
	<path class="st8" d="M454.9,760.8c0,0-69.7,63.8-91.4,60.1C363.7,820.8,440.8,825.4,454.9,760.8z"/>
</g>
<g id="Calque_10">
	<path class="st0" d="M846,961.5l-3,57.4c0,0,21.4,19.6,19.6-46.3c0,0,28.5,64.2,46.3,67.7c17.9,3.5-28.5-71.3-28.5-71.3
		s44.6,71.3,58.9,57.1c14.3-14.3-41-67.7-41-67.7s58.9,57.1,67.7,39.3c8.9-17.9-64.2-53.6-64.2-53.6s67.7,30.3,71.3,12.5
		c3.5-17.9-73.5-48.4-73.5-48.4"/>
</g>
</svg>
